<?xml version="1.0" encoding="UTF-8" standalone="no"?>
<!DOCTYPE svg PUBLIC "-//W3C//DTD SVG 1.1//EN"
 "http://www.w3.org/Graphics/SVG/1.1/DTD/svg11.dtd">
<!-- Generated by graphviz version 2.40.1 (20161225.0304)
 -->
<!-- Title: dependencies Pages: 1 -->
<svg width="5526pt" height="211pt"
 viewBox="0.00 0.00 5526.00 211.00" xmlns="http://www.w3.org/2000/svg" xmlns:xlink="http://www.w3.org/1999/xlink">
<g id="graph0" class="graph" transform="scale(1 1) rotate(0) translate(4 207)">
<title>dependencies</title>
<polygon fill="#ffffff" stroke="transparent" points="-4,4 -4,-207 5522,-207 5522,4 -4,4"/>
<text text-anchor="start" x="2738.0091" y="-42.4" font-family="sans-serif" font-weight="bold" font-size="14.00" fill="#000000">Legend</text>
<polygon fill="#ffffb3" stroke="transparent" points="2525,-10 2525,-30 2545,-30 2545,-10 2525,-10"/>
<text text-anchor="start" x="2548.629" y="-15.4" font-family="sans-serif" font-size="14.00" fill="#000000"> &#160;Declarations</text>
<polygon fill="#8dd3c7" stroke="transparent" points="2638,-10 2638,-30 2658,-30 2658,-10 2638,-10"/>
<text text-anchor="start" x="2661.7251" y="-15.4" font-family="sans-serif" font-size="14.00" fill="#000000"> &#160;Module</text>
<polygon fill="#80b1d3" stroke="transparent" points="2724,-10 2724,-30 2744,-30 2744,-10 2724,-10"/>
<text text-anchor="start" x="2747.7812" y="-15.4" font-family="sans-serif" font-size="14.00" fill="#000000"> &#160;Bootstrap</text>
<polygon fill="#fdb462" stroke="transparent" points="2821,-10 2821,-30 2841,-30 2841,-10 2821,-10"/>
<text text-anchor="start" x="2844.6732" y="-15.4" font-family="sans-serif" font-size="14.00" fill="#000000"> &#160;Providers</text>
<polygon fill="#fb8072" stroke="transparent" points="2917,-10 2917,-30 2937,-30 2937,-10 2917,-10"/>
<text text-anchor="start" x="2940.7258" y="-15.4" font-family="sans-serif" font-size="14.00" fill="#000000"> &#160;Exports</text>
<g id="clust1" class="cluster">
<title>cluster_SurveyBuilderModule</title>
<polygon fill="none" stroke="#000000" stroke-dasharray="1,5" points="8,-70 8,-195 5510,-195 5510,-70 8,-70"/>
</g>
<g id="clust2" class="cluster">
<title>cluster_SurveyBuilderModule_declarations</title>
<polygon fill="none" stroke="#000000" points="1143,-78 1143,-130 5502,-130 5502,-78 1143,-78"/>
</g>
<g id="clust27" class="cluster">
<title>cluster_SurveyBuilderModule_imports</title>
<polygon fill="none" stroke="#000000" points="730,-78 730,-130 1135,-130 1135,-78 730,-78"/>
</g>
<g id="clust30" class="cluster">
<title>cluster_SurveyBuilderModule_providers</title>
<polygon fill="none" stroke="#000000" points="16,-78 16,-130 722,-130 722,-78 16,-78"/>
</g>
<!-- CheckboxComponent -->
<g id="node1" class="node">
<title>CheckboxComponent</title>
<polygon fill="#ffffb3" stroke="#000000" points="5494.0982,-122 5355.9018,-122 5355.9018,-86 5494.0982,-86 5494.0982,-122"/>
<text text-anchor="middle" x="5425" y="-99.8" font-family="Times,serif" font-size="14.00" fill="#000000">CheckboxComponent</text>
</g>
<!-- SurveyBuilderModule -->
<g id="node25" class="node">
<title>SurveyBuilderModule</title>
<polygon fill="#8dd3c7" stroke="#000000" points="2697.7007,-187 2694.7007,-191 2673.7007,-191 2670.7007,-187 2556.2993,-187 2556.2993,-151 2697.7007,-151 2697.7007,-187"/>
<text text-anchor="middle" x="2627" y="-164.8" font-family="Times,serif" font-size="14.00" fill="#000000">SurveyBuilderModule</text>
</g>
<!-- CheckboxComponent&#45;&gt;SurveyBuilderModule -->
<g id="edge1" class="edge">
<title>CheckboxComponent&#45;&gt;SurveyBuilderModule</title>
<path fill="none" stroke="#000000" d="M5425,-122.3802C5425,-146.2785 5425,-185 5425,-185 5425,-185 2707.9157,-185 2707.9157,-185"/>
<polygon fill="#000000" stroke="#000000" points="2707.9157,-181.5001 2697.9157,-185 2707.9157,-188.5001 2707.9157,-181.5001"/>
</g>
<!-- CustomBuilderContainerDirective -->
<g id="node2" class="node">
<title>CustomBuilderContainerDirective</title>
<polygon fill="#ffffb3" stroke="#000000" points="5338.3459,-122 5129.6541,-122 5129.6541,-86 5338.3459,-86 5338.3459,-122"/>
<text text-anchor="middle" x="5234" y="-99.8" font-family="Times,serif" font-size="14.00" fill="#000000">CustomBuilderContainerDirective</text>
</g>
<!-- CustomBuilderContainerDirective&#45;&gt;SurveyBuilderModule -->
<g id="edge2" class="edge">
<title>CustomBuilderContainerDirective&#45;&gt;SurveyBuilderModule</title>
<path fill="none" stroke="#000000" d="M5234,-122.3228C5234,-145.6602 5234,-183 5234,-183 5234,-183 2707.7439,-183 2707.7439,-183"/>
<polygon fill="#000000" stroke="#000000" points="2707.7439,-179.5001 2697.7439,-183 2707.7438,-186.5001 2707.7439,-179.5001"/>
</g>
<!-- DateInputComponent -->
<g id="node3" class="node">
<title>DateInputComponent</title>
<polygon fill="#ffffb3" stroke="#000000" points="5111.8104,-122 4974.1896,-122 4974.1896,-86 5111.8104,-86 5111.8104,-122"/>
<text text-anchor="middle" x="5043" y="-99.8" font-family="Times,serif" font-size="14.00" fill="#000000">DateInputComponent</text>
</g>
<!-- DateInputComponent&#45;&gt;SurveyBuilderModule -->
<g id="edge3" class="edge">
<title>DateInputComponent&#45;&gt;SurveyBuilderModule</title>
<path fill="none" stroke="#000000" d="M5043,-122.0109C5043,-144.4852 5043,-180 5043,-180 5043,-180 2707.6725,-180 2707.6725,-180"/>
<polygon fill="#000000" stroke="#000000" points="2707.6726,-176.5001 2697.6725,-180 2707.6725,-183.5001 2707.6726,-176.5001"/>
</g>
<!-- DropdownListComponent -->
<g id="node4" class="node">
<title>DropdownListComponent</title>
<polygon fill="#ffffb3" stroke="#000000" points="4956.4846,-122 4793.5154,-122 4793.5154,-86 4956.4846,-86 4956.4846,-122"/>
<text text-anchor="middle" x="4875" y="-99.8" font-family="Times,serif" font-size="14.00" fill="#000000">DropdownListComponent</text>
</g>
<!-- DropdownListComponent&#45;&gt;SurveyBuilderModule -->
<g id="edge4" class="edge">
<title>DropdownListComponent&#45;&gt;SurveyBuilderModule</title>
<path fill="none" stroke="#000000" d="M4875,-122.2921C4875,-144.2057 4875,-178 4875,-178 4875,-178 2707.6781,-178 2707.6781,-178"/>
<polygon fill="#000000" stroke="#000000" points="2707.6782,-174.5001 2697.6781,-178 2707.6781,-181.5001 2707.6782,-174.5001"/>
</g>
<!-- LocationFieldComponent -->
<g id="node5" class="node">
<title>LocationFieldComponent</title>
<polygon fill="#ffffb3" stroke="#000000" points="4775.8738,-122 4616.1262,-122 4616.1262,-86 4775.8738,-86 4775.8738,-122"/>
<text text-anchor="middle" x="4696" y="-99.8" font-family="Times,serif" font-size="14.00" fill="#000000">LocationFieldComponent</text>
</g>
<!-- LocationFieldComponent&#45;&gt;SurveyBuilderModule -->
<g id="edge5" class="edge">
<title>LocationFieldComponent&#45;&gt;SurveyBuilderModule</title>
<path fill="none" stroke="#000000" d="M4696,-122.2843C4696,-143.3211 4696,-175 4696,-175 4696,-175 2707.6211,-175 2707.6211,-175"/>
<polygon fill="#000000" stroke="#000000" points="2707.6212,-171.5001 2697.6211,-175 2707.6211,-178.5001 2707.6212,-171.5001"/>
</g>
<!-- MultiSelectComponent -->
<g id="node6" class="node">
<title>MultiSelectComponent</title>
<polygon fill="#ffffb3" stroke="#000000" points="4598.1568,-122 4451.8432,-122 4451.8432,-86 4598.1568,-86 4598.1568,-122"/>
<text text-anchor="middle" x="4525" y="-99.8" font-family="Times,serif" font-size="14.00" fill="#000000">MultiSelectComponent</text>
</g>
<!-- MultiSelectComponent&#45;&gt;SurveyBuilderModule -->
<g id="edge6" class="edge">
<title>MultiSelectComponent&#45;&gt;SurveyBuilderModule</title>
<path fill="none" stroke="#000000" d="M4525,-122.1289C4525,-142.5724 4525,-173 4525,-173 4525,-173 2707.6545,-173 2707.6545,-173"/>
<polygon fill="#000000" stroke="#000000" points="2707.6546,-169.5001 2697.6545,-173 2707.6545,-176.5001 2707.6546,-169.5001"/>
</g>
<!-- NestedDragAndDropListComponent -->
<g id="node7" class="node">
<title>NestedDragAndDropListComponent</title>
<polygon fill="#ffffb3" stroke="#000000" points="4433.3375,-122 4210.6625,-122 4210.6625,-86 4433.3375,-86 4433.3375,-122"/>
<text text-anchor="middle" x="4322" y="-99.8" font-family="Times,serif" font-size="14.00" fill="#000000">NestedDragAndDropListComponent</text>
</g>
<!-- NestedDragAndDropListComponent&#45;&gt;SurveyBuilderModule -->
<g id="edge7" class="edge">
<title>NestedDragAndDropListComponent&#45;&gt;SurveyBuilderModule</title>
<path fill="none" stroke="#000000" d="M4322,-122.308C4322,-142.1455 4322,-171 4322,-171 4322,-171 2707.6741,-171 2707.6741,-171"/>
<polygon fill="#000000" stroke="#000000" points="2707.6741,-167.5001 2697.6741,-171 2707.674,-174.5001 2707.6741,-167.5001"/>
</g>
<!-- NumericTextboxComponent -->
<g id="node8" class="node">
<title>NumericTextboxComponent</title>
<polygon fill="#ffffb3" stroke="#000000" points="4192.4678,-122 4015.5322,-122 4015.5322,-86 4192.4678,-86 4192.4678,-122"/>
<text text-anchor="middle" x="4104" y="-99.8" font-family="Times,serif" font-size="14.00" fill="#000000">NumericTextboxComponent</text>
</g>
<!-- NumericTextboxComponent&#45;&gt;SurveyBuilderModule -->
<g id="edge8" class="edge">
<title>NumericTextboxComponent&#45;&gt;SurveyBuilderModule</title>
<path fill="none" stroke="#000000" d="M4104,-122.1686C4104,-141.0898 4104,-168 4104,-168 4104,-168 2707.7412,-168 2707.7412,-168"/>
<polygon fill="#000000" stroke="#000000" points="2707.7412,-164.5001 2697.7412,-168 2707.7411,-171.5001 2707.7412,-164.5001"/>
</g>
<!-- QuestionConditionalsComponent -->
<g id="node9" class="node">
<title>QuestionConditionalsComponent</title>
<polygon fill="#ffffb3" stroke="#000000" points="3997.9381,-122 3794.0619,-122 3794.0619,-86 3997.9381,-86 3997.9381,-122"/>
<text text-anchor="middle" x="3896" y="-99.8" font-family="Times,serif" font-size="14.00" fill="#000000">QuestionConditionalsComponent</text>
</g>
<!-- QuestionConditionalsComponent&#45;&gt;SurveyBuilderModule -->
<g id="edge9" class="edge">
<title>QuestionConditionalsComponent&#45;&gt;SurveyBuilderModule</title>
<path fill="none" stroke="#000000" d="M3896,-122.2667C3896,-140.5552 3896,-166 3896,-166 3896,-166 2707.9461,-166 2707.9461,-166"/>
<polygon fill="#000000" stroke="#000000" points="2707.9462,-162.5001 2697.9461,-166 2707.9461,-169.5001 2707.9462,-162.5001"/>
</g>
<!-- QuestionConfigurationComponent -->
<g id="node10" class="node">
<title>QuestionConfigurationComponent</title>
<polygon fill="#ffffb3" stroke="#000000" points="3776.424,-122 3565.576,-122 3565.576,-86 3776.424,-86 3776.424,-122"/>
<text text-anchor="middle" x="3671" y="-99.8" font-family="Times,serif" font-size="14.00" fill="#000000">QuestionConfigurationComponent</text>
</g>
<!-- QuestionConfigurationComponent&#45;&gt;SurveyBuilderModule -->
<g id="edge10" class="edge">
<title>QuestionConfigurationComponent&#45;&gt;SurveyBuilderModule</title>
<path fill="none" stroke="#000000" d="M3671,-122.0225C3671,-139.3734 3671,-163 3671,-163 3671,-163 2707.9376,-163 2707.9376,-163"/>
<polygon fill="#000000" stroke="#000000" points="2707.9376,-159.5001 2697.9376,-163 2707.9375,-166.5001 2707.9376,-159.5001"/>
</g>
<!-- QuestionDetailsComponent -->
<g id="node11" class="node">
<title>QuestionDetailsComponent</title>
<polygon fill="#ffffb3" stroke="#000000" points="3547.5322,-122 3376.4678,-122 3376.4678,-86 3547.5322,-86 3547.5322,-122"/>
<text text-anchor="middle" x="3462" y="-99.8" font-family="Times,serif" font-size="14.00" fill="#000000">QuestionDetailsComponent</text>
</g>
<!-- QuestionDetailsComponent&#45;&gt;SurveyBuilderModule -->
<g id="edge11" class="edge">
<title>QuestionDetailsComponent&#45;&gt;SurveyBuilderModule</title>
<path fill="none" stroke="#000000" d="M3462,-122.0352C3462,-138.7344 3462,-161 3462,-161 3462,-161 2707.8314,-161 2707.8314,-161"/>
<polygon fill="#000000" stroke="#000000" points="2707.8315,-157.5001 2697.8314,-161 2707.8314,-164.5001 2707.8315,-157.5001"/>
</g>
<!-- QuestionTypeChooserComponent -->
<g id="node12" class="node">
<title>QuestionTypeChooserComponent</title>
<polygon fill="#ffffb3" stroke="#000000" points="3358.8032,-122 3151.1968,-122 3151.1968,-86 3358.8032,-86 3358.8032,-122"/>
<text text-anchor="middle" x="3255" y="-99.8" font-family="Times,serif" font-size="14.00" fill="#000000">QuestionTypeChooserComponent</text>
</g>
<!-- QuestionTypeChooserComponent&#45;&gt;SurveyBuilderModule -->
<g id="edge12" class="edge">
<title>QuestionTypeChooserComponent&#45;&gt;SurveyBuilderModule</title>
<path fill="none" stroke="#000000" d="M3255,-122.0091C3255,-138.0494 3255,-159 3255,-159 3255,-159 2707.8188,-159 2707.8188,-159"/>
<polygon fill="#000000" stroke="#000000" points="2707.8189,-155.5001 2697.8188,-159 2707.8188,-162.5001 2707.8189,-155.5001"/>
</g>
<!-- QuestionViewerComponent -->
<g id="node13" class="node">
<title>QuestionViewerComponent</title>
<polygon fill="#ffffb3" stroke="#000000" points="3133.573,-122 2960.427,-122 2960.427,-86 3133.573,-86 3133.573,-122"/>
<text text-anchor="middle" x="3047" y="-99.8" font-family="Times,serif" font-size="14.00" fill="#000000">QuestionViewerComponent</text>
</g>
<!-- QuestionViewerComponent&#45;&gt;SurveyBuilderModule -->
<g id="edge13" class="edge">
<title>QuestionViewerComponent&#45;&gt;SurveyBuilderModule</title>
<path fill="none" stroke="#000000" d="M3047,-122.1871C3047,-137.1824 3047,-156 3047,-156 3047,-156 2707.7723,-156 2707.7723,-156"/>
<polygon fill="#000000" stroke="#000000" points="2707.7724,-152.5001 2697.7723,-156 2707.7723,-159.5001 2707.7724,-152.5001"/>
</g>
<!-- RadioComponent -->
<g id="node14" class="node">
<title>RadioComponent</title>
<polygon fill="#ffffb3" stroke="#000000" points="2942.2744,-122 2827.7256,-122 2827.7256,-86 2942.2744,-86 2942.2744,-122"/>
<text text-anchor="middle" x="2885" y="-99.8" font-family="Times,serif" font-size="14.00" fill="#000000">RadioComponent</text>
</g>
<!-- RadioComponent&#45;&gt;SurveyBuilderModule -->
<g id="edge14" class="edge">
<title>RadioComponent&#45;&gt;SurveyBuilderModule</title>
<path fill="none" stroke="#000000" d="M2885,-122.0511C2885,-136.373 2885,-154 2885,-154 2885,-154 2707.8409,-154 2707.8409,-154"/>
<polygon fill="#000000" stroke="#000000" points="2707.8409,-150.5001 2697.8409,-154 2707.8409,-157.5001 2707.8409,-150.5001"/>
</g>
<!-- ScreeningQuestionsComponent -->
<g id="node15" class="node">
<title>ScreeningQuestionsComponent</title>
<polygon fill="#ffffb3" stroke="#000000" points="2809.8018,-122 2616.1982,-122 2616.1982,-86 2809.8018,-86 2809.8018,-122"/>
<text text-anchor="middle" x="2713" y="-99.8" font-family="Times,serif" font-size="14.00" fill="#000000">ScreeningQuestionsComponent</text>
</g>
<!-- ScreeningQuestionsComponent&#45;&gt;SurveyBuilderModule -->
<g id="edge15" class="edge">
<title>ScreeningQuestionsComponent&#45;&gt;SurveyBuilderModule</title>
<path fill="none" stroke="#000000" d="M2656.9748,-122.1061C2656.9748,-122.1061 2656.9748,-140.991 2656.9748,-140.991"/>
<polygon fill="#000000" stroke="#000000" points="2653.4748,-140.9909 2656.9748,-150.991 2660.4748,-140.991 2653.4748,-140.9909"/>
</g>
<!-- SliderComponent -->
<g id="node16" class="node">
<title>SliderComponent</title>
<polygon fill="#ffffb3" stroke="#000000" points="2598.2716,-122 2483.7284,-122 2483.7284,-86 2598.2716,-86 2598.2716,-122"/>
<text text-anchor="middle" x="2541" y="-99.8" font-family="Times,serif" font-size="14.00" fill="#000000">SliderComponent</text>
</g>
<!-- SliderComponent&#45;&gt;SurveyBuilderModule -->
<g id="edge16" class="edge">
<title>SliderComponent&#45;&gt;SurveyBuilderModule</title>
<path fill="none" stroke="#000000" d="M2577.3927,-122.1061C2577.3927,-122.1061 2577.3927,-140.991 2577.3927,-140.991"/>
<polygon fill="#000000" stroke="#000000" points="2573.8928,-140.9909 2577.3927,-150.991 2580.8928,-140.991 2573.8928,-140.9909"/>
</g>
<!-- SourceConditionalComponent -->
<g id="node17" class="node">
<title>SourceConditionalComponent</title>
<polygon fill="#ffffb3" stroke="#000000" points="2465.3187,-122 2278.6813,-122 2278.6813,-86 2465.3187,-86 2465.3187,-122"/>
<text text-anchor="middle" x="2372" y="-99.8" font-family="Times,serif" font-size="14.00" fill="#000000">SourceConditionalComponent</text>
</g>
<!-- SourceConditionalComponent&#45;&gt;SurveyBuilderModule -->
<g id="edge17" class="edge">
<title>SourceConditionalComponent&#45;&gt;SurveyBuilderModule</title>
<path fill="none" stroke="#000000" d="M2372,-122.0511C2372,-136.373 2372,-154 2372,-154 2372,-154 2546.3069,-154 2546.3069,-154"/>
<polygon fill="#000000" stroke="#000000" points="2546.307,-157.5001 2556.3069,-154 2546.3069,-150.5001 2546.307,-157.5001"/>
</g>
<!-- SponsorsComponent -->
<g id="node18" class="node">
<title>SponsorsComponent</title>
<polygon fill="#ffffb3" stroke="#000000" points="2261.1652,-122 2128.8348,-122 2128.8348,-86 2261.1652,-86 2261.1652,-122"/>
<text text-anchor="middle" x="2195" y="-99.8" font-family="Times,serif" font-size="14.00" fill="#000000">SponsorsComponent</text>
</g>
<!-- SponsorsComponent&#45;&gt;SurveyBuilderModule -->
<g id="edge18" class="edge">
<title>SponsorsComponent&#45;&gt;SurveyBuilderModule</title>
<path fill="none" stroke="#000000" d="M2195,-122.1871C2195,-137.1824 2195,-156 2195,-156 2195,-156 2546.1477,-156 2546.1477,-156"/>
<polygon fill="#000000" stroke="#000000" points="2546.1478,-159.5001 2556.1477,-156 2546.1477,-152.5001 2546.1478,-159.5001"/>
</g>
<!-- SurveyBuilderComponent -->
<g id="node19" class="node">
<title>SurveyBuilderComponent</title>
<polygon fill="#ffffb3" stroke="#000000" points="2110.4832,-122 1947.5168,-122 1947.5168,-86 2110.4832,-86 2110.4832,-122"/>
<text text-anchor="middle" x="2029" y="-99.8" font-family="Times,serif" font-size="14.00" fill="#000000">SurveyBuilderComponent</text>
</g>
<!-- SurveyBuilderComponent&#45;&gt;SurveyBuilderModule -->
<g id="edge19" class="edge">
<title>SurveyBuilderComponent&#45;&gt;SurveyBuilderModule</title>
<path fill="none" stroke="#000000" d="M2029,-122.0091C2029,-138.0494 2029,-159 2029,-159 2029,-159 2546.3485,-159 2546.3485,-159"/>
<polygon fill="#000000" stroke="#000000" points="2546.3486,-162.5001 2556.3485,-159 2546.3485,-155.5001 2546.3486,-162.5001"/>
</g>
<!-- SwitchComponent -->
<g id="node20" class="node">
<title>SwitchComponent</title>
<polygon fill="#ffffb3" stroke="#000000" points="1929.2176,-122 1808.7824,-122 1808.7824,-86 1929.2176,-86 1929.2176,-122"/>
<text text-anchor="middle" x="1869" y="-99.8" font-family="Times,serif" font-size="14.00" fill="#000000">SwitchComponent</text>
</g>
<!-- SwitchComponent&#45;&gt;SurveyBuilderModule -->
<g id="edge20" class="edge">
<title>SwitchComponent&#45;&gt;SurveyBuilderModule</title>
<path fill="none" stroke="#000000" d="M1869,-122.0352C1869,-138.7344 1869,-161 1869,-161 1869,-161 2546.3699,-161 2546.3699,-161"/>
<polygon fill="#000000" stroke="#000000" points="2546.3699,-164.5001 2556.3699,-161 2546.3698,-157.5001 2546.3699,-164.5001"/>
</g>
<!-- TargetConditionalComponent -->
<g id="node21" class="node">
<title>TargetConditionalComponent</title>
<polygon fill="#ffffb3" stroke="#000000" points="1790.979,-122 1607.021,-122 1607.021,-86 1790.979,-86 1790.979,-122"/>
<text text-anchor="middle" x="1699" y="-99.8" font-family="Times,serif" font-size="14.00" fill="#000000">TargetConditionalComponent</text>
</g>
<!-- TargetConditionalComponent&#45;&gt;SurveyBuilderModule -->
<g id="edge21" class="edge">
<title>TargetConditionalComponent&#45;&gt;SurveyBuilderModule</title>
<path fill="none" stroke="#000000" d="M1699,-122.0225C1699,-139.3734 1699,-163 1699,-163 1699,-163 2546.1053,-163 2546.1053,-163"/>
<polygon fill="#000000" stroke="#000000" points="2546.1054,-166.5001 2556.1053,-163 2546.1053,-159.5001 2546.1054,-166.5001"/>
</g>
<!-- TextAreaComponent -->
<g id="node22" class="node">
<title>TextAreaComponent</title>
<polygon fill="#ffffb3" stroke="#000000" points="1589.1867,-122 1454.8133,-122 1454.8133,-86 1589.1867,-86 1589.1867,-122"/>
<text text-anchor="middle" x="1522" y="-99.8" font-family="Times,serif" font-size="14.00" fill="#000000">TextAreaComponent</text>
</g>
<!-- TextAreaComponent&#45;&gt;SurveyBuilderModule -->
<g id="edge22" class="edge">
<title>TextAreaComponent&#45;&gt;SurveyBuilderModule</title>
<path fill="none" stroke="#000000" d="M1522,-122.2667C1522,-140.5552 1522,-166 1522,-166 1522,-166 2546.1963,-166 2546.1963,-166"/>
<polygon fill="#000000" stroke="#000000" points="2546.1964,-169.5001 2556.1963,-166 2546.1963,-162.5001 2546.1964,-169.5001"/>
</g>
<!-- TextboxComponent -->
<g id="node23" class="node">
<title>TextboxComponent</title>
<polygon fill="#ffffb3" stroke="#000000" points="1436.9902,-122 1309.0098,-122 1309.0098,-86 1436.9902,-86 1436.9902,-122"/>
<text text-anchor="middle" x="1373" y="-99.8" font-family="Times,serif" font-size="14.00" fill="#000000">TextboxComponent</text>
</g>
<!-- TextboxComponent&#45;&gt;SurveyBuilderModule -->
<g id="edge23" class="edge">
<title>TextboxComponent&#45;&gt;SurveyBuilderModule</title>
<path fill="none" stroke="#000000" d="M1373,-122.1686C1373,-141.0898 1373,-168 1373,-168 1373,-168 2545.9866,-168 2545.9866,-168"/>
<polygon fill="#000000" stroke="#000000" points="2545.9866,-171.5001 2555.9866,-168 2545.9865,-164.5001 2545.9866,-171.5001"/>
</g>
<!-- TimeInputComponent -->
<g id="node24" class="node">
<title>TimeInputComponent</title>
<polygon fill="#ffffb3" stroke="#000000" points="1291.4327,-122 1150.5673,-122 1150.5673,-86 1291.4327,-86 1291.4327,-122"/>
<text text-anchor="middle" x="1221" y="-99.8" font-family="Times,serif" font-size="14.00" fill="#000000">TimeInputComponent</text>
</g>
<!-- TimeInputComponent&#45;&gt;SurveyBuilderModule -->
<g id="edge24" class="edge">
<title>TimeInputComponent&#45;&gt;SurveyBuilderModule</title>
<path fill="none" stroke="#000000" d="M1221,-122.308C1221,-142.1455 1221,-171 1221,-171 1221,-171 2546.3127,-171 2546.3127,-171"/>
<polygon fill="#000000" stroke="#000000" points="2546.3127,-174.5001 2556.3127,-171 2546.3127,-167.5001 2546.3127,-174.5001"/>
</g>
<!-- NgxSmoothDnDModule -->
<g id="node26" class="node">
<title>NgxSmoothDnDModule</title>
<polygon fill="#8dd3c7" stroke="#000000" points="1127.434,-122 1124.434,-126 1103.434,-126 1100.434,-122 972.566,-122 972.566,-86 1127.434,-86 1127.434,-122"/>
<text text-anchor="middle" x="1050" y="-99.8" font-family="Times,serif" font-size="14.00" fill="#000000">NgxSmoothDnDModule</text>
</g>
<!-- NgxSmoothDnDModule&#45;&gt;SurveyBuilderModule -->
<g id="edge25" class="edge">
<title>NgxSmoothDnDModule&#45;&gt;SurveyBuilderModule</title>
<path fill="none" stroke="#000000" d="M1050,-122.1289C1050,-142.5724 1050,-173 1050,-173 1050,-173 2546.176,-173 2546.176,-173"/>
<polygon fill="#000000" stroke="#000000" points="2546.176,-176.5001 2556.176,-173 2546.1759,-169.5001 2546.176,-176.5001"/>
</g>
<!-- SharedModule -->
<g id="node27" class="node">
<title>SharedModule</title>
<polygon fill="#8dd3c7" stroke="#000000" points="955.4231,-122 952.4231,-126 931.4231,-126 928.4231,-122 856.5769,-122 856.5769,-86 955.4231,-86 955.4231,-122"/>
<text text-anchor="middle" x="906" y="-99.8" font-family="Times,serif" font-size="14.00" fill="#000000">SharedModule</text>
</g>
<!-- SharedModule&#45;&gt;SurveyBuilderModule -->
<g id="edge26" class="edge">
<title>SharedModule&#45;&gt;SurveyBuilderModule</title>
<path fill="none" stroke="#000000" d="M906,-122.2843C906,-143.3211 906,-175 906,-175 906,-175 2546.3263,-175 2546.3263,-175"/>
<polygon fill="#000000" stroke="#000000" points="2546.3263,-178.5001 2556.3263,-175 2546.3262,-171.5001 2546.3263,-178.5001"/>
</g>
<!-- WidgetModule -->
<g id="node28" class="node">
<title>WidgetModule</title>
<polygon fill="#8dd3c7" stroke="#000000" points="838.2605,-122 835.2605,-126 814.2605,-126 811.2605,-122 737.7395,-122 737.7395,-86 838.2605,-86 838.2605,-122"/>
<text text-anchor="middle" x="788" y="-99.8" font-family="Times,serif" font-size="14.00" fill="#000000">WidgetModule</text>
</g>
<!-- WidgetModule&#45;&gt;SurveyBuilderModule -->
<g id="edge27" class="edge">
<title>WidgetModule&#45;&gt;SurveyBuilderModule</title>
<path fill="none" stroke="#000000" d="M788,-122.2921C788,-144.2057 788,-178 788,-178 788,-178 2546.3163,-178 2546.3163,-178"/>
<polygon fill="#000000" stroke="#000000" points="2546.3163,-181.5001 2556.3163,-178 2546.3163,-174.5001 2546.3163,-181.5001"/>
</g>
<!-- CustomBuilderService -->
<g id="node29" class="node">
<title>CustomBuilderService</title>
<ellipse fill="#fdb462" stroke="#000000" cx="615" cy="-104" rx="99.0129" ry="18"/>
<text text-anchor="middle" x="615" y="-99.8" font-family="Times,serif" font-size="14.00" fill="#000000">CustomBuilderService</text>
</g>
<!-- CustomBuilderService&#45;&gt;SurveyBuilderModule -->
<g id="edge28" class="edge">
<title>CustomBuilderService&#45;&gt;SurveyBuilderModule</title>
<path fill="none" stroke="#000000" d="M615,-122.0109C615,-144.4852 615,-180 615,-180 615,-180 2546.2775,-180 2546.2775,-180"/>
<polygon fill="#000000" stroke="#000000" points="2546.2775,-183.5001 2556.2775,-180 2546.2775,-176.5001 2546.2775,-183.5001"/>
</g>
<!-- SurveyBuilderEndpointService -->
<g id="node30" class="node">
<title>SurveyBuilderEndpointService</title>
<ellipse fill="#fdb462" stroke="#000000" cx="366" cy="-104" rx="131.9449" ry="18"/>
<text text-anchor="middle" x="366" y="-99.8" font-family="Times,serif" font-size="14.00" fill="#000000">SurveyBuilderEndpointService</text>
</g>
<!-- SurveyBuilderEndpointService&#45;&gt;SurveyBuilderModule -->
<g id="edge29" class="edge">
<title>SurveyBuilderEndpointService&#45;&gt;SurveyBuilderModule</title>
<path fill="none" stroke="#000000" d="M366,-122.3228C366,-145.6602 366,-183 366,-183 366,-183 2546.2272,-183 2546.2272,-183"/>
<polygon fill="#000000" stroke="#000000" points="2546.2273,-186.5001 2556.2272,-183 2546.2272,-179.5001 2546.2273,-186.5001"/>
</g>
<!-- SurveyBuilderService -->
<g id="node31" class="node">
<title>SurveyBuilderService</title>
<ellipse fill="#fdb462" stroke="#000000" cx="120" cy="-104" rx="96.1266" ry="18"/>
<text text-anchor="middle" x="120" y="-99.8" font-family="Times,serif" font-size="14.00" fill="#000000">SurveyBuilderService</text>
</g>
<!-- SurveyBuilderService&#45;&gt;SurveyBuilderModule -->
<g id="edge30" class="edge">
<title>SurveyBuilderService&#45;&gt;SurveyBuilderModule</title>
<path fill="none" stroke="#000000" d="M120,-122.3802C120,-146.2785 120,-185 120,-185 120,-185 2546.3406,-185 2546.3406,-185"/>
<polygon fill="#000000" stroke="#000000" points="2546.3406,-188.5001 2556.3406,-185 2546.3405,-181.5001 2546.3406,-188.5001"/>
</g>
</g>
</svg>
