<?xml version="1.0" encoding="UTF-8" standalone="no"?>
<!DOCTYPE svg PUBLIC "-//W3C//DTD SVG 1.1//EN"
 "http://www.w3.org/Graphics/SVG/1.1/DTD/svg11.dtd">
<!-- Generated by graphviz version 2.40.1 (20161225.0304)
 -->
<!-- Title: dependencies Pages: 1 -->
<svg width="6772pt" height="211pt"
 viewBox="0.00 0.00 6772.00 211.00" xmlns="http://www.w3.org/2000/svg" xmlns:xlink="http://www.w3.org/1999/xlink">
<g id="graph0" class="graph" transform="scale(1 1) rotate(0) translate(4 207)">
<title>dependencies</title>
<polygon fill="#ffffff" stroke="transparent" points="-4,4 -4,-207 6768,-207 6768,4 -4,4"/>
<text text-anchor="start" x="3361.0091" y="-42.4" font-family="sans-serif" font-weight="bold" font-size="14.00" fill="#000000">Legend</text>
<polygon fill="#ffffb3" stroke="transparent" points="3148,-10 3148,-30 3168,-30 3168,-10 3148,-10"/>
<text text-anchor="start" x="3171.629" y="-15.4" font-family="sans-serif" font-size="14.00" fill="#000000"> &#160;Declarations</text>
<polygon fill="#8dd3c7" stroke="transparent" points="3261,-10 3261,-30 3281,-30 3281,-10 3261,-10"/>
<text text-anchor="start" x="3284.7251" y="-15.4" font-family="sans-serif" font-size="14.00" fill="#000000"> &#160;Module</text>
<polygon fill="#80b1d3" stroke="transparent" points="3347,-10 3347,-30 3367,-30 3367,-10 3347,-10"/>
<text text-anchor="start" x="3370.7812" y="-15.4" font-family="sans-serif" font-size="14.00" fill="#000000"> &#160;Bootstrap</text>
<polygon fill="#fdb462" stroke="transparent" points="3444,-10 3444,-30 3464,-30 3464,-10 3444,-10"/>
<text text-anchor="start" x="3467.6732" y="-15.4" font-family="sans-serif" font-size="14.00" fill="#000000"> &#160;Providers</text>
<polygon fill="#fb8072" stroke="transparent" points="3540,-10 3540,-30 3560,-30 3560,-10 3540,-10"/>
<text text-anchor="start" x="3563.7258" y="-15.4" font-family="sans-serif" font-size="14.00" fill="#000000"> &#160;Exports</text>
<g id="clust1" class="cluster">
<title>cluster_SurveyBuilderModule</title>
<polygon fill="none" stroke="#000000" stroke-dasharray="1,5" points="8,-70 8,-195 6756,-195 6756,-70 8,-70"/>
</g>
<g id="clust2" class="cluster">
<title>cluster_SurveyBuilderModule_declarations</title>
<polygon fill="none" stroke="#000000" points="1143,-78 1143,-130 6748,-130 6748,-78 1143,-78"/>
</g>
<g id="clust34" class="cluster">
<title>cluster_SurveyBuilderModule_imports</title>
<polygon fill="none" stroke="#000000" points="730,-78 730,-130 1135,-130 1135,-78 730,-78"/>
</g>
<g id="clust37" class="cluster">
<title>cluster_SurveyBuilderModule_providers</title>
<polygon fill="none" stroke="#000000" points="16,-78 16,-130 722,-130 722,-78 16,-78"/>
</g>
<!-- CheckboxComponent -->
<g id="node1" class="node">
<title>CheckboxComponent</title>
<polygon fill="#ffffb3" stroke="#000000" points="6740.0982,-122 6601.9018,-122 6601.9018,-86 6740.0982,-86 6740.0982,-122"/>
<text text-anchor="middle" x="6671" y="-99.8" font-family="Times,serif" font-size="14.00" fill="#000000">CheckboxComponent</text>
</g>
<!-- SurveyBuilderModule -->
<g id="node32" class="node">
<title>SurveyBuilderModule</title>
<polygon fill="#8dd3c7" stroke="#000000" points="3331.7007,-187 3328.7007,-191 3307.7007,-191 3304.7007,-187 3190.2993,-187 3190.2993,-151 3331.7007,-151 3331.7007,-187"/>
<text text-anchor="middle" x="3261" y="-164.8" font-family="Times,serif" font-size="14.00" fill="#000000">SurveyBuilderModule</text>
</g>
<!-- CheckboxComponent&#45;&gt;SurveyBuilderModule -->
<g id="edge1" class="edge">
<title>CheckboxComponent&#45;&gt;SurveyBuilderModule</title>
<path fill="none" stroke="#000000" d="M6671,-122.3802C6671,-146.2785 6671,-185 6671,-185 6671,-185 3341.8308,-185 3341.8308,-185"/>
<polygon fill="#000000" stroke="#000000" points="3341.8309,-181.5001 3331.8308,-185 3341.8308,-188.5001 3341.8309,-181.5001"/>
</g>
<!-- CustomBuilderContainerDirective -->
<g id="node2" class="node">
<title>CustomBuilderContainerDirective</title>
<polygon fill="#ffffb3" stroke="#000000" points="6584.3459,-122 6375.6541,-122 6375.6541,-86 6584.3459,-86 6584.3459,-122"/>
<text text-anchor="middle" x="6480" y="-99.8" font-family="Times,serif" font-size="14.00" fill="#000000">CustomBuilderContainerDirective</text>
</g>
<!-- CustomBuilderContainerDirective&#45;&gt;SurveyBuilderModule -->
<g id="edge2" class="edge">
<title>CustomBuilderContainerDirective&#45;&gt;SurveyBuilderModule</title>
<path fill="none" stroke="#000000" d="M6480,-122.3228C6480,-145.6602 6480,-183 6480,-183 6480,-183 3341.6055,-183 3341.6055,-183"/>
<polygon fill="#000000" stroke="#000000" points="3341.6056,-179.5001 3331.6055,-183 3341.6055,-186.5001 3341.6056,-179.5001"/>
</g>
<!-- DateInputComponent -->
<g id="node3" class="node">
<title>DateInputComponent</title>
<polygon fill="#ffffb3" stroke="#000000" points="6357.8104,-122 6220.1896,-122 6220.1896,-86 6357.8104,-86 6357.8104,-122"/>
<text text-anchor="middle" x="6289" y="-99.8" font-family="Times,serif" font-size="14.00" fill="#000000">DateInputComponent</text>
</g>
<!-- DateInputComponent&#45;&gt;SurveyBuilderModule -->
<g id="edge3" class="edge">
<title>DateInputComponent&#45;&gt;SurveyBuilderModule</title>
<path fill="none" stroke="#000000" d="M6289,-122.0908C6289,-145.1328 6289,-182 6289,-182 6289,-182 3341.7579,-182 3341.7579,-182"/>
<polygon fill="#000000" stroke="#000000" points="3341.7579,-178.5001 3331.7579,-182 3341.7578,-185.5001 3341.7579,-178.5001"/>
</g>
<!-- DropdownListComponent -->
<g id="node4" class="node">
<title>DropdownListComponent</title>
<polygon fill="#ffffb3" stroke="#000000" points="6202.4846,-122 6039.5154,-122 6039.5154,-86 6202.4846,-86 6202.4846,-122"/>
<text text-anchor="middle" x="6121" y="-99.8" font-family="Times,serif" font-size="14.00" fill="#000000">DropdownListComponent</text>
</g>
<!-- DropdownListComponent&#45;&gt;SurveyBuilderModule -->
<g id="edge4" class="edge">
<title>DropdownListComponent&#45;&gt;SurveyBuilderModule</title>
<path fill="none" stroke="#000000" d="M6121,-122.1554C6121,-144.3519 6121,-179 6121,-179 6121,-179 3341.697,-179 3341.697,-179"/>
<polygon fill="#000000" stroke="#000000" points="3341.6971,-175.5001 3331.697,-179 3341.697,-182.5001 3341.6971,-175.5001"/>
</g>
<!-- Footer1Component -->
<g id="node5" class="node">
<title>Footer1Component</title>
<polygon fill="#ffffb3" stroke="#000000" points="6021.3809,-122 5896.6191,-122 5896.6191,-86 6021.3809,-86 6021.3809,-122"/>
<text text-anchor="middle" x="5959" y="-99.8" font-family="Times,serif" font-size="14.00" fill="#000000">Footer1Component</text>
</g>
<!-- Footer1Component&#45;&gt;SurveyBuilderModule -->
<g id="edge5" class="edge">
<title>Footer1Component&#45;&gt;SurveyBuilderModule</title>
<path fill="none" stroke="#000000" d="M5959,-122.0449C5959,-143.6623 5959,-177 5959,-177 5959,-177 3341.7782,-177 3341.7782,-177"/>
<polygon fill="#000000" stroke="#000000" points="3341.7782,-173.5001 3331.7782,-177 3341.7781,-180.5001 3341.7782,-173.5001"/>
</g>
<!-- Header1Component -->
<g id="node6" class="node">
<title>Header1Component</title>
<polygon fill="#ffffb3" stroke="#000000" points="5878.2437,-122 5749.7563,-122 5749.7563,-86 5878.2437,-86 5878.2437,-122"/>
<text text-anchor="middle" x="5814" y="-99.8" font-family="Times,serif" font-size="14.00" fill="#000000">Header1Component</text>
</g>
<!-- Header1Component&#45;&gt;SurveyBuilderModule -->
<g id="edge6" class="edge">
<title>Header1Component&#45;&gt;SurveyBuilderModule</title>
<path fill="none" stroke="#000000" d="M5814,-122.2843C5814,-143.3211 5814,-175 5814,-175 5814,-175 3341.6114,-175 3341.6114,-175"/>
<polygon fill="#000000" stroke="#000000" points="3341.6114,-171.5001 3331.6114,-175 3341.6113,-178.5001 3341.6114,-171.5001"/>
</g>
<!-- Header2Component -->
<g id="node7" class="node">
<title>Header2Component</title>
<polygon fill="#ffffb3" stroke="#000000" points="5731.2437,-122 5602.7563,-122 5602.7563,-86 5731.2437,-86 5731.2437,-122"/>
<text text-anchor="middle" x="5667" y="-99.8" font-family="Times,serif" font-size="14.00" fill="#000000">Header2Component</text>
</g>
<!-- Header2Component&#45;&gt;SurveyBuilderModule -->
<g id="edge7" class="edge">
<title>Header2Component&#45;&gt;SurveyBuilderModule</title>
<path fill="none" stroke="#000000" d="M5667,-122.1289C5667,-142.5724 5667,-173 5667,-173 5667,-173 3341.704,-173 3341.704,-173"/>
<polygon fill="#000000" stroke="#000000" points="3341.704,-169.5001 3331.704,-173 3341.704,-176.5001 3341.704,-169.5001"/>
</g>
<!-- LocationFieldComponent -->
<g id="node8" class="node">
<title>LocationFieldComponent</title>
<polygon fill="#ffffb3" stroke="#000000" points="5584.8738,-122 5425.1262,-122 5425.1262,-86 5584.8738,-86 5584.8738,-122"/>
<text text-anchor="middle" x="5505" y="-99.8" font-family="Times,serif" font-size="14.00" fill="#000000">LocationFieldComponent</text>
</g>
<!-- LocationFieldComponent&#45;&gt;SurveyBuilderModule -->
<g id="edge8" class="edge">
<title>LocationFieldComponent&#45;&gt;SurveyBuilderModule</title>
<path fill="none" stroke="#000000" d="M5505,-122.308C5505,-142.1455 5505,-171 5505,-171 5505,-171 3341.8647,-171 3341.8647,-171"/>
<polygon fill="#000000" stroke="#000000" points="3341.8647,-167.5001 3331.8647,-171 3341.8647,-174.5001 3341.8647,-167.5001"/>
</g>
<!-- MainSurveyAccess1Component -->
<g id="node9" class="node">
<title>MainSurveyAccess1Component</title>
<polygon fill="#ffffb3" stroke="#000000" points="5406.6797,-122 5209.3203,-122 5209.3203,-86 5406.6797,-86 5406.6797,-122"/>
<text text-anchor="middle" x="5308" y="-99.8" font-family="Times,serif" font-size="14.00" fill="#000000">MainSurveyAccess1Component</text>
</g>
<!-- MainSurveyAccess1Component&#45;&gt;SurveyBuilderModule -->
<g id="edge9" class="edge">
<title>MainSurveyAccess1Component&#45;&gt;SurveyBuilderModule</title>
<path fill="none" stroke="#000000" d="M5308,-122.1061C5308,-141.3391 5308,-169 5308,-169 5308,-169 3341.7593,-169 3341.7593,-169"/>
<polygon fill="#000000" stroke="#000000" points="3341.7594,-165.5001 3331.7593,-169 3341.7593,-172.5001 3341.7594,-165.5001"/>
</g>
<!-- MultiSelectComponent -->
<g id="node10" class="node">
<title>MultiSelectComponent</title>
<polygon fill="#ffffb3" stroke="#000000" points="5191.1568,-122 5044.8432,-122 5044.8432,-86 5191.1568,-86 5191.1568,-122"/>
<text text-anchor="middle" x="5118" y="-99.8" font-family="Times,serif" font-size="14.00" fill="#000000">MultiSelectComponent</text>
</g>
<!-- MultiSelectComponent&#45;&gt;SurveyBuilderModule -->
<g id="edge10" class="edge">
<title>MultiSelectComponent&#45;&gt;SurveyBuilderModule</title>
<path fill="none" stroke="#000000" d="M5118,-122.2222C5118,-140.8285 5118,-167 5118,-167 5118,-167 3341.8107,-167 3341.8107,-167"/>
<polygon fill="#000000" stroke="#000000" points="3341.8107,-163.5001 3331.8107,-167 3341.8106,-170.5001 3341.8107,-163.5001"/>
</g>
<!-- NestedDragAndDropListComponent -->
<g id="node11" class="node">
<title>NestedDragAndDropListComponent</title>
<polygon fill="#ffffb3" stroke="#000000" points="5026.3375,-122 4803.6625,-122 4803.6625,-86 5026.3375,-86 5026.3375,-122"/>
<text text-anchor="middle" x="4915" y="-99.8" font-family="Times,serif" font-size="14.00" fill="#000000">NestedDragAndDropListComponent</text>
</g>
<!-- NestedDragAndDropListComponent&#45;&gt;SurveyBuilderModule -->
<g id="edge11" class="edge">
<title>NestedDragAndDropListComponent&#45;&gt;SurveyBuilderModule</title>
<path fill="none" stroke="#000000" d="M4915,-122.302C4915,-140.2699 4915,-165 4915,-165 4915,-165 3341.8055,-165 3341.8055,-165"/>
<polygon fill="#000000" stroke="#000000" points="3341.8056,-161.5001 3331.8055,-165 3341.8055,-168.5001 3341.8056,-161.5001"/>
</g>
<!-- NumericTextboxComponent -->
<g id="node12" class="node">
<title>NumericTextboxComponent</title>
<polygon fill="#ffffb3" stroke="#000000" points="4785.4678,-122 4608.5322,-122 4608.5322,-86 4785.4678,-86 4785.4678,-122"/>
<text text-anchor="middle" x="4697" y="-99.8" font-family="Times,serif" font-size="14.00" fill="#000000">NumericTextboxComponent</text>
</g>
<!-- NumericTextboxComponent&#45;&gt;SurveyBuilderModule -->
<g id="edge12" class="edge">
<title>NumericTextboxComponent&#45;&gt;SurveyBuilderModule</title>
<path fill="none" stroke="#000000" d="M4697,-122.0225C4697,-139.3734 4697,-163 4697,-163 4697,-163 3341.7217,-163 3341.7217,-163"/>
<polygon fill="#000000" stroke="#000000" points="3341.7217,-159.5001 3331.7217,-163 3341.7216,-166.5001 3341.7217,-159.5001"/>
</g>
<!-- PrivacyConfirmationComponent -->
<g id="node13" class="node">
<title>PrivacyConfirmationComponent</title>
<polygon fill="#ffffb3" stroke="#000000" points="4590.5308,-122 4391.4692,-122 4391.4692,-86 4590.5308,-86 4590.5308,-122"/>
<text text-anchor="middle" x="4491" y="-99.8" font-family="Times,serif" font-size="14.00" fill="#000000">PrivacyConfirmationComponent</text>
</g>
<!-- PrivacyConfirmationComponent&#45;&gt;SurveyBuilderModule -->
<g id="edge13" class="edge">
<title>PrivacyConfirmationComponent&#45;&gt;SurveyBuilderModule</title>
<path fill="none" stroke="#000000" d="M4491,-122.0352C4491,-138.7344 4491,-161 4491,-161 4491,-161 3341.9966,-161 3341.9966,-161"/>
<polygon fill="#000000" stroke="#000000" points="3341.9966,-157.5001 3331.9966,-161 3341.9966,-164.5001 3341.9966,-157.5001"/>
</g>
<!-- QuestionConditionalsComponent -->
<g id="node14" class="node">
<title>QuestionConditionalsComponent</title>
<polygon fill="#ffffb3" stroke="#000000" points="4373.9381,-122 4170.0619,-122 4170.0619,-86 4373.9381,-86 4373.9381,-122"/>
<text text-anchor="middle" x="4272" y="-99.8" font-family="Times,serif" font-size="14.00" fill="#000000">QuestionConditionalsComponent</text>
</g>
<!-- QuestionConditionalsComponent&#45;&gt;SurveyBuilderModule -->
<g id="edge14" class="edge">
<title>QuestionConditionalsComponent&#45;&gt;SurveyBuilderModule</title>
<path fill="none" stroke="#000000" d="M4272,-122.0091C4272,-138.0494 4272,-159 4272,-159 4272,-159 3341.6897,-159 3341.6897,-159"/>
<polygon fill="#000000" stroke="#000000" points="3341.6898,-155.5001 3331.6897,-159 3341.6897,-162.5001 3341.6898,-155.5001"/>
</g>
<!-- QuestionConfigurationComponent -->
<g id="node15" class="node">
<title>QuestionConfigurationComponent</title>
<polygon fill="#ffffb3" stroke="#000000" points="4152.424,-122 3941.576,-122 3941.576,-86 4152.424,-86 4152.424,-122"/>
<text text-anchor="middle" x="4047" y="-99.8" font-family="Times,serif" font-size="14.00" fill="#000000">QuestionConfigurationComponent</text>
</g>
<!-- QuestionConfigurationComponent&#45;&gt;SurveyBuilderModule -->
<g id="edge15" class="edge">
<title>QuestionConfigurationComponent&#45;&gt;SurveyBuilderModule</title>
<path fill="none" stroke="#000000" d="M4047,-122.2396C4047,-137.5706 4047,-157 4047,-157 4047,-157 3341.7909,-157 3341.7909,-157"/>
<polygon fill="#000000" stroke="#000000" points="3341.7909,-153.5001 3331.7909,-157 3341.7909,-160.5001 3341.7909,-153.5001"/>
</g>
<!-- QuestionDetailsComponent -->
<g id="node16" class="node">
<title>QuestionDetailsComponent</title>
<polygon fill="#ffffb3" stroke="#000000" points="3923.5322,-122 3752.4678,-122 3752.4678,-86 3923.5322,-86 3923.5322,-122"/>
<text text-anchor="middle" x="3838" y="-99.8" font-family="Times,serif" font-size="14.00" fill="#000000">QuestionDetailsComponent</text>
</g>
<!-- QuestionDetailsComponent&#45;&gt;SurveyBuilderModule -->
<g id="edge16" class="edge">
<title>QuestionDetailsComponent&#45;&gt;SurveyBuilderModule</title>
<path fill="none" stroke="#000000" d="M3838,-122.1243C3838,-136.7832 3838,-155 3838,-155 3838,-155 3341.7515,-155 3341.7515,-155"/>
<polygon fill="#000000" stroke="#000000" points="3341.7516,-151.5001 3331.7515,-155 3341.7515,-158.5001 3341.7516,-151.5001"/>
</g>
<!-- QuestionTypeChooserComponent -->
<g id="node17" class="node">
<title>QuestionTypeChooserComponent</title>
<polygon fill="#ffffb3" stroke="#000000" points="3734.8032,-122 3527.1968,-122 3527.1968,-86 3734.8032,-86 3734.8032,-122"/>
<text text-anchor="middle" x="3631" y="-99.8" font-family="Times,serif" font-size="14.00" fill="#000000">QuestionTypeChooserComponent</text>
</g>
<!-- QuestionTypeChooserComponent&#45;&gt;SurveyBuilderModule -->
<g id="edge17" class="edge">
<title>QuestionTypeChooserComponent&#45;&gt;SurveyBuilderModule</title>
<path fill="none" stroke="#000000" d="M3631,-122.2458C3631,-136.1772 3631,-153 3631,-153 3631,-153 3341.9019,-153 3341.9019,-153"/>
<polygon fill="#000000" stroke="#000000" points="3341.902,-149.5001 3331.9019,-153 3341.9019,-156.5001 3341.902,-149.5001"/>
</g>
<!-- QuestionViewerComponent -->
<g id="node18" class="node">
<title>QuestionViewerComponent</title>
<polygon fill="#ffffb3" stroke="#000000" points="3509.573,-122 3336.427,-122 3336.427,-86 3509.573,-86 3509.573,-122"/>
<text text-anchor="middle" x="3423" y="-99.8" font-family="Times,serif" font-size="14.00" fill="#000000">QuestionViewerComponent</text>
</g>
<!-- QuestionViewerComponent&#45;&gt;SurveyBuilderModule -->
<g id="edge18" class="edge">
<title>QuestionViewerComponent&#45;&gt;SurveyBuilderModule</title>
<path fill="none" stroke="#000000" d="M3336.2363,-104C3329.3545,-104 3324.9937,-104 3324.9937,-104 3324.9937,-104 3324.9937,-140.8939 3324.9937,-140.8939"/>
<polygon fill="#000000" stroke="#000000" points="3321.4938,-140.8938 3324.9937,-150.8939 3328.4938,-140.8939 3321.4938,-140.8938"/>
</g>
<!-- RadioComponent -->
<g id="node19" class="node">
<title>RadioComponent</title>
<polygon fill="#ffffb3" stroke="#000000" points="3318.2744,-122 3203.7256,-122 3203.7256,-86 3318.2744,-86 3318.2744,-122"/>
<text text-anchor="middle" x="3261" y="-99.8" font-family="Times,serif" font-size="14.00" fill="#000000">RadioComponent</text>
</g>
<!-- RadioComponent&#45;&gt;SurveyBuilderModule -->
<g id="edge19" class="edge">
<title>RadioComponent&#45;&gt;SurveyBuilderModule</title>
<path fill="none" stroke="#000000" d="M3261,-122.1061C3261,-122.1061 3261,-140.991 3261,-140.991"/>
<polygon fill="#000000" stroke="#000000" points="3257.5001,-140.9909 3261,-150.991 3264.5001,-140.991 3257.5001,-140.9909"/>
</g>
<!-- ScreeningQuestionsComponent -->
<g id="node20" class="node">
<title>ScreeningQuestionsComponent</title>
<polygon fill="#ffffb3" stroke="#000000" points="3185.8018,-122 2992.1982,-122 2992.1982,-86 3185.8018,-86 3185.8018,-122"/>
<text text-anchor="middle" x="3089" y="-99.8" font-family="Times,serif" font-size="14.00" fill="#000000">ScreeningQuestionsComponent</text>
</g>
<!-- ScreeningQuestionsComponent&#45;&gt;SurveyBuilderModule -->
<g id="edge20" class="edge">
<title>ScreeningQuestionsComponent&#45;&gt;SurveyBuilderModule</title>
<path fill="none" stroke="#000000" d="M3185.8545,-104C3192.7197,-104 3197.0063,-104 3197.0063,-104 3197.0063,-104 3197.0063,-140.8939 3197.0063,-140.8939"/>
<polygon fill="#000000" stroke="#000000" points="3193.5064,-140.8938 3197.0063,-150.8939 3200.5064,-140.8939 3193.5064,-140.8938"/>
</g>
<!-- SliderComponent -->
<g id="node21" class="node">
<title>SliderComponent</title>
<polygon fill="#ffffb3" stroke="#000000" points="2974.2716,-122 2859.7284,-122 2859.7284,-86 2974.2716,-86 2974.2716,-122"/>
<text text-anchor="middle" x="2917" y="-99.8" font-family="Times,serif" font-size="14.00" fill="#000000">SliderComponent</text>
</g>
<!-- SliderComponent&#45;&gt;SurveyBuilderModule -->
<g id="edge21" class="edge">
<title>SliderComponent&#45;&gt;SurveyBuilderModule</title>
<path fill="none" stroke="#000000" d="M2917,-122.2458C2917,-136.1772 2917,-153 2917,-153 2917,-153 3180.1401,-153 3180.1401,-153"/>
<polygon fill="#000000" stroke="#000000" points="3180.1401,-156.5001 3190.1401,-153 3180.14,-149.5001 3180.1401,-156.5001"/>
</g>
<!-- SourceConditionalComponent -->
<g id="node22" class="node">
<title>SourceConditionalComponent</title>
<polygon fill="#ffffb3" stroke="#000000" points="2841.3187,-122 2654.6813,-122 2654.6813,-86 2841.3187,-86 2841.3187,-122"/>
<text text-anchor="middle" x="2748" y="-99.8" font-family="Times,serif" font-size="14.00" fill="#000000">SourceConditionalComponent</text>
</g>
<!-- SourceConditionalComponent&#45;&gt;SurveyBuilderModule -->
<g id="edge22" class="edge">
<title>SourceConditionalComponent&#45;&gt;SurveyBuilderModule</title>
<path fill="none" stroke="#000000" d="M2748,-122.1243C2748,-136.7832 2748,-155 2748,-155 2748,-155 3180.2081,-155 3180.2081,-155"/>
<polygon fill="#000000" stroke="#000000" points="3180.2082,-158.5001 3190.2081,-155 3180.2081,-151.5001 3180.2082,-158.5001"/>
</g>
<!-- SpecialPageBuilderComponent -->
<g id="node23" class="node">
<title>SpecialPageBuilderComponent</title>
<polygon fill="#ffffb3" stroke="#000000" points="2636.745,-122 2445.255,-122 2445.255,-86 2636.745,-86 2636.745,-122"/>
<text text-anchor="middle" x="2541" y="-99.8" font-family="Times,serif" font-size="14.00" fill="#000000">SpecialPageBuilderComponent</text>
</g>
<!-- SpecialPageBuilderComponent&#45;&gt;SurveyBuilderModule -->
<g id="edge23" class="edge">
<title>SpecialPageBuilderComponent&#45;&gt;SurveyBuilderModule</title>
<path fill="none" stroke="#000000" d="M2541,-122.2396C2541,-137.5706 2541,-157 2541,-157 2541,-157 3180.3231,-157 3180.3231,-157"/>
<polygon fill="#000000" stroke="#000000" points="3180.3231,-160.5001 3190.3231,-157 3180.3231,-153.5001 3180.3231,-160.5001"/>
</g>
<!-- SponsorsComponent -->
<g id="node24" class="node">
<title>SponsorsComponent</title>
<polygon fill="#ffffb3" stroke="#000000" points="2427.1652,-122 2294.8348,-122 2294.8348,-86 2427.1652,-86 2427.1652,-122"/>
<text text-anchor="middle" x="2361" y="-99.8" font-family="Times,serif" font-size="14.00" fill="#000000">SponsorsComponent</text>
</g>
<!-- SponsorsComponent&#45;&gt;SurveyBuilderModule -->
<g id="edge24" class="edge">
<title>SponsorsComponent&#45;&gt;SurveyBuilderModule</title>
<path fill="none" stroke="#000000" d="M2361,-122.0091C2361,-138.0494 2361,-159 2361,-159 2361,-159 3180.3785,-159 3180.3785,-159"/>
<polygon fill="#000000" stroke="#000000" points="3180.3785,-162.5001 3190.3785,-159 3180.3785,-155.5001 3180.3785,-162.5001"/>
</g>
<!-- SurveyBuilderComponent -->
<g id="node25" class="node">
<title>SurveyBuilderComponent</title>
<polygon fill="#ffffb3" stroke="#000000" points="2276.4832,-122 2113.5168,-122 2113.5168,-86 2276.4832,-86 2276.4832,-122"/>
<text text-anchor="middle" x="2195" y="-99.8" font-family="Times,serif" font-size="14.00" fill="#000000">SurveyBuilderComponent</text>
</g>
<!-- SurveyBuilderComponent&#45;&gt;SurveyBuilderModule -->
<g id="edge25" class="edge">
<title>SurveyBuilderComponent&#45;&gt;SurveyBuilderModule</title>
<path fill="none" stroke="#000000" d="M2195,-122.0352C2195,-138.7344 2195,-161 2195,-161 2195,-161 3180.2312,-161 3180.2312,-161"/>
<polygon fill="#000000" stroke="#000000" points="3180.2312,-164.5001 3190.2312,-161 3180.2312,-157.5001 3180.2312,-164.5001"/>
</g>
<!-- SwitchComponent -->
<g id="node26" class="node">
<title>SwitchComponent</title>
<polygon fill="#ffffb3" stroke="#000000" points="2095.2176,-122 1974.7824,-122 1974.7824,-86 2095.2176,-86 2095.2176,-122"/>
<text text-anchor="middle" x="2035" y="-99.8" font-family="Times,serif" font-size="14.00" fill="#000000">SwitchComponent</text>
</g>
<!-- SwitchComponent&#45;&gt;SurveyBuilderModule -->
<g id="edge26" class="edge">
<title>SwitchComponent&#45;&gt;SurveyBuilderModule</title>
<path fill="none" stroke="#000000" d="M2035,-122.0225C2035,-139.3734 2035,-163 2035,-163 2035,-163 3180.2343,-163 3180.2343,-163"/>
<polygon fill="#000000" stroke="#000000" points="3180.2343,-166.5001 3190.2343,-163 3180.2343,-159.5001 3180.2343,-166.5001"/>
</g>
<!-- TargetConditionalComponent -->
<g id="node27" class="node">
<title>TargetConditionalComponent</title>
<polygon fill="#ffffb3" stroke="#000000" points="1956.979,-122 1773.021,-122 1773.021,-86 1956.979,-86 1956.979,-122"/>
<text text-anchor="middle" x="1865" y="-99.8" font-family="Times,serif" font-size="14.00" fill="#000000">TargetConditionalComponent</text>
</g>
<!-- TargetConditionalComponent&#45;&gt;SurveyBuilderModule -->
<g id="edge27" class="edge">
<title>TargetConditionalComponent&#45;&gt;SurveyBuilderModule</title>
<path fill="none" stroke="#000000" d="M1865,-122.302C1865,-140.2699 1865,-165 1865,-165 1865,-165 3180.3349,-165 3180.3349,-165"/>
<polygon fill="#000000" stroke="#000000" points="3180.3349,-168.5001 3190.3349,-165 3180.3349,-161.5001 3180.3349,-168.5001"/>
</g>
<!-- TextAreaComponent -->
<g id="node28" class="node">
<title>TextAreaComponent</title>
<polygon fill="#ffffb3" stroke="#000000" points="1755.1867,-122 1620.8133,-122 1620.8133,-86 1755.1867,-86 1755.1867,-122"/>
<text text-anchor="middle" x="1688" y="-99.8" font-family="Times,serif" font-size="14.00" fill="#000000">TextAreaComponent</text>
</g>
<!-- TextAreaComponent&#45;&gt;SurveyBuilderModule -->
<g id="edge28" class="edge">
<title>TextAreaComponent&#45;&gt;SurveyBuilderModule</title>
<path fill="none" stroke="#000000" d="M1688,-122.2222C1688,-140.8285 1688,-167 1688,-167 1688,-167 3180.3556,-167 3180.3556,-167"/>
<polygon fill="#000000" stroke="#000000" points="3180.3556,-170.5001 3190.3556,-167 3180.3556,-163.5001 3180.3556,-170.5001"/>
</g>
<!-- TextBlock1Component -->
<g id="node29" class="node">
<title>TextBlock1Component</title>
<polygon fill="#ffffb3" stroke="#000000" points="1602.9326,-122 1455.0674,-122 1455.0674,-86 1602.9326,-86 1602.9326,-122"/>
<text text-anchor="middle" x="1529" y="-99.8" font-family="Times,serif" font-size="14.00" fill="#000000">TextBlock1Component</text>
</g>
<!-- TextBlock1Component&#45;&gt;SurveyBuilderModule -->
<g id="edge29" class="edge">
<title>TextBlock1Component&#45;&gt;SurveyBuilderModule</title>
<path fill="none" stroke="#000000" d="M1529,-122.1061C1529,-141.3391 1529,-169 1529,-169 1529,-169 3180.1462,-169 3180.1462,-169"/>
<polygon fill="#000000" stroke="#000000" points="3180.1462,-172.5001 3190.1462,-169 3180.1462,-165.5001 3180.1462,-172.5001"/>
</g>
<!-- TextboxComponent -->
<g id="node30" class="node">
<title>TextboxComponent</title>
<polygon fill="#ffffb3" stroke="#000000" points="1436.9902,-122 1309.0098,-122 1309.0098,-86 1436.9902,-86 1436.9902,-122"/>
<text text-anchor="middle" x="1373" y="-99.8" font-family="Times,serif" font-size="14.00" fill="#000000">TextboxComponent</text>
</g>
<!-- TextboxComponent&#45;&gt;SurveyBuilderModule -->
<g id="edge30" class="edge">
<title>TextboxComponent&#45;&gt;SurveyBuilderModule</title>
<path fill="none" stroke="#000000" d="M1373,-122.308C1373,-142.1455 1373,-171 1373,-171 1373,-171 3180.1496,-171 3180.1496,-171"/>
<polygon fill="#000000" stroke="#000000" points="3180.1497,-174.5001 3190.1496,-171 3180.1496,-167.5001 3180.1497,-174.5001"/>
</g>
<!-- TimeInputComponent -->
<g id="node31" class="node">
<title>TimeInputComponent</title>
<polygon fill="#ffffb3" stroke="#000000" points="1291.4327,-122 1150.5673,-122 1150.5673,-86 1291.4327,-86 1291.4327,-122"/>
<text text-anchor="middle" x="1221" y="-99.8" font-family="Times,serif" font-size="14.00" fill="#000000">TimeInputComponent</text>
</g>
<!-- TimeInputComponent&#45;&gt;SurveyBuilderModule -->
<g id="edge31" class="edge">
<title>TimeInputComponent&#45;&gt;SurveyBuilderModule</title>
<path fill="none" stroke="#000000" d="M1221,-122.1289C1221,-142.5724 1221,-173 1221,-173 1221,-173 3180.1862,-173 3180.1862,-173"/>
<polygon fill="#000000" stroke="#000000" points="3180.1862,-176.5001 3190.1862,-173 3180.1861,-169.5001 3180.1862,-176.5001"/>
</g>
<!-- NgxSmoothDnDModule -->
<g id="node33" class="node">
<title>NgxSmoothDnDModule</title>
<polygon fill="#8dd3c7" stroke="#000000" points="1127.434,-122 1124.434,-126 1103.434,-126 1100.434,-122 972.566,-122 972.566,-86 1127.434,-86 1127.434,-122"/>
<text text-anchor="middle" x="1050" y="-99.8" font-family="Times,serif" font-size="14.00" fill="#000000">NgxSmoothDnDModule</text>
</g>
<!-- NgxSmoothDnDModule&#45;&gt;SurveyBuilderModule -->
<g id="edge32" class="edge">
<title>NgxSmoothDnDModule&#45;&gt;SurveyBuilderModule</title>
<path fill="none" stroke="#000000" d="M1050,-122.2843C1050,-143.3211 1050,-175 1050,-175 1050,-175 3180.2505,-175 3180.2505,-175"/>
<polygon fill="#000000" stroke="#000000" points="3180.2505,-178.5001 3190.2505,-175 3180.2504,-171.5001 3180.2505,-178.5001"/>
</g>
<!-- SharedModule -->
<g id="node34" class="node">
<title>SharedModule</title>
<polygon fill="#8dd3c7" stroke="#000000" points="955.4231,-122 952.4231,-126 931.4231,-126 928.4231,-122 856.5769,-122 856.5769,-86 955.4231,-86 955.4231,-122"/>
<text text-anchor="middle" x="906" y="-99.8" font-family="Times,serif" font-size="14.00" fill="#000000">SharedModule</text>
</g>
<!-- SharedModule&#45;&gt;SurveyBuilderModule -->
<g id="edge33" class="edge">
<title>SharedModule&#45;&gt;SurveyBuilderModule</title>
<path fill="none" stroke="#000000" d="M906,-122.0449C906,-143.6623 906,-177 906,-177 906,-177 3180.1991,-177 3180.1991,-177"/>
<polygon fill="#000000" stroke="#000000" points="3180.1991,-180.5001 3190.1991,-177 3180.199,-173.5001 3180.1991,-180.5001"/>
</g>
<!-- WidgetModule -->
<g id="node35" class="node">
<title>WidgetModule</title>
<polygon fill="#8dd3c7" stroke="#000000" points="838.2605,-122 835.2605,-126 814.2605,-126 811.2605,-122 737.7395,-122 737.7395,-86 838.2605,-86 838.2605,-122"/>
<text text-anchor="middle" x="788" y="-99.8" font-family="Times,serif" font-size="14.00" fill="#000000">WidgetModule</text>
</g>
<!-- WidgetModule&#45;&gt;SurveyBuilderModule -->
<g id="edge34" class="edge">
<title>WidgetModule&#45;&gt;SurveyBuilderModule</title>
<path fill="none" stroke="#000000" d="M788,-122.1554C788,-144.3519 788,-179 788,-179 788,-179 3180.3146,-179 3180.3146,-179"/>
<polygon fill="#000000" stroke="#000000" points="3180.3147,-182.5001 3190.3146,-179 3180.3146,-175.5001 3180.3147,-182.5001"/>
</g>
<!-- CustomBuilderService -->
<g id="node36" class="node">
<title>CustomBuilderService</title>
<ellipse fill="#fdb462" stroke="#000000" cx="615" cy="-104" rx="99.0129" ry="18"/>
<text text-anchor="middle" x="615" y="-99.8" font-family="Times,serif" font-size="14.00" fill="#000000">CustomBuilderService</text>
</g>
<!-- CustomBuilderService&#45;&gt;SurveyBuilderModule -->
<g id="edge35" class="edge">
<title>CustomBuilderService&#45;&gt;SurveyBuilderModule</title>
<path fill="none" stroke="#000000" d="M615,-122.0908C615,-145.1328 615,-182 615,-182 615,-182 3180.2259,-182 3180.2259,-182"/>
<polygon fill="#000000" stroke="#000000" points="3180.2259,-185.5001 3190.2259,-182 3180.2259,-178.5001 3180.2259,-185.5001"/>
</g>
<!-- SurveyBuilderEndpointService -->
<g id="node37" class="node">
<title>SurveyBuilderEndpointService</title>
<ellipse fill="#fdb462" stroke="#000000" cx="366" cy="-104" rx="131.9449" ry="18"/>
<text text-anchor="middle" x="366" y="-99.8" font-family="Times,serif" font-size="14.00" fill="#000000">SurveyBuilderEndpointService</text>
</g>
<!-- SurveyBuilderEndpointService&#45;&gt;SurveyBuilderModule -->
<g id="edge36" class="edge">
<title>SurveyBuilderEndpointService&#45;&gt;SurveyBuilderModule</title>
<path fill="none" stroke="#000000" d="M366,-122.3228C366,-145.6602 366,-183 366,-183 366,-183 3180.1567,-183 3180.1567,-183"/>
<polygon fill="#000000" stroke="#000000" points="3180.1567,-186.5001 3190.1567,-183 3180.1567,-179.5001 3180.1567,-186.5001"/>
</g>
<!-- SurveyBuilderService -->
<g id="node38" class="node">
<title>SurveyBuilderService</title>
<ellipse fill="#fdb462" stroke="#000000" cx="120" cy="-104" rx="96.1266" ry="18"/>
<text text-anchor="middle" x="120" y="-99.8" font-family="Times,serif" font-size="14.00" fill="#000000">SurveyBuilderService</text>
</g>
<!-- SurveyBuilderService&#45;&gt;SurveyBuilderModule -->
<g id="edge37" class="edge">
<title>SurveyBuilderService&#45;&gt;SurveyBuilderModule</title>
<path fill="none" stroke="#000000" d="M120,-122.3802C120,-146.2785 120,-185 120,-185 120,-185 3180.2449,-185 3180.2449,-185"/>
<polygon fill="#000000" stroke="#000000" points="3180.2449,-188.5001 3190.2449,-185 3180.2449,-181.5001 3180.2449,-188.5001"/>
</g>
</g>
</svg>
