<?xml version="1.0" encoding="UTF-8" standalone="no"?>
<!DOCTYPE svg PUBLIC "-//W3C//DTD SVG 1.1//EN"
 "http://www.w3.org/Graphics/SVG/1.1/DTD/svg11.dtd">
<!-- Generated by graphviz version 2.40.1 (20161225.0304)
 -->
<!-- Title: dependencies Pages: 1 -->
<svg width="2507pt" height="284pt"
 viewBox="0.00 0.00 2507.00 284.00" xmlns="http://www.w3.org/2000/svg" xmlns:xlink="http://www.w3.org/1999/xlink">
<g id="graph0" class="graph" transform="scale(1 1) rotate(0) translate(4 280)">
<title>dependencies</title>
<polygon fill="#ffffff" stroke="transparent" points="-4,4 -4,-280 2503,-280 2503,4 -4,4"/>
<text text-anchor="start" x="1228.5091" y="-42.4" font-family="sans-serif" font-weight="bold" font-size="14.00" fill="#000000">Legend</text>
<polygon fill="#ffffb3" stroke="transparent" points="1015.5,-10 1015.5,-30 1035.5,-30 1035.5,-10 1015.5,-10"/>
<text text-anchor="start" x="1039.129" y="-15.4" font-family="sans-serif" font-size="14.00" fill="#000000"> &#160;Declarations</text>
<polygon fill="#8dd3c7" stroke="transparent" points="1128.5,-10 1128.5,-30 1148.5,-30 1148.5,-10 1128.5,-10"/>
<text text-anchor="start" x="1152.2251" y="-15.4" font-family="sans-serif" font-size="14.00" fill="#000000"> &#160;Module</text>
<polygon fill="#80b1d3" stroke="transparent" points="1214.5,-10 1214.5,-30 1234.5,-30 1234.5,-10 1214.5,-10"/>
<text text-anchor="start" x="1238.2812" y="-15.4" font-family="sans-serif" font-size="14.00" fill="#000000"> &#160;Bootstrap</text>
<polygon fill="#fdb462" stroke="transparent" points="1311.5,-10 1311.5,-30 1331.5,-30 1331.5,-10 1311.5,-10"/>
<text text-anchor="start" x="1335.1732" y="-15.4" font-family="sans-serif" font-size="14.00" fill="#000000"> &#160;Providers</text>
<polygon fill="#fb8072" stroke="transparent" points="1407.5,-10 1407.5,-30 1427.5,-30 1427.5,-10 1407.5,-10"/>
<text text-anchor="start" x="1431.2258" y="-15.4" font-family="sans-serif" font-size="14.00" fill="#000000"> &#160;Exports</text>
<g id="clust1" class="cluster">
<title>cluster_AdminAppModule</title>
<polygon fill="none" stroke="#000000" stroke-dasharray="1,5" points="8,-70 8,-268 2491,-268 2491,-70 8,-70"/>
</g>
<g id="clust2" class="cluster">
<title>cluster_AdminAppModule_declarations</title>
<polygon fill="none" stroke="#000000" points="1055,-78 1055,-130 2483,-130 2483,-78 1055,-78"/>
</g>
<g id="clust12" class="cluster">
<title>cluster_AdminAppModule_imports</title>
<polygon fill="none" stroke="#000000" points="786,-78 786,-130 1047,-130 1047,-78 786,-78"/>
</g>
<g id="clust14" class="cluster">
<title>cluster_AdminAppModule_bootstrap</title>
<polygon fill="none" stroke="#000000" points="1193,-208 1193,-260 1357,-260 1357,-208 1193,-208"/>
</g>
<g id="clust15" class="cluster">
<title>cluster_AdminAppModule_providers</title>
<polygon fill="none" stroke="#000000" points="16,-78 16,-130 778,-130 778,-78 16,-78"/>
</g>
<!-- AdminAppComponent -->
<g id="node1" class="node">
<title>AdminAppComponent</title>
<polygon fill="#ffffb3" stroke="#000000" points="2475.3272,-122 2330.6728,-122 2330.6728,-86 2475.3272,-86 2475.3272,-122"/>
<text text-anchor="middle" x="2403" y="-99.8" font-family="Times,serif" font-size="14.00" fill="#000000">AdminAppComponent</text>
</g>
<!-- AdminAppModule -->
<g id="node10" class="node">
<title>AdminAppModule</title>
<polygon fill="#8dd3c7" stroke="#000000" points="1336.045,-187 1333.045,-191 1312.045,-191 1309.045,-187 1213.955,-187 1213.955,-151 1336.045,-151 1336.045,-187"/>
<text text-anchor="middle" x="1275" y="-164.8" font-family="Times,serif" font-size="14.00" fill="#000000">AdminAppModule</text>
</g>
<!-- AdminAppComponent&#45;&gt;AdminAppModule -->
<g id="edge1" class="edge">
<title>AdminAppComponent&#45;&gt;AdminAppModule</title>
<path fill="none" stroke="#000000" d="M2403,-122.3228C2403,-145.6602 2403,-183 2403,-183 2403,-183 1346.0461,-183 1346.0461,-183"/>
<polygon fill="#000000" stroke="#000000" points="1346.0462,-179.5001 1336.0461,-183 1346.0461,-186.5001 1346.0462,-179.5001"/>
</g>
<!-- AutofocusDirective -->
<g id="node2" class="node">
<title>AutofocusDirective</title>
<polygon fill="#ffffb3" stroke="#000000" points="2313.4004,-122 2186.5996,-122 2186.5996,-86 2313.4004,-86 2313.4004,-122"/>
<text text-anchor="middle" x="2250" y="-99.8" font-family="Times,serif" font-size="14.00" fill="#000000">AutofocusDirective</text>
</g>
<!-- AutofocusDirective&#45;&gt;AdminAppModule -->
<g id="edge2" class="edge">
<title>AutofocusDirective&#45;&gt;AdminAppModule</title>
<path fill="none" stroke="#000000" d="M2250,-122.2921C2250,-144.2057 2250,-178 2250,-178 2250,-178 1346.36,-178 1346.36,-178"/>
<polygon fill="#000000" stroke="#000000" points="1346.36,-174.5001 1336.36,-178 1346.3599,-181.5001 1346.36,-174.5001"/>
</g>
<!-- BootstrapDatepickerDirective -->
<g id="node3" class="node">
<title>BootstrapDatepickerDirective</title>
<polygon fill="#ffffb3" stroke="#000000" points="2168.9272,-122 1985.0728,-122 1985.0728,-86 2168.9272,-86 2168.9272,-122"/>
<text text-anchor="middle" x="2077" y="-99.8" font-family="Times,serif" font-size="14.00" fill="#000000">BootstrapDatepickerDirective</text>
</g>
<!-- BootstrapDatepickerDirective&#45;&gt;AdminAppModule -->
<g id="edge3" class="edge">
<title>BootstrapDatepickerDirective&#45;&gt;AdminAppModule</title>
<path fill="none" stroke="#000000" d="M2077,-122.0267C2077,-142.7672 2077,-174 2077,-174 2077,-174 1346.2689,-174 1346.2689,-174"/>
<polygon fill="#000000" stroke="#000000" points="1346.2689,-170.5001 1336.2689,-174 1346.2688,-177.5001 1346.2689,-170.5001"/>
</g>
<!-- BootstrapSelectDirective -->
<g id="node4" class="node">
<title>BootstrapSelectDirective</title>
<polygon fill="#ffffb3" stroke="#000000" points="1967.2282,-122 1810.7718,-122 1810.7718,-86 1967.2282,-86 1967.2282,-122"/>
<text text-anchor="middle" x="1889" y="-99.8" font-family="Times,serif" font-size="14.00" fill="#000000">BootstrapSelectDirective</text>
</g>
<!-- BootstrapSelectDirective&#45;&gt;AdminAppModule -->
<g id="edge4" class="edge">
<title>BootstrapSelectDirective&#45;&gt;AdminAppModule</title>
<path fill="none" stroke="#000000" d="M1889,-122.1061C1889,-141.3391 1889,-169 1889,-169 1889,-169 1346.1174,-169 1346.1174,-169"/>
<polygon fill="#000000" stroke="#000000" points="1346.1174,-165.5001 1336.1174,-169 1346.1174,-172.5001 1346.1174,-165.5001"/>
</g>
<!-- BootstrapTabDirective -->
<g id="node5" class="node">
<title>BootstrapTabDirective</title>
<polygon fill="#ffffb3" stroke="#000000" points="1792.2879,-122 1647.7121,-122 1647.7121,-86 1792.2879,-86 1792.2879,-122"/>
<text text-anchor="middle" x="1720" y="-99.8" font-family="Times,serif" font-size="14.00" fill="#000000">BootstrapTabDirective</text>
</g>
<!-- BootstrapTabDirective&#45;&gt;AdminAppModule -->
<g id="edge5" class="edge">
<title>BootstrapTabDirective&#45;&gt;AdminAppModule</title>
<path fill="none" stroke="#000000" d="M1720,-122.302C1720,-140.2699 1720,-165 1720,-165 1720,-165 1346.4081,-165 1346.4081,-165"/>
<polygon fill="#000000" stroke="#000000" points="1346.4082,-161.5001 1336.4081,-165 1346.4081,-168.5001 1346.4082,-161.5001"/>
</g>
<!-- BootstrapToggleDirective -->
<g id="node6" class="node">
<title>BootstrapToggleDirective</title>
<polygon fill="#ffffb3" stroke="#000000" points="1630.1783,-122 1467.8217,-122 1467.8217,-86 1630.1783,-86 1630.1783,-122"/>
<text text-anchor="middle" x="1549" y="-99.8" font-family="Times,serif" font-size="14.00" fill="#000000">BootstrapToggleDirective</text>
</g>
<!-- BootstrapToggleDirective&#45;&gt;AdminAppModule -->
<g id="edge6" class="edge">
<title>BootstrapToggleDirective&#45;&gt;AdminAppModule</title>
<path fill="none" stroke="#000000" d="M1549,-122.027C1549,-138.3976 1549,-160 1549,-160 1549,-160 1346.1499,-160 1346.1499,-160"/>
<polygon fill="#000000" stroke="#000000" points="1346.1499,-156.5001 1336.1499,-160 1346.1499,-163.5001 1346.1499,-156.5001"/>
</g>
<!-- EqualValidator -->
<g id="node7" class="node">
<title>EqualValidator</title>
<polygon fill="#ffffb3" stroke="#000000" points="1449.5271,-122 1348.4729,-122 1348.4729,-86 1449.5271,-86 1449.5271,-122"/>
<text text-anchor="middle" x="1399" y="-99.8" font-family="Times,serif" font-size="14.00" fill="#000000">EqualValidator</text>
</g>
<!-- EqualValidator&#45;&gt;AdminAppModule -->
<g id="edge7" class="edge">
<title>EqualValidator&#45;&gt;AdminAppModule</title>
<path fill="none" stroke="#000000" d="M1399.3382,-122.1871C1399.3382,-137.1824 1399.3382,-156 1399.3382,-156 1399.3382,-156 1346.0763,-156 1346.0763,-156"/>
<polygon fill="#000000" stroke="#000000" points="1346.0764,-152.5001 1336.0763,-156 1346.0763,-159.5001 1346.0764,-152.5001"/>
</g>
<!-- ErrorComponent -->
<g id="node8" class="node">
<title>ErrorComponent</title>
<polygon fill="#ffffb3" stroke="#000000" points="1330.3669,-122 1219.6331,-122 1219.6331,-86 1330.3669,-86 1330.3669,-122"/>
<text text-anchor="middle" x="1275" y="-99.8" font-family="Times,serif" font-size="14.00" fill="#000000">ErrorComponent</text>
</g>
<!-- ErrorComponent&#45;&gt;AdminAppModule -->
<g id="edge8" class="edge">
<title>ErrorComponent&#45;&gt;AdminAppModule</title>
<path fill="none" stroke="#000000" d="M1275,-122.1061C1275,-122.1061 1275,-140.991 1275,-140.991"/>
<polygon fill="#000000" stroke="#000000" points="1271.5001,-140.9909 1275,-150.991 1278.5001,-140.991 1271.5001,-140.9909"/>
</g>
<!-- LastElementDirective -->
<g id="node9" class="node">
<title>LastElementDirective</title>
<polygon fill="#ffffb3" stroke="#000000" points="1201.3389,-122 1062.6611,-122 1062.6611,-86 1201.3389,-86 1201.3389,-122"/>
<text text-anchor="middle" x="1132" y="-99.8" font-family="Times,serif" font-size="14.00" fill="#000000">LastElementDirective</text>
</g>
<!-- LastElementDirective&#45;&gt;AdminAppModule -->
<g id="edge9" class="edge">
<title>LastElementDirective&#45;&gt;AdminAppModule</title>
<path fill="none" stroke="#000000" d="M1131.8336,-122.1871C1131.8336,-137.1824 1131.8336,-156 1131.8336,-156 1131.8336,-156 1203.8693,-156 1203.8693,-156"/>
<polygon fill="#000000" stroke="#000000" points="1203.8693,-159.5001 1213.8693,-156 1203.8693,-152.5001 1203.8693,-159.5001"/>
</g>
<!-- AdminAppComponent  -->
<g id="node13" class="node">
<title>AdminAppComponent </title>
<polygon fill="#80b1d3" stroke="#000000" points="1348.8269,-252 1201.1731,-252 1201.1731,-216 1348.8269,-216 1348.8269,-252"/>
<text text-anchor="middle" x="1275" y="-229.8" font-family="Times,serif" font-size="14.00" fill="#000000">AdminAppComponent </text>
</g>
<!-- AdminAppModule&#45;&gt;AdminAppComponent  -->
<g id="edge12" class="edge">
<title>AdminAppModule&#45;&gt;AdminAppComponent </title>
<path fill="none" stroke="#000000" stroke-dasharray="1,5" d="M1275,-187.1061C1275,-187.1061 1275,-205.991 1275,-205.991"/>
<polygon fill="#000000" stroke="#000000" points="1271.5001,-205.9909 1275,-215.991 1278.5001,-205.991 1271.5001,-205.9909"/>
</g>
<!-- AppRoutingModule -->
<g id="node11" class="node">
<title>AppRoutingModule</title>
<polygon fill="#8dd3c7" stroke="#000000" points="1039.2744,-122 1036.2744,-126 1015.2744,-126 1012.2744,-122 910.7256,-122 910.7256,-86 1039.2744,-86 1039.2744,-122"/>
<text text-anchor="middle" x="975" y="-99.8" font-family="Times,serif" font-size="14.00" fill="#000000">AppRoutingModule</text>
</g>
<!-- AppRoutingModule&#45;&gt;AdminAppModule -->
<g id="edge10" class="edge">
<title>AppRoutingModule&#45;&gt;AdminAppModule</title>
<path fill="none" stroke="#000000" d="M975,-122.027C975,-138.3976 975,-160 975,-160 975,-160 1203.9289,-160 1203.9289,-160"/>
<polygon fill="#000000" stroke="#000000" points="1203.929,-163.5001 1213.9289,-160 1203.9289,-156.5001 1203.929,-163.5001"/>
</g>
<!-- SharedModule -->
<g id="node12" class="node">
<title>SharedModule</title>
<polygon fill="#8dd3c7" stroke="#000000" points="892.4231,-122 889.4231,-126 868.4231,-126 865.4231,-122 793.5769,-122 793.5769,-86 892.4231,-86 892.4231,-122"/>
<text text-anchor="middle" x="843" y="-99.8" font-family="Times,serif" font-size="14.00" fill="#000000">SharedModule</text>
</g>
<!-- SharedModule&#45;&gt;AdminAppModule -->
<g id="edge11" class="edge">
<title>SharedModule&#45;&gt;AdminAppModule</title>
<path fill="none" stroke="#000000" d="M843,-122.302C843,-140.2699 843,-165 843,-165 843,-165 1203.5637,-165 1203.5637,-165"/>
<polygon fill="#000000" stroke="#000000" points="1203.5638,-168.5001 1213.5637,-165 1203.5637,-161.5001 1203.5638,-168.5001"/>
</g>
<!-- AdminAppConfig -->
<g id="node14" class="node">
<title>AdminAppConfig</title>
<ellipse fill="#fdb462" stroke="#000000" cx="689" cy="-104" rx="81.1264" ry="18"/>
<text text-anchor="middle" x="689" y="-99.8" font-family="Times,serif" font-size="14.00" fill="#000000">AdminAppConfig</text>
</g>
<!-- AdminAppConfig&#45;&gt;AdminAppModule -->
<g id="edge13" class="edge">
<title>AdminAppConfig&#45;&gt;AdminAppModule</title>
<path fill="none" stroke="#000000" d="M689,-122.1061C689,-141.3391 689,-169 689,-169 689,-169 1203.9461,-169 1203.9461,-169"/>
<polygon fill="#000000" stroke="#000000" points="1203.9461,-172.5001 1213.9461,-169 1203.946,-165.5001 1203.9461,-172.5001"/>
</g>
<!-- AppTranslationService -->
<g id="node15" class="node">
<title>AppTranslationService</title>
<ellipse fill="#fdb462" stroke="#000000" cx="489" cy="-104" rx="100.6998" ry="18"/>
<text text-anchor="middle" x="489" y="-99.8" font-family="Times,serif" font-size="14.00" fill="#000000">AppTranslationService</text>
</g>
<!-- AppTranslationService&#45;&gt;AdminAppModule -->
<g id="edge14" class="edge">
<title>AppTranslationService&#45;&gt;AdminAppModule</title>
<path fill="none" stroke="#000000" d="M489,-122.0267C489,-142.7672 489,-174 489,-174 489,-174 1203.6513,-174 1203.6513,-174"/>
<polygon fill="#000000" stroke="#000000" points="1203.6513,-177.5001 1213.6513,-174 1203.6513,-170.5001 1203.6513,-177.5001"/>
</g>
<!-- EndpointFactory -->
<g id="node16" class="node">
<title>EndpointFactory</title>
<ellipse fill="#fdb462" stroke="#000000" cx="294" cy="-104" rx="75.8856" ry="18"/>
<text text-anchor="middle" x="294" y="-99.8" font-family="Times,serif" font-size="14.00" fill="#000000">EndpointFactory</text>
</g>
<!-- EndpointFactory&#45;&gt;AdminAppModule -->
<g id="edge15" class="edge">
<title>EndpointFactory&#45;&gt;AdminAppModule</title>
<path fill="none" stroke="#000000" d="M294,-122.2921C294,-144.2057 294,-178 294,-178 294,-178 1203.6341,-178 1203.6341,-178"/>
<polygon fill="#000000" stroke="#000000" points="1203.6341,-181.5001 1213.6341,-178 1203.634,-174.5001 1203.6341,-181.5001"/>
</g>
<!-- LocalStoreManager -->
<g id="node17" class="node">
<title>LocalStoreManager</title>
<ellipse fill="#fdb462" stroke="#000000" cx="112" cy="-104" rx="87.9394" ry="18"/>
<text text-anchor="middle" x="112" y="-99.8" font-family="Times,serif" font-size="14.00" fill="#000000">LocalStoreManager</text>
</g>
<!-- LocalStoreManager&#45;&gt;AdminAppModule -->
<g id="edge16" class="edge">
<title>LocalStoreManager&#45;&gt;AdminAppModule</title>
<path fill="none" stroke="#000000" d="M112,-122.3228C112,-145.6602 112,-183 112,-183 112,-183 1203.702,-183 1203.702,-183"/>
<polygon fill="#000000" stroke="#000000" points="1203.702,-186.5001 1213.702,-183 1203.7019,-179.5001 1203.702,-186.5001"/>
</g>
</g>
</svg>
