<?xml version="1.0" encoding="UTF-8" standalone="no"?>
<!DOCTYPE svg PUBLIC "-//W3C//DTD SVG 1.1//EN"
 "http://www.w3.org/Graphics/SVG/1.1/DTD/svg11.dtd">
<!-- Generated by graphviz version 2.40.1 (20161225.0304)
 -->
<!-- Title: dependencies Pages: 1 -->
<svg width="1051pt" height="211pt"
 viewBox="0.00 0.00 1051.00 211.00" xmlns="http://www.w3.org/2000/svg" xmlns:xlink="http://www.w3.org/1999/xlink">
<g id="graph0" class="graph" transform="scale(1 1) rotate(0) translate(4 207)">
<title>dependencies</title>
<polygon fill="#ffffff" stroke="transparent" points="-4,4 -4,-207 1047,-207 1047,4 -4,4"/>
<text text-anchor="start" x="500.5091" y="-42.4" font-family="sans-serif" font-weight="bold" font-size="14.00" fill="#000000">Legend</text>
<polygon fill="#ffffb3" stroke="transparent" points="287.5,-10 287.5,-30 307.5,-30 307.5,-10 287.5,-10"/>
<text text-anchor="start" x="311.129" y="-15.4" font-family="sans-serif" font-size="14.00" fill="#000000"> &#160;Declarations</text>
<polygon fill="#8dd3c7" stroke="transparent" points="400.5,-10 400.5,-30 420.5,-30 420.5,-10 400.5,-10"/>
<text text-anchor="start" x="424.2251" y="-15.4" font-family="sans-serif" font-size="14.00" fill="#000000"> &#160;Module</text>
<polygon fill="#80b1d3" stroke="transparent" points="486.5,-10 486.5,-30 506.5,-30 506.5,-10 486.5,-10"/>
<text text-anchor="start" x="510.2812" y="-15.4" font-family="sans-serif" font-size="14.00" fill="#000000"> &#160;Bootstrap</text>
<polygon fill="#fdb462" stroke="transparent" points="583.5,-10 583.5,-30 603.5,-30 603.5,-10 583.5,-10"/>
<text text-anchor="start" x="607.1732" y="-15.4" font-family="sans-serif" font-size="14.00" fill="#000000"> &#160;Providers</text>
<polygon fill="#fb8072" stroke="transparent" points="679.5,-10 679.5,-30 699.5,-30 699.5,-10 679.5,-10"/>
<text text-anchor="start" x="703.2258" y="-15.4" font-family="sans-serif" font-size="14.00" fill="#000000"> &#160;Exports</text>
<g id="clust1" class="cluster">
<title>cluster_LayoutModule</title>
<polygon fill="none" stroke="#000000" stroke-dasharray="1,5" points="8,-70 8,-195 1035,-195 1035,-70 8,-70"/>
</g>
<g id="clust2" class="cluster">
<title>cluster_LayoutModule_declarations</title>
<polygon fill="none" stroke="#000000" points="16,-78 16,-130 1027,-130 1027,-78 16,-78"/>
</g>
<!-- ChatAppComponent -->
<g id="node1" class="node">
<title>ChatAppComponent</title>
<polygon fill="#ffffb3" stroke="#000000" points="1018.8809,-122 887.1191,-122 887.1191,-86 1018.8809,-86 1018.8809,-122"/>
<text text-anchor="middle" x="953" y="-99.8" font-family="Times,serif" font-size="14.00" fill="#000000">ChatAppComponent</text>
</g>
<!-- LayoutModule -->
<g id="node8" class="node">
<title>LayoutModule</title>
<polygon fill="#8dd3c7" stroke="#000000" points="514.7078,-187 511.7078,-191 490.7078,-191 487.7078,-187 415.2922,-187 415.2922,-151 514.7078,-151 514.7078,-187"/>
<text text-anchor="middle" x="465" y="-164.8" font-family="Times,serif" font-size="14.00" fill="#000000">LayoutModule</text>
</g>
<!-- ChatAppComponent&#45;&gt;LayoutModule -->
<g id="edge1" class="edge">
<title>ChatAppComponent&#45;&gt;LayoutModule</title>
<path fill="none" stroke="#000000" d="M953,-122.2921C953,-144.2057 953,-178 953,-178 953,-178 524.9312,-178 524.9312,-178"/>
<polygon fill="#000000" stroke="#000000" points="524.9313,-174.5001 514.9312,-178 524.9312,-181.5001 524.9313,-174.5001"/>
</g>
<!-- ChatMessageComponent -->
<g id="node2" class="node">
<title>ChatMessageComponent</title>
<polygon fill="#ffffb3" stroke="#000000" points="869.252,-122 712.748,-122 712.748,-86 869.252,-86 869.252,-122"/>
<text text-anchor="middle" x="791" y="-99.8" font-family="Times,serif" font-size="14.00" fill="#000000">ChatMessageComponent</text>
</g>
<!-- ChatMessageComponent&#45;&gt;LayoutModule -->
<g id="edge2" class="edge">
<title>ChatMessageComponent&#45;&gt;LayoutModule</title>
<path fill="none" stroke="#000000" d="M791,-122.1061C791,-141.3391 791,-169 791,-169 791,-169 524.8673,-169 524.8673,-169"/>
<polygon fill="#000000" stroke="#000000" points="524.8673,-165.5001 514.8673,-169 524.8672,-172.5001 524.8673,-165.5001"/>
</g>
<!-- ChatSidebarComponent -->
<g id="node3" class="node">
<title>ChatSidebarComponent</title>
<polygon fill="#ffffb3" stroke="#000000" points="694.0379,-122 543.9621,-122 543.9621,-86 694.0379,-86 694.0379,-122"/>
<text text-anchor="middle" x="619" y="-99.8" font-family="Times,serif" font-size="14.00" fill="#000000">ChatSidebarComponent</text>
</g>
<!-- ChatSidebarComponent&#45;&gt;LayoutModule -->
<g id="edge3" class="edge">
<title>ChatSidebarComponent&#45;&gt;LayoutModule</title>
<path fill="none" stroke="#000000" d="M619,-122.027C619,-138.3976 619,-160 619,-160 619,-160 524.9994,-160 524.9994,-160"/>
<polygon fill="#000000" stroke="#000000" points="524.9994,-156.5001 514.9994,-160 524.9994,-163.5001 524.9994,-156.5001"/>
</g>
<!-- LayoutComponent -->
<g id="node4" class="node">
<title>LayoutComponent</title>
<polygon fill="#ffffb3" stroke="#000000" points="525.4902,-122 404.5098,-122 404.5098,-86 525.4902,-86 525.4902,-122"/>
<text text-anchor="middle" x="465" y="-99.8" font-family="Times,serif" font-size="14.00" fill="#000000">LayoutComponent</text>
</g>
<!-- LayoutComponent&#45;&gt;LayoutModule -->
<g id="edge4" class="edge">
<title>LayoutComponent&#45;&gt;LayoutModule</title>
<path fill="none" stroke="#000000" d="M465,-122.1061C465,-122.1061 465,-140.991 465,-140.991"/>
<polygon fill="#000000" stroke="#000000" points="461.5001,-140.9909 465,-150.991 468.5001,-140.991 461.5001,-140.9909"/>
</g>
<!-- NavbarComponent -->
<g id="node5" class="node">
<title>NavbarComponent</title>
<polygon fill="#ffffb3" stroke="#000000" points="386.0297,-122 263.9703,-122 263.9703,-86 386.0297,-86 386.0297,-122"/>
<text text-anchor="middle" x="325" y="-99.8" font-family="Times,serif" font-size="14.00" fill="#000000">NavbarComponent</text>
</g>
<!-- NavbarComponent&#45;&gt;LayoutModule -->
<g id="edge5" class="edge">
<title>NavbarComponent&#45;&gt;LayoutModule</title>
<path fill="none" stroke="#000000" d="M325,-122.027C325,-138.3976 325,-160 325,-160 325,-160 405.247,-160 405.247,-160"/>
<polygon fill="#000000" stroke="#000000" points="405.2471,-163.5001 415.247,-160 405.247,-156.5001 405.2471,-163.5001"/>
</g>
<!-- SearchPipe -->
<g id="node6" class="node">
<title>SearchPipe</title>
<polygon fill="#ffffb3" stroke="#000000" points="245.4748,-122 166.5252,-122 166.5252,-86 245.4748,-86 245.4748,-122"/>
<text text-anchor="middle" x="206" y="-99.8" font-family="Times,serif" font-size="14.00" fill="#000000">SearchPipe</text>
</g>
<!-- SearchPipe&#45;&gt;LayoutModule -->
<g id="edge6" class="edge">
<title>SearchPipe&#45;&gt;LayoutModule</title>
<path fill="none" stroke="#000000" d="M206,-122.1061C206,-141.3391 206,-169 206,-169 206,-169 405.3686,-169 405.3686,-169"/>
<polygon fill="#000000" stroke="#000000" points="405.3687,-172.5001 415.3686,-169 405.3686,-165.5001 405.3687,-172.5001"/>
</g>
<!-- SidebarComponent -->
<g id="node7" class="node">
<title>SidebarComponent</title>
<polygon fill="#ffffb3" stroke="#000000" points="148.0954,-122 23.9046,-122 23.9046,-86 148.0954,-86 148.0954,-122"/>
<text text-anchor="middle" x="86" y="-99.8" font-family="Times,serif" font-size="14.00" fill="#000000">SidebarComponent</text>
</g>
<!-- SidebarComponent&#45;&gt;LayoutModule -->
<g id="edge7" class="edge">
<title>SidebarComponent&#45;&gt;LayoutModule</title>
<path fill="none" stroke="#000000" d="M86,-122.2921C86,-144.2057 86,-178 86,-178 86,-178 405.0626,-178 405.0626,-178"/>
<polygon fill="#000000" stroke="#000000" points="405.0627,-181.5001 415.0626,-178 405.0626,-174.5001 405.0627,-181.5001"/>
</g>
</g>
</svg>
