<?xml version="1.0" encoding="UTF-8" standalone="no"?>
<!DOCTYPE svg PUBLIC "-//W3C//DTD SVG 1.1//EN"
 "http://www.w3.org/Graphics/SVG/1.1/DTD/svg11.dtd">
<!-- Generated by graphviz version 2.40.1 (20161225.0304)
 -->
<!-- Title: dependencies Pages: 1 -->
<svg width="2367pt" height="211pt"
 viewBox="0.00 0.00 2367.00 211.00" xmlns="http://www.w3.org/2000/svg" xmlns:xlink="http://www.w3.org/1999/xlink">
<g id="graph0" class="graph" transform="scale(1 1) rotate(0) translate(4 207)">
<title>dependencies</title>
<polygon fill="#ffffff" stroke="transparent" points="-4,4 -4,-207 2363,-207 2363,4 -4,4"/>
<text text-anchor="start" x="1158.5091" y="-42.4" font-family="sans-serif" font-weight="bold" font-size="14.00" fill="#000000">Legend</text>
<polygon fill="#ffffb3" stroke="transparent" points="945.5,-10 945.5,-30 965.5,-30 965.5,-10 945.5,-10"/>
<text text-anchor="start" x="969.129" y="-15.4" font-family="sans-serif" font-size="14.00" fill="#000000"> &#160;Declarations</text>
<polygon fill="#8dd3c7" stroke="transparent" points="1058.5,-10 1058.5,-30 1078.5,-30 1078.5,-10 1058.5,-10"/>
<text text-anchor="start" x="1082.2251" y="-15.4" font-family="sans-serif" font-size="14.00" fill="#000000"> &#160;Module</text>
<polygon fill="#80b1d3" stroke="transparent" points="1144.5,-10 1144.5,-30 1164.5,-30 1164.5,-10 1144.5,-10"/>
<text text-anchor="start" x="1168.2812" y="-15.4" font-family="sans-serif" font-size="14.00" fill="#000000"> &#160;Bootstrap</text>
<polygon fill="#fdb462" stroke="transparent" points="1241.5,-10 1241.5,-30 1261.5,-30 1261.5,-10 1241.5,-10"/>
<text text-anchor="start" x="1265.1732" y="-15.4" font-family="sans-serif" font-size="14.00" fill="#000000"> &#160;Providers</text>
<polygon fill="#fb8072" stroke="transparent" points="1337.5,-10 1337.5,-30 1357.5,-30 1357.5,-10 1337.5,-10"/>
<text text-anchor="start" x="1361.2258" y="-15.4" font-family="sans-serif" font-size="14.00" fill="#000000"> &#160;Exports</text>
<g id="clust1" class="cluster">
<title>cluster_SurveysManagementModule</title>
<polygon fill="none" stroke="#000000" stroke-dasharray="1,5" points="8,-70 8,-195 2351,-195 2351,-70 8,-70"/>
</g>
<g id="clust2" class="cluster">
<title>cluster_SurveysManagementModule_declarations</title>
<polygon fill="none" stroke="#000000" points="1948,-78 1948,-130 2343,-130 2343,-78 1948,-78"/>
</g>
<g id="clust5" class="cluster">
<title>cluster_SurveysManagementModule_imports</title>
<polygon fill="none" stroke="#000000" points="16,-78 16,-130 1940,-130 1940,-78 16,-78"/>
</g>
<!-- SurveysManagementComponent -->
<g id="node1" class="node">
<title>SurveysManagementComponent</title>
<polygon fill="#ffffb3" stroke="#000000" points="2334.5196,-122 2135.4804,-122 2135.4804,-86 2334.5196,-86 2334.5196,-122"/>
<text text-anchor="middle" x="2235" y="-99.8" font-family="Times,serif" font-size="14.00" fill="#000000">SurveysManagementComponent</text>
</g>
<!-- SurveysManagementModule -->
<g id="node3" class="node">
<title>SurveysManagementModule</title>
<polygon fill="#8dd3c7" stroke="#000000" points="1270.7366,-187 1267.7366,-191 1246.7366,-191 1243.7366,-187 1093.2634,-187 1093.2634,-151 1270.7366,-151 1270.7366,-187"/>
<text text-anchor="middle" x="1182" y="-164.8" font-family="Times,serif" font-size="14.00" fill="#000000">SurveysManagementModule</text>
</g>
<!-- SurveysManagementComponent&#45;&gt;SurveysManagementModule -->
<g id="edge1" class="edge">
<title>SurveysManagementComponent&#45;&gt;SurveysManagementModule</title>
<path fill="none" stroke="#000000" d="M2235,-122.0908C2235,-145.1328 2235,-182 2235,-182 2235,-182 1280.8707,-182 1280.8707,-182"/>
<polygon fill="#000000" stroke="#000000" points="1280.8707,-178.5001 1270.8707,-182 1280.8706,-185.5001 1280.8707,-178.5001"/>
</g>
<!-- SurveysEditorComponent -->
<g id="node2" class="node">
<title>SurveysEditorComponent</title>
<polygon fill="#ffffb3" stroke="#000000" points="2117.9298,-122 1956.0702,-122 1956.0702,-86 2117.9298,-86 2117.9298,-122"/>
<text text-anchor="middle" x="2037" y="-99.8" font-family="Times,serif" font-size="14.00" fill="#000000">SurveysEditorComponent</text>
</g>
<!-- SurveysEditorComponent&#45;&gt;SurveysManagementModule -->
<g id="edge2" class="edge">
<title>SurveysEditorComponent&#45;&gt;SurveysManagementModule</title>
<path fill="none" stroke="#000000" d="M2037,-122.0449C2037,-143.6623 2037,-177 2037,-177 2037,-177 1281.0804,-177 1281.0804,-177"/>
<polygon fill="#000000" stroke="#000000" points="1281.0804,-173.5001 1271.0804,-177 1281.0803,-180.5001 1281.0804,-173.5001"/>
</g>
<!-- CommonModule -->
<g id="node4" class="node">
<title>CommonModule</title>
<polygon fill="#8dd3c7" stroke="#000000" points="1931.6681,-122 1928.6681,-126 1907.6681,-126 1904.6681,-122 1820.3319,-122 1820.3319,-86 1931.6681,-86 1931.6681,-122"/>
<text text-anchor="middle" x="1876" y="-99.8" font-family="Times,serif" font-size="14.00" fill="#000000">CommonModule</text>
</g>
<!-- CommonModule&#45;&gt;SurveysManagementModule -->
<g id="edge3" class="edge">
<title>CommonModule&#45;&gt;SurveysManagementModule</title>
<path fill="none" stroke="#000000" d="M1876,-122.2228C1876,-142.3652 1876,-172 1876,-172 1876,-172 1280.9538,-172 1280.9538,-172"/>
<polygon fill="#000000" stroke="#000000" points="1280.9538,-168.5001 1270.9538,-172 1280.9537,-175.5001 1280.9538,-168.5001"/>
</g>
<!-- BsDatepickerModule.forRoot() -->
<g id="node5" class="node">
<title>BsDatepickerModule.forRoot()</title>
<polygon fill="#8dd3c7" stroke="#000000" points="1802.1074,-122 1799.1074,-126 1778.1074,-126 1775.1074,-122 1609.8926,-122 1609.8926,-86 1802.1074,-86 1802.1074,-122"/>
<text text-anchor="middle" x="1706" y="-99.8" font-family="Times,serif" font-size="14.00" fill="#000000">BsDatepickerModule.forRoot()</text>
</g>
<!-- BsDatepickerModule.forRoot()&#45;&gt;SurveysManagementModule -->
<g id="edge4" class="edge">
<title>BsDatepickerModule.forRoot()&#45;&gt;SurveysManagementModule</title>
<path fill="none" stroke="#000000" d="M1706,-122.2222C1706,-140.8285 1706,-167 1706,-167 1706,-167 1280.8895,-167 1280.8895,-167"/>
<polygon fill="#000000" stroke="#000000" points="1280.8895,-163.5001 1270.8895,-167 1280.8894,-170.5001 1280.8895,-163.5001"/>
</g>
<!-- FormsModule -->
<g id="node6" class="node">
<title>FormsModule</title>
<polygon fill="#8dd3c7" stroke="#000000" points="1591.8288,-122 1588.8288,-126 1567.8288,-126 1564.8288,-122 1496.1712,-122 1496.1712,-86 1591.8288,-86 1591.8288,-122"/>
<text text-anchor="middle" x="1544" y="-99.8" font-family="Times,serif" font-size="14.00" fill="#000000">FormsModule</text>
</g>
<!-- FormsModule&#45;&gt;SurveysManagementModule -->
<g id="edge5" class="edge">
<title>FormsModule&#45;&gt;SurveysManagementModule</title>
<path fill="none" stroke="#000000" d="M1544,-122.0336C1544,-139.0597 1544,-162 1544,-162 1544,-162 1281.0188,-162 1281.0188,-162"/>
<polygon fill="#000000" stroke="#000000" points="1281.0188,-158.5001 1271.0188,-162 1281.0188,-165.5001 1281.0188,-158.5001"/>
</g>
<!-- Select2Module -->
<g id="node7" class="node">
<title>Select2Module</title>
<polygon fill="#8dd3c7" stroke="#000000" points="1478.2577,-122 1475.2577,-126 1454.2577,-126 1451.2577,-122 1377.7423,-122 1377.7423,-86 1478.2577,-86 1478.2577,-122"/>
<text text-anchor="middle" x="1428" y="-99.8" font-family="Times,serif" font-size="14.00" fill="#000000">Select2Module</text>
</g>
<!-- Select2Module&#45;&gt;SurveysManagementModule -->
<g id="edge6" class="edge">
<title>Select2Module&#45;&gt;SurveysManagementModule</title>
<path fill="none" stroke="#000000" d="M1428,-122.2396C1428,-137.5706 1428,-157 1428,-157 1428,-157 1280.8116,-157 1280.8116,-157"/>
<polygon fill="#000000" stroke="#000000" points="1280.8117,-153.5001 1270.8116,-157 1280.8116,-160.5001 1280.8117,-153.5001"/>
</g>
<!-- SharedModule -->
<g id="node8" class="node">
<title>SharedModule</title>
<polygon fill="#8dd3c7" stroke="#000000" points="1359.4231,-122 1356.4231,-126 1335.4231,-126 1332.4231,-122 1260.5769,-122 1260.5769,-86 1359.4231,-86 1359.4231,-122"/>
<text text-anchor="middle" x="1310" y="-99.8" font-family="Times,serif" font-size="14.00" fill="#000000">SharedModule</text>
</g>
<!-- SharedModule&#45;&gt;SurveysManagementModule -->
<g id="edge7" class="edge">
<title>SharedModule&#45;&gt;SurveysManagementModule</title>
<path fill="none" stroke="#000000" d="M1265.8286,-122.1061C1265.8286,-122.1061 1265.8286,-140.991 1265.8286,-140.991"/>
<polygon fill="#000000" stroke="#000000" points="1262.3286,-140.9909 1265.8286,-150.991 1269.3286,-140.991 1262.3286,-140.9909"/>
</g>
<!-- FileUploadModule -->
<g id="node9" class="node">
<title>FileUploadModule</title>
<polygon fill="#8dd3c7" stroke="#000000" points="1243.0409,-122 1240.0409,-126 1219.0409,-126 1216.0409,-122 1120.9591,-122 1120.9591,-86 1243.0409,-86 1243.0409,-122"/>
<text text-anchor="middle" x="1182" y="-99.8" font-family="Times,serif" font-size="14.00" fill="#000000">FileUploadModule</text>
</g>
<!-- FileUploadModule&#45;&gt;SurveysManagementModule -->
<g id="edge8" class="edge">
<title>FileUploadModule&#45;&gt;SurveysManagementModule</title>
<path fill="none" stroke="#000000" d="M1182,-122.1061C1182,-122.1061 1182,-140.991 1182,-140.991"/>
<polygon fill="#000000" stroke="#000000" points="1178.5001,-140.9909 1182,-150.991 1185.5001,-140.991 1178.5001,-140.9909"/>
</g>
<!-- ROUTES -->
<g id="node10" class="node">
<title>ROUTES</title>
<polygon fill="#8dd3c7" stroke="#000000" points="1103.439,-122 1100.439,-126 1079.439,-126 1076.439,-122 1032.561,-122 1032.561,-86 1103.439,-86 1103.439,-122"/>
<text text-anchor="middle" x="1068" y="-99.8" font-family="Times,serif" font-size="14.00" fill="#000000">ROUTES</text>
</g>
<!-- ROUTES&#45;&gt;SurveysManagementModule -->
<g id="edge9" class="edge">
<title>ROUTES&#45;&gt;SurveysManagementModule</title>
<path fill="none" stroke="#000000" d="M1098.1753,-122.1061C1098.1753,-122.1061 1098.1753,-140.991 1098.1753,-140.991"/>
<polygon fill="#000000" stroke="#000000" points="1094.6754,-140.9909 1098.1753,-150.991 1101.6754,-140.991 1094.6754,-140.9909"/>
</g>
<!-- TranslateModule.forChild(args) -->
<g id="node11" class="node">
<title>TranslateModule.forChild(args)</title>
<polygon fill="#8dd3c7" stroke="#000000" points="1014.7127,-122 1011.7127,-126 990.7127,-126 987.7127,-122 819.2873,-122 819.2873,-86 1014.7127,-86 1014.7127,-122"/>
<text text-anchor="middle" x="917" y="-99.8" font-family="Times,serif" font-size="14.00" fill="#000000">TranslateModule.forChild(args)</text>
</g>
<!-- TranslateModule.forChild(args)&#45;&gt;SurveysManagementModule -->
<g id="edge10" class="edge">
<title>TranslateModule.forChild(args)&#45;&gt;SurveysManagementModule</title>
<path fill="none" stroke="#000000" d="M917,-122.2396C917,-137.5706 917,-157 917,-157 917,-157 1083.0216,-157 1083.0216,-157"/>
<polygon fill="#000000" stroke="#000000" points="1083.0217,-160.5001 1093.0216,-157 1083.0216,-153.5001 1083.0217,-160.5001"/>
</g>
<!-- ModalModule -->
<g id="node12" class="node">
<title>ModalModule</title>
<polygon fill="#8dd3c7" stroke="#000000" points="801.0997,-122 798.0997,-126 777.0997,-126 774.0997,-122 704.9003,-122 704.9003,-86 801.0997,-86 801.0997,-122"/>
<text text-anchor="middle" x="753" y="-99.8" font-family="Times,serif" font-size="14.00" fill="#000000">ModalModule</text>
</g>
<!-- ModalModule&#45;&gt;SurveysManagementModule -->
<g id="edge11" class="edge">
<title>ModalModule&#45;&gt;SurveysManagementModule</title>
<path fill="none" stroke="#000000" d="M753,-122.0336C753,-139.0597 753,-162 753,-162 753,-162 1083.1109,-162 1083.1109,-162"/>
<polygon fill="#000000" stroke="#000000" points="1083.111,-165.5001 1093.1109,-162 1083.1109,-158.5001 1083.111,-165.5001"/>
</g>
<!-- AccountManagementModule -->
<g id="node13" class="node">
<title>AccountManagementModule</title>
<polygon fill="#8dd3c7" stroke="#000000" points="687.0604,-122 684.0604,-126 663.0604,-126 660.0604,-122 506.9396,-122 506.9396,-86 687.0604,-86 687.0604,-122"/>
<text text-anchor="middle" x="597" y="-99.8" font-family="Times,serif" font-size="14.00" fill="#000000">AccountManagementModule</text>
</g>
<!-- AccountManagementModule&#45;&gt;SurveysManagementModule -->
<g id="edge12" class="edge">
<title>AccountManagementModule&#45;&gt;SurveysManagementModule</title>
<path fill="none" stroke="#000000" d="M597,-122.2222C597,-140.8285 597,-167 597,-167 597,-167 1083.1511,-167 1083.1511,-167"/>
<polygon fill="#000000" stroke="#000000" points="1083.1511,-170.5001 1093.1511,-167 1083.1511,-163.5001 1083.1511,-170.5001"/>
</g>
<!-- NgxDatatableModule -->
<g id="node14" class="node">
<title>NgxDatatableModule</title>
<polygon fill="#8dd3c7" stroke="#000000" points="488.7935,-122 485.7935,-126 464.7935,-126 461.7935,-122 351.2065,-122 351.2065,-86 488.7935,-86 488.7935,-122"/>
<text text-anchor="middle" x="420" y="-99.8" font-family="Times,serif" font-size="14.00" fill="#000000">NgxDatatableModule</text>
</g>
<!-- NgxDatatableModule&#45;&gt;SurveysManagementModule -->
<g id="edge13" class="edge">
<title>NgxDatatableModule&#45;&gt;SurveysManagementModule</title>
<path fill="none" stroke="#000000" d="M420,-122.2228C420,-142.3652 420,-172 420,-172 420,-172 1083.0976,-172 1083.0976,-172"/>
<polygon fill="#000000" stroke="#000000" points="1083.0976,-175.5001 1093.0976,-172 1083.0976,-168.5001 1083.0976,-175.5001"/>
</g>
<!-- TooltipModule -->
<g id="node15" class="node">
<title>TooltipModule</title>
<polygon fill="#8dd3c7" stroke="#000000" points="333.2745,-122 330.2745,-126 309.2745,-126 306.2745,-122 232.7255,-122 232.7255,-86 333.2745,-86 333.2745,-122"/>
<text text-anchor="middle" x="283" y="-99.8" font-family="Times,serif" font-size="14.00" fill="#000000">TooltipModule</text>
</g>
<!-- TooltipModule&#45;&gt;SurveysManagementModule -->
<g id="edge14" class="edge">
<title>TooltipModule&#45;&gt;SurveysManagementModule</title>
<path fill="none" stroke="#000000" d="M283,-122.0449C283,-143.6623 283,-177 283,-177 283,-177 1082.9273,-177 1082.9273,-177"/>
<polygon fill="#000000" stroke="#000000" points="1082.9273,-180.5001 1092.9273,-177 1082.9273,-173.5001 1082.9273,-180.5001"/>
</g>
<!-- BsDropdownModule.forRoot() -->
<g id="node16" class="node">
<title>BsDropdownModule.forRoot()</title>
<polygon fill="#8dd3c7" stroke="#000000" points="214.0749,-122 211.0749,-126 190.0749,-126 187.0749,-122 23.9251,-122 23.9251,-86 214.0749,-86 214.0749,-122"/>
<text text-anchor="middle" x="119" y="-99.8" font-family="Times,serif" font-size="14.00" fill="#000000">BsDropdownModule.forRoot()</text>
</g>
<!-- BsDropdownModule.forRoot()&#45;&gt;SurveysManagementModule -->
<g id="edge15" class="edge">
<title>BsDropdownModule.forRoot()&#45;&gt;SurveysManagementModule</title>
<path fill="none" stroke="#000000" d="M119,-122.0908C119,-145.1328 119,-182 119,-182 119,-182 1083.1976,-182 1083.1976,-182"/>
<polygon fill="#000000" stroke="#000000" points="1083.1976,-185.5001 1093.1976,-182 1083.1975,-178.5001 1083.1976,-185.5001"/>
</g>
</g>
</svg>
