<?xml version="1.0" encoding="UTF-8" standalone="no"?>
<!DOCTYPE svg PUBLIC "-//W3C//DTD SVG 1.1//EN"
 "http://www.w3.org/Graphics/SVG/1.1/DTD/svg11.dtd">
<!-- Generated by graphviz version 2.40.1 (20161225.0304)
 -->
<!-- Title: dependencies Pages: 1 -->
<svg width="1288pt" height="349pt"
 viewBox="0.00 0.00 1288.00 349.00" xmlns="http://www.w3.org/2000/svg" xmlns:xlink="http://www.w3.org/1999/xlink">
<g id="graph0" class="graph" transform="scale(1 1) rotate(0) translate(4 345)">
<title>dependencies</title>
<polygon fill="#ffffff" stroke="transparent" points="-4,4 -4,-345 1284,-345 1284,4 -4,4"/>
<text text-anchor="start" x="619.0091" y="-42.4" font-family="sans-serif" font-weight="bold" font-size="14.00" fill="#000000">Legend</text>
<polygon fill="#ffffb3" stroke="transparent" points="406,-10 406,-30 426,-30 426,-10 406,-10"/>
<text text-anchor="start" x="429.629" y="-15.4" font-family="sans-serif" font-size="14.00" fill="#000000"> &#160;Declarations</text>
<polygon fill="#8dd3c7" stroke="transparent" points="519,-10 519,-30 539,-30 539,-10 519,-10"/>
<text text-anchor="start" x="542.7251" y="-15.4" font-family="sans-serif" font-size="14.00" fill="#000000"> &#160;Module</text>
<polygon fill="#80b1d3" stroke="transparent" points="605,-10 605,-30 625,-30 625,-10 605,-10"/>
<text text-anchor="start" x="628.7812" y="-15.4" font-family="sans-serif" font-size="14.00" fill="#000000"> &#160;Bootstrap</text>
<polygon fill="#fdb462" stroke="transparent" points="702,-10 702,-30 722,-30 722,-10 702,-10"/>
<text text-anchor="start" x="725.6732" y="-15.4" font-family="sans-serif" font-size="14.00" fill="#000000"> &#160;Providers</text>
<polygon fill="#fb8072" stroke="transparent" points="798,-10 798,-30 818,-30 818,-10 798,-10"/>
<text text-anchor="start" x="821.7258" y="-15.4" font-family="sans-serif" font-size="14.00" fill="#000000"> &#160;Exports</text>
<g id="clust1" class="cluster">
<title>cluster_SharedModule</title>
<polygon fill="none" stroke="#000000" stroke-dasharray="1,5" points="8,-70 8,-333 1272,-333 1272,-70 8,-70"/>
</g>
<g id="clust2" class="cluster">
<title>cluster_SharedModule_declarations</title>
<polygon fill="none" stroke="#000000" points="629,-143 629,-195 1264,-195 1264,-143 629,-143"/>
</g>
<g id="clust6" class="cluster">
<title>cluster_SharedModule_DropdownTreeviewSelectComponent_providers</title>
<polygon fill="none" stroke="#000000" points="466,-78 466,-130 1036,-130 1036,-78 466,-78"/>
</g>
<g id="clust7" class="cluster">
<title>cluster_SharedModule_imports</title>
<polygon fill="none" stroke="#000000" points="16,-143 16,-195 621,-195 621,-143 16,-143"/>
</g>
<g id="clust8" class="cluster">
<title>cluster_SharedModule_exports</title>
<polygon fill="none" stroke="#000000" points="201,-273 201,-325 851,-325 851,-273 201,-273"/>
</g>
<!-- ItemListComponent -->
<g id="node1" class="node">
<title>ItemListComponent</title>
<polygon fill="#ffffb3" stroke="#000000" points="1256.2674,-187 1127.7326,-187 1127.7326,-151 1256.2674,-151 1256.2674,-187"/>
<text text-anchor="middle" x="1192" y="-164.8" font-family="Times,serif" font-size="14.00" fill="#000000">ItemListComponent</text>
</g>
<!-- SharedModule -->
<g id="node5" class="node">
<title>SharedModule</title>
<polygon fill="#8dd3c7" stroke="#000000" points="606.4231,-252 603.4231,-256 582.4231,-256 579.4231,-252 507.5769,-252 507.5769,-216 606.4231,-216 606.4231,-252"/>
<text text-anchor="middle" x="557" y="-229.8" font-family="Times,serif" font-size="14.00" fill="#000000">SharedModule</text>
</g>
<!-- ItemListComponent&#45;&gt;SharedModule -->
<g id="edge1" class="edge">
<title>ItemListComponent&#45;&gt;SharedModule</title>
<path fill="none" stroke="#000000" d="M1192,-187.2843C1192,-208.3211 1192,-240 1192,-240 1192,-240 616.299,-240 616.299,-240"/>
<polygon fill="#000000" stroke="#000000" points="616.299,-236.5001 606.299,-240 616.299,-243.5001 616.299,-236.5001"/>
</g>
<!-- SearchBoxComponent -->
<g id="node2" class="node">
<title>SearchBoxComponent</title>
<polygon fill="#ffffb3" stroke="#000000" points="1109.2562,-187 966.7438,-187 966.7438,-151 1109.2562,-151 1109.2562,-187"/>
<text text-anchor="middle" x="1038" y="-164.8" font-family="Times,serif" font-size="14.00" fill="#000000">SearchBoxComponent</text>
</g>
<!-- SearchBoxComponent&#45;&gt;SharedModule -->
<g id="edge2" class="edge">
<title>SearchBoxComponent&#45;&gt;SharedModule</title>
<path fill="none" stroke="#000000" d="M1038,-187.1061C1038,-206.3391 1038,-234 1038,-234 1038,-234 616.215,-234 616.215,-234"/>
<polygon fill="#000000" stroke="#000000" points="616.215,-230.5001 606.215,-234 616.215,-237.5001 616.215,-230.5001"/>
</g>
<!-- SafePipe -->
<g id="node3" class="node">
<title>SafePipe</title>
<polygon fill="#ffffb3" stroke="#000000" points="948.7606,-187 883.2394,-187 883.2394,-151 948.7606,-151 948.7606,-187"/>
<text text-anchor="middle" x="916" y="-164.8" font-family="Times,serif" font-size="14.00" fill="#000000">SafePipe</text>
</g>
<!-- SafePipe&#45;&gt;SharedModule -->
<g id="edge3" class="edge">
<title>SafePipe&#45;&gt;SharedModule</title>
<path fill="none" stroke="#000000" d="M916,-187.0225C916,-204.3734 916,-228 916,-228 916,-228 616.5405,-228 616.5405,-228"/>
<polygon fill="#000000" stroke="#000000" points="616.5405,-224.5001 606.5405,-228 616.5405,-231.5001 616.5405,-224.5001"/>
</g>
<!-- DropdownTreeviewSelectComponent -->
<g id="node4" class="node">
<title>DropdownTreeviewSelectComponent</title>
<polygon fill="#ffffb3" stroke="#000000" points="865.2682,-187 636.7318,-187 636.7318,-151 865.2682,-151 865.2682,-187"/>
<text text-anchor="middle" x="751" y="-164.8" font-family="Times,serif" font-size="14.00" fill="#000000">DropdownTreeviewSelectComponent</text>
</g>
<!-- DropdownTreeviewSelectComponent&#45;&gt;SharedModule -->
<g id="edge4" class="edge">
<title>DropdownTreeviewSelectComponent&#45;&gt;SharedModule</title>
<path fill="none" stroke="#000000" d="M664.997,-187.2396C664.997,-202.5706 664.997,-222 664.997,-222 664.997,-222 616.258,-222 616.258,-222"/>
<polygon fill="#000000" stroke="#000000" points="616.258,-218.5001 606.258,-222 616.2579,-225.5001 616.258,-218.5001"/>
</g>
<!-- ItemListComponent  -->
<g id="node12" class="node">
<title>ItemListComponent </title>
<polygon fill="#fb8072" stroke="#000000" points="843.2675,-317 710.7325,-317 710.7325,-281 843.2675,-281 843.2675,-317"/>
<text text-anchor="middle" x="777" y="-294.8" font-family="Times,serif" font-size="14.00" fill="#000000">ItemListComponent </text>
</g>
<!-- SharedModule&#45;&gt;ItemListComponent  -->
<g id="edge11" class="edge">
<title>SharedModule&#45;&gt;ItemListComponent </title>
<path fill="none" stroke="#000000" stroke-dasharray="5,2" d="M606.3723,-246C671.2356,-246 777,-246 777,-246 777,-246 777,-270.7604 777,-270.7604"/>
<polygon fill="#000000" stroke="#000000" points="773.5001,-270.7604 777,-280.7604 780.5001,-270.7604 773.5001,-270.7604"/>
</g>
<!-- SearchBoxComponent  -->
<g id="node13" class="node">
<title>SearchBoxComponent </title>
<polygon fill="#fb8072" stroke="#000000" points="693.2562,-317 546.7438,-317 546.7438,-281 693.2562,-281 693.2562,-317"/>
<text text-anchor="middle" x="620" y="-294.8" font-family="Times,serif" font-size="14.00" fill="#000000">SearchBoxComponent </text>
</g>
<!-- SharedModule&#45;&gt;SearchBoxComponent  -->
<g id="edge12" class="edge">
<title>SharedModule&#45;&gt;SearchBoxComponent </title>
<path fill="none" stroke="#000000" stroke-dasharray="5,2" d="M576.5416,-252.1061C576.5416,-252.1061 576.5416,-270.991 576.5416,-270.991"/>
<polygon fill="#000000" stroke="#000000" points="573.0416,-270.9909 576.5416,-280.991 580.0416,-270.991 573.0416,-270.9909"/>
</g>
<!-- SafePipe  -->
<g id="node14" class="node">
<title>SafePipe </title>
<polygon fill="#fb8072" stroke="#000000" points="528.7607,-317 459.2393,-317 459.2393,-281 528.7607,-281 528.7607,-317"/>
<text text-anchor="middle" x="494" y="-294.8" font-family="Times,serif" font-size="14.00" fill="#000000">SafePipe </text>
</g>
<!-- SharedModule&#45;&gt;SafePipe  -->
<g id="edge13" class="edge">
<title>SharedModule&#45;&gt;SafePipe </title>
<path fill="none" stroke="#000000" stroke-dasharray="5,2" d="M518.2095,-252.1061C518.2095,-252.1061 518.2095,-270.991 518.2095,-270.991"/>
<polygon fill="#000000" stroke="#000000" points="514.7096,-270.9909 518.2095,-280.991 521.7096,-270.991 514.7096,-270.9909"/>
</g>
<!-- DropdownTreeviewSelectComponent  -->
<g id="node15" class="node">
<title>DropdownTreeviewSelectComponent </title>
<polygon fill="#fb8072" stroke="#000000" points="440.7681,-317 209.2319,-317 209.2319,-281 440.7681,-281 440.7681,-317"/>
<text text-anchor="middle" x="325" y="-294.8" font-family="Times,serif" font-size="14.00" fill="#000000">DropdownTreeviewSelectComponent </text>
</g>
<!-- SharedModule&#45;&gt;DropdownTreeviewSelectComponent  -->
<g id="edge14" class="edge">
<title>SharedModule&#45;&gt;DropdownTreeviewSelectComponent </title>
<path fill="none" stroke="#000000" stroke-dasharray="5,2" d="M507.4189,-246C465.3407,-246 411.7485,-246 411.7485,-246 411.7485,-246 411.7485,-270.7604 411.7485,-270.7604"/>
<polygon fill="#000000" stroke="#000000" points="408.2485,-270.7604 411.7485,-280.7604 415.2485,-270.7604 408.2485,-270.7604"/>
</g>
<!-- { provide: TreeviewI18n, useClass: DropdownTreeviewSelectI18n } -->
<g id="node6" class="node">
<title>{ provide: TreeviewI18n, useClass: DropdownTreeviewSelectI18n }</title>
<ellipse fill="#fdb462" stroke="#000000" cx="751" cy="-104" rx="276.8229" ry="18"/>
<text text-anchor="middle" x="751" y="-99.8" font-family="Times,serif" font-size="14.00" fill="#000000">{ provide: TreeviewI18n, useClass: DropdownTreeviewSelectI18n }</text>
</g>
<!-- { provide: TreeviewI18n, useClass: DropdownTreeviewSelectI18n }&#45;&gt;DropdownTreeviewSelectComponent -->
<g id="edge5" class="edge">
<title>{ provide: TreeviewI18n, useClass: DropdownTreeviewSelectI18n }&#45;&gt;DropdownTreeviewSelectComponent</title>
<path fill="none" stroke="#000000" d="M751,-122.1061C751,-122.1061 751,-140.991 751,-140.991"/>
<polygon fill="#000000" stroke="#000000" points="747.5001,-140.9909 751,-150.991 754.5001,-140.991 747.5001,-140.9909"/>
</g>
<!-- CommonModule -->
<g id="node7" class="node">
<title>CommonModule</title>
<polygon fill="#8dd3c7" stroke="#000000" points="612.6681,-187 609.6681,-191 588.6681,-191 585.6681,-187 501.3319,-187 501.3319,-151 612.6681,-151 612.6681,-187"/>
<text text-anchor="middle" x="557" y="-164.8" font-family="Times,serif" font-size="14.00" fill="#000000">CommonModule</text>
</g>
<!-- CommonModule&#45;&gt;SharedModule -->
<g id="edge6" class="edge">
<title>CommonModule&#45;&gt;SharedModule</title>
<path fill="none" stroke="#000000" d="M557,-187.1061C557,-187.1061 557,-205.991 557,-205.991"/>
<polygon fill="#000000" stroke="#000000" points="553.5001,-205.9909 557,-215.991 560.5001,-205.991 553.5001,-205.9909"/>
</g>
<!-- TooltipModule -->
<g id="node8" class="node">
<title>TooltipModule</title>
<polygon fill="#8dd3c7" stroke="#000000" points="483.2745,-187 480.2745,-191 459.2745,-191 456.2745,-187 382.7255,-187 382.7255,-151 483.2745,-151 483.2745,-187"/>
<text text-anchor="middle" x="433" y="-164.8" font-family="Times,serif" font-size="14.00" fill="#000000">TooltipModule</text>
</g>
<!-- TooltipModule&#45;&gt;SharedModule -->
<g id="edge7" class="edge">
<title>TooltipModule&#45;&gt;SharedModule</title>
<path fill="none" stroke="#000000" d="M471.3785,-187.2396C471.3785,-202.5706 471.3785,-222 471.3785,-222 471.3785,-222 497.6897,-222 497.6897,-222"/>
<polygon fill="#000000" stroke="#000000" points="497.6898,-225.5001 507.6897,-222 497.6897,-218.5001 497.6898,-225.5001"/>
</g>
<!-- FormsModule -->
<g id="node9" class="node">
<title>FormsModule</title>
<polygon fill="#8dd3c7" stroke="#000000" points="364.8288,-187 361.8288,-191 340.8288,-191 337.8288,-187 269.1712,-187 269.1712,-151 364.8288,-151 364.8288,-187"/>
<text text-anchor="middle" x="317" y="-164.8" font-family="Times,serif" font-size="14.00" fill="#000000">FormsModule</text>
</g>
<!-- FormsModule&#45;&gt;SharedModule -->
<g id="edge8" class="edge">
<title>FormsModule&#45;&gt;SharedModule</title>
<path fill="none" stroke="#000000" d="M317,-187.0225C317,-204.3734 317,-228 317,-228 317,-228 497.5628,-228 497.5628,-228"/>
<polygon fill="#000000" stroke="#000000" points="497.5629,-231.5001 507.5628,-228 497.5628,-224.5001 497.5629,-231.5001"/>
</g>
<!-- RouterModule -->
<g id="node10" class="node">
<title>RouterModule</title>
<polygon fill="#8dd3c7" stroke="#000000" points="251.6528,-187 248.6528,-191 227.6528,-191 224.6528,-187 154.3472,-187 154.3472,-151 251.6528,-151 251.6528,-187"/>
<text text-anchor="middle" x="203" y="-164.8" font-family="Times,serif" font-size="14.00" fill="#000000">RouterModule</text>
</g>
<!-- RouterModule&#45;&gt;SharedModule -->
<g id="edge9" class="edge">
<title>RouterModule&#45;&gt;SharedModule</title>
<path fill="none" stroke="#000000" d="M230.4711,-187.1061C230.4711,-206.3391 230.4711,-234 230.4711,-234 230.4711,-234 497.7618,-234 497.7618,-234"/>
<polygon fill="#000000" stroke="#000000" points="497.7618,-237.5001 507.7618,-234 497.7617,-230.5001 497.7618,-237.5001"/>
</g>
<!-- TreeviewModule -->
<g id="node11" class="node">
<title>TreeviewModule</title>
<polygon fill="#8dd3c7" stroke="#000000" points="136.4047,-187 133.4047,-191 112.4047,-191 109.4047,-187 23.5953,-187 23.5953,-151 136.4047,-151 136.4047,-187"/>
<text text-anchor="middle" x="80" y="-164.8" font-family="Times,serif" font-size="14.00" fill="#000000">TreeviewModule</text>
</g>
<!-- TreeviewModule&#45;&gt;SharedModule -->
<g id="edge10" class="edge">
<title>TreeviewModule&#45;&gt;SharedModule</title>
<path fill="none" stroke="#000000" d="M80,-187.2843C80,-208.3211 80,-240 80,-240 80,-240 497.7492,-240 497.7492,-240"/>
<polygon fill="#000000" stroke="#000000" points="497.7493,-243.5001 507.7492,-240 497.7492,-236.5001 497.7493,-243.5001"/>
</g>
</g>
</svg>
