<?xml version="1.0" encoding="UTF-8" standalone="no"?>
<!DOCTYPE svg PUBLIC "-//W3C//DTD SVG 1.1//EN"
 "http://www.w3.org/Graphics/SVG/1.1/DTD/svg11.dtd">
<!-- Generated by graphviz version 2.40.1 (20161225.0304)
 -->
<!-- Title: dependencies Pages: 1 -->
<svg width="1038pt" height="211pt"
 viewBox="0.00 0.00 1038.00 211.00" xmlns="http://www.w3.org/2000/svg" xmlns:xlink="http://www.w3.org/1999/xlink">
<g id="graph0" class="graph" transform="scale(1 1) rotate(0) translate(4 207)">
<title>dependencies</title>
<polygon fill="#ffffff" stroke="transparent" points="-4,4 -4,-207 1034,-207 1034,4 -4,4"/>
<text text-anchor="start" x="494.0091" y="-42.4" font-family="sans-serif" font-weight="bold" font-size="14.00" fill="#000000">Legend</text>
<polygon fill="#ffffb3" stroke="transparent" points="281,-10 281,-30 301,-30 301,-10 281,-10"/>
<text text-anchor="start" x="304.629" y="-15.4" font-family="sans-serif" font-size="14.00" fill="#000000"> &#160;Declarations</text>
<polygon fill="#8dd3c7" stroke="transparent" points="394,-10 394,-30 414,-30 414,-10 394,-10"/>
<text text-anchor="start" x="417.7251" y="-15.4" font-family="sans-serif" font-size="14.00" fill="#000000"> &#160;Module</text>
<polygon fill="#80b1d3" stroke="transparent" points="480,-10 480,-30 500,-30 500,-10 480,-10"/>
<text text-anchor="start" x="503.7812" y="-15.4" font-family="sans-serif" font-size="14.00" fill="#000000"> &#160;Bootstrap</text>
<polygon fill="#fdb462" stroke="transparent" points="577,-10 577,-30 597,-30 597,-10 577,-10"/>
<text text-anchor="start" x="600.6732" y="-15.4" font-family="sans-serif" font-size="14.00" fill="#000000"> &#160;Providers</text>
<polygon fill="#fb8072" stroke="transparent" points="673,-10 673,-30 693,-30 693,-10 673,-10"/>
<text text-anchor="start" x="696.7258" y="-15.4" font-family="sans-serif" font-size="14.00" fill="#000000"> &#160;Exports</text>
<g id="clust1" class="cluster">
<title>cluster_UsersManagementModule</title>
<polygon fill="none" stroke="#000000" stroke-dasharray="1,5" points="8,-70 8,-195 1022,-195 1022,-70 8,-70"/>
</g>
<g id="clust2" class="cluster">
<title>cluster_UsersManagementModule_declarations</title>
<polygon fill="none" stroke="#000000" points="336,-78 336,-130 1014,-130 1014,-78 336,-78"/>
</g>
<g id="clust7" class="cluster">
<title>cluster_UsersManagementModule_imports</title>
<polygon fill="none" stroke="#000000" points="16,-78 16,-130 328,-130 328,-78 16,-78"/>
</g>
<!-- GroupByPipe -->
<g id="node1" class="node">
<title>GroupByPipe</title>
<polygon fill="#ffffb3" stroke="#000000" points="1006.4916,-122 913.5084,-122 913.5084,-86 1006.4916,-86 1006.4916,-122"/>
<text text-anchor="middle" x="960" y="-99.8" font-family="Times,serif" font-size="14.00" fill="#000000">GroupByPipe</text>
</g>
<!-- UsersManagementModule -->
<g id="node5" class="node">
<title>UsersManagementModule</title>
<polygon fill="#8dd3c7" stroke="#000000" points="621.0057,-187 618.0057,-191 597.0057,-191 594.0057,-187 456.9943,-187 456.9943,-151 621.0057,-151 621.0057,-187"/>
<text text-anchor="middle" x="539" y="-164.8" font-family="Times,serif" font-size="14.00" fill="#000000">UsersManagementModule</text>
</g>
<!-- GroupByPipe&#45;&gt;UsersManagementModule -->
<g id="edge1" class="edge">
<title>GroupByPipe&#45;&gt;UsersManagementModule</title>
<path fill="none" stroke="#000000" d="M960,-122.2843C960,-143.3211 960,-175 960,-175 960,-175 631.1725,-175 631.1725,-175"/>
<polygon fill="#000000" stroke="#000000" points="631.1725,-171.5001 621.1725,-175 631.1724,-178.5001 631.1725,-171.5001"/>
</g>
<!-- RoleEditorComponent -->
<g id="node2" class="node">
<title>RoleEditorComponent</title>
<polygon fill="#ffffb3" stroke="#000000" points="895.2688,-122 752.7312,-122 752.7312,-86 895.2688,-86 895.2688,-122"/>
<text text-anchor="middle" x="824" y="-99.8" font-family="Times,serif" font-size="14.00" fill="#000000">RoleEditorComponent</text>
</g>
<!-- RoleEditorComponent&#45;&gt;UsersManagementModule -->
<g id="edge2" class="edge">
<title>RoleEditorComponent&#45;&gt;UsersManagementModule</title>
<path fill="none" stroke="#000000" d="M824,-122.0225C824,-139.3734 824,-163 824,-163 824,-163 631.0514,-163 631.0514,-163"/>
<polygon fill="#000000" stroke="#000000" points="631.0515,-159.5001 621.0514,-163 631.0514,-166.5001 631.0515,-159.5001"/>
</g>
<!-- RolesManagementComponent -->
<g id="node3" class="node">
<title>RolesManagementComponent</title>
<polygon fill="#ffffb3" stroke="#000000" points="734.3032,-122 547.6968,-122 547.6968,-86 734.3032,-86 734.3032,-122"/>
<text text-anchor="middle" x="641" y="-99.8" font-family="Times,serif" font-size="14.00" fill="#000000">RolesManagementComponent</text>
</g>
<!-- RolesManagementComponent&#45;&gt;UsersManagementModule -->
<g id="edge3" class="edge">
<title>RolesManagementComponent&#45;&gt;UsersManagementModule</title>
<path fill="none" stroke="#000000" d="M584.5505,-122.1061C584.5505,-122.1061 584.5505,-140.991 584.5505,-140.991"/>
<polygon fill="#000000" stroke="#000000" points="581.0506,-140.9909 584.5505,-150.991 588.0506,-140.991 581.0506,-140.9909"/>
</g>
<!-- UsersManagementComponent -->
<g id="node4" class="node">
<title>UsersManagementComponent</title>
<polygon fill="#ffffb3" stroke="#000000" points="530.2878,-122 343.7122,-122 343.7122,-86 530.2878,-86 530.2878,-122"/>
<text text-anchor="middle" x="437" y="-99.8" font-family="Times,serif" font-size="14.00" fill="#000000">UsersManagementComponent</text>
</g>
<!-- UsersManagementComponent&#45;&gt;UsersManagementModule -->
<g id="edge4" class="edge">
<title>UsersManagementComponent&#45;&gt;UsersManagementModule</title>
<path fill="none" stroke="#000000" d="M493.4457,-122.1061C493.4457,-122.1061 493.4457,-140.991 493.4457,-140.991"/>
<polygon fill="#000000" stroke="#000000" points="489.9457,-140.9909 493.4457,-150.991 496.9457,-140.991 489.9457,-140.9909"/>
</g>
<!-- AccountManagementModule -->
<g id="node6" class="node">
<title>AccountManagementModule</title>
<polygon fill="#8dd3c7" stroke="#000000" points="320.0604,-122 317.0604,-126 296.0604,-126 293.0604,-122 139.9396,-122 139.9396,-86 320.0604,-86 320.0604,-122"/>
<text text-anchor="middle" x="230" y="-99.8" font-family="Times,serif" font-size="14.00" fill="#000000">AccountManagementModule</text>
</g>
<!-- AccountManagementModule&#45;&gt;UsersManagementModule -->
<g id="edge5" class="edge">
<title>AccountManagementModule&#45;&gt;UsersManagementModule</title>
<path fill="none" stroke="#000000" d="M230,-122.0225C230,-139.3734 230,-163 230,-163 230,-163 446.5996,-163 446.5996,-163"/>
<polygon fill="#000000" stroke="#000000" points="446.5996,-166.5001 456.5996,-163 446.5995,-159.5001 446.5996,-166.5001"/>
</g>
<!-- SharedModule -->
<g id="node7" class="node">
<title>SharedModule</title>
<polygon fill="#8dd3c7" stroke="#000000" points="122.4231,-122 119.4231,-126 98.4231,-126 95.4231,-122 23.5769,-122 23.5769,-86 122.4231,-86 122.4231,-122"/>
<text text-anchor="middle" x="73" y="-99.8" font-family="Times,serif" font-size="14.00" fill="#000000">SharedModule</text>
</g>
<!-- SharedModule&#45;&gt;UsersManagementModule -->
<g id="edge6" class="edge">
<title>SharedModule&#45;&gt;UsersManagementModule</title>
<path fill="none" stroke="#000000" d="M73,-122.2843C73,-143.3211 73,-175 73,-175 73,-175 446.7612,-175 446.7612,-175"/>
<polygon fill="#000000" stroke="#000000" points="446.7613,-178.5001 456.7612,-175 446.7612,-171.5001 446.7613,-178.5001"/>
</g>
</g>
</svg>
