<?xml version="1.0" encoding="UTF-8" standalone="no"?>
<!DOCTYPE svg PUBLIC "-//W3C//DTD SVG 1.1//EN"
 "http://www.w3.org/Graphics/SVG/1.1/DTD/svg11.dtd">
<!-- Generated by graphviz version 2.40.1 (20161225.0304)
 -->
<!-- Title: dependencies Pages: 1 -->
<svg width="2338pt" height="211pt"
 viewBox="0.00 0.00 2338.00 211.00" xmlns="http://www.w3.org/2000/svg" xmlns:xlink="http://www.w3.org/1999/xlink">
<g id="graph0" class="graph" transform="scale(1 1) rotate(0) translate(4 207)">
<title>dependencies</title>
<polygon fill="#ffffff" stroke="transparent" points="-4,4 -4,-207 2334,-207 2334,4 -4,4"/>
<text text-anchor="start" x="1144.0091" y="-42.4" font-family="sans-serif" font-weight="bold" font-size="14.00" fill="#000000">Legend</text>
<polygon fill="#ffffb3" stroke="transparent" points="931,-10 931,-30 951,-30 951,-10 931,-10"/>
<text text-anchor="start" x="954.629" y="-15.4" font-family="sans-serif" font-size="14.00" fill="#000000"> &#160;Declarations</text>
<polygon fill="#8dd3c7" stroke="transparent" points="1044,-10 1044,-30 1064,-30 1064,-10 1044,-10"/>
<text text-anchor="start" x="1067.7251" y="-15.4" font-family="sans-serif" font-size="14.00" fill="#000000"> &#160;Module</text>
<polygon fill="#80b1d3" stroke="transparent" points="1130,-10 1130,-30 1150,-30 1150,-10 1130,-10"/>
<text text-anchor="start" x="1153.7812" y="-15.4" font-family="sans-serif" font-size="14.00" fill="#000000"> &#160;Bootstrap</text>
<polygon fill="#fdb462" stroke="transparent" points="1227,-10 1227,-30 1247,-30 1247,-10 1227,-10"/>
<text text-anchor="start" x="1250.6732" y="-15.4" font-family="sans-serif" font-size="14.00" fill="#000000"> &#160;Providers</text>
<polygon fill="#fb8072" stroke="transparent" points="1323,-10 1323,-30 1343,-30 1343,-10 1323,-10"/>
<text text-anchor="start" x="1346.7258" y="-15.4" font-family="sans-serif" font-size="14.00" fill="#000000"> &#160;Exports</text>
<g id="clust1" class="cluster">
<title>cluster_LayoutModule</title>
<polygon fill="none" stroke="#000000" stroke-dasharray="1,5" points="8,-70 8,-195 2322,-195 2322,-70 8,-70"/>
</g>
<g id="clust2" class="cluster">
<title>cluster_LayoutModule_declarations</title>
<polygon fill="none" stroke="#000000" points="1304,-78 1304,-130 2314,-130 2314,-78 1304,-78"/>
</g>
<g id="clust10" class="cluster">
<title>cluster_LayoutModule_imports</title>
<polygon fill="none" stroke="#000000" points="16,-78 16,-130 1296,-130 1296,-78 16,-78"/>
</g>
<!-- LayoutComponent -->
<g id="node1" class="node">
<title>LayoutComponent</title>
<polygon fill="#ffffb3" stroke="#000000" points="2306.4902,-122 2185.5098,-122 2185.5098,-86 2306.4902,-86 2306.4902,-122"/>
<text text-anchor="middle" x="2246" y="-99.8" font-family="Times,serif" font-size="14.00" fill="#000000">LayoutComponent</text>
</g>
<!-- LayoutModule -->
<g id="node8" class="node">
<title>LayoutModule</title>
<polygon fill="#8dd3c7" stroke="#000000" points="1281.7078,-187 1278.7078,-191 1257.7078,-191 1254.7078,-187 1182.2922,-187 1182.2922,-151 1281.7078,-151 1281.7078,-187"/>
<text text-anchor="middle" x="1232" y="-164.8" font-family="Times,serif" font-size="14.00" fill="#000000">LayoutModule</text>
</g>
<!-- LayoutComponent&#45;&gt;LayoutModule -->
<g id="edge1" class="edge">
<title>LayoutComponent&#45;&gt;LayoutModule</title>
<path fill="none" stroke="#000000" d="M2246,-122.3228C2246,-145.6602 2246,-183 2246,-183 2246,-183 1291.9386,-183 1291.9386,-183"/>
<polygon fill="#000000" stroke="#000000" points="1291.9386,-179.5001 1281.9386,-183 1291.9385,-186.5001 1291.9386,-179.5001"/>
</g>
<!-- SidebarComponent -->
<g id="node2" class="node">
<title>SidebarComponent</title>
<polygon fill="#ffffb3" stroke="#000000" points="2167.0954,-122 2042.9046,-122 2042.9046,-86 2167.0954,-86 2167.0954,-122"/>
<text text-anchor="middle" x="2105" y="-99.8" font-family="Times,serif" font-size="14.00" fill="#000000">SidebarComponent</text>
</g>
<!-- SidebarComponent&#45;&gt;LayoutModule -->
<g id="edge2" class="edge">
<title>SidebarComponent&#45;&gt;LayoutModule</title>
<path fill="none" stroke="#000000" d="M2105,-122.2921C2105,-144.2057 2105,-178 2105,-178 2105,-178 1291.7543,-178 1291.7543,-178"/>
<polygon fill="#000000" stroke="#000000" points="1291.7543,-174.5001 1281.7543,-178 1291.7542,-181.5001 1291.7543,-174.5001"/>
</g>
<!-- NavbarComponent -->
<g id="node3" class="node">
<title>NavbarComponent</title>
<polygon fill="#ffffb3" stroke="#000000" points="2025.0297,-122 1902.9703,-122 1902.9703,-86 2025.0297,-86 2025.0297,-122"/>
<text text-anchor="middle" x="1964" y="-99.8" font-family="Times,serif" font-size="14.00" fill="#000000">NavbarComponent</text>
</g>
<!-- NavbarComponent&#45;&gt;LayoutModule -->
<g id="edge3" class="edge">
<title>NavbarComponent&#45;&gt;LayoutModule</title>
<path fill="none" stroke="#000000" d="M1964,-122.0267C1964,-142.7672 1964,-174 1964,-174 1964,-174 1291.7378,-174 1291.7378,-174"/>
<polygon fill="#000000" stroke="#000000" points="1291.7379,-170.5001 1281.7378,-174 1291.7378,-177.5001 1291.7379,-170.5001"/>
</g>
<!-- ChatSidebarComponent -->
<g id="node4" class="node">
<title>ChatSidebarComponent</title>
<polygon fill="#ffffb3" stroke="#000000" points="1884.0379,-122 1733.9621,-122 1733.9621,-86 1884.0379,-86 1884.0379,-122"/>
<text text-anchor="middle" x="1809" y="-99.8" font-family="Times,serif" font-size="14.00" fill="#000000">ChatSidebarComponent</text>
</g>
<!-- ChatSidebarComponent&#45;&gt;LayoutModule -->
<g id="edge4" class="edge">
<title>ChatSidebarComponent&#45;&gt;LayoutModule</title>
<path fill="none" stroke="#000000" d="M1809,-122.1061C1809,-141.3391 1809,-169 1809,-169 1809,-169 1291.6941,-169 1291.6941,-169"/>
<polygon fill="#000000" stroke="#000000" points="1291.6941,-165.5001 1281.6941,-169 1291.6941,-172.5001 1291.6941,-165.5001"/>
</g>
<!-- SearchPipe -->
<g id="node5" class="node">
<title>SearchPipe</title>
<polygon fill="#ffffb3" stroke="#000000" points="1715.4748,-122 1636.5252,-122 1636.5252,-86 1715.4748,-86 1715.4748,-122"/>
<text text-anchor="middle" x="1676" y="-99.8" font-family="Times,serif" font-size="14.00" fill="#000000">SearchPipe</text>
</g>
<!-- SearchPipe&#45;&gt;LayoutModule -->
<g id="edge5" class="edge">
<title>SearchPipe&#45;&gt;LayoutModule</title>
<path fill="none" stroke="#000000" d="M1676,-122.302C1676,-140.2699 1676,-165 1676,-165 1676,-165 1291.64,-165 1291.64,-165"/>
<polygon fill="#000000" stroke="#000000" points="1291.6401,-161.5001 1281.64,-165 1291.64,-168.5001 1291.6401,-161.5001"/>
</g>
<!-- ChatMessageComponent -->
<g id="node6" class="node">
<title>ChatMessageComponent</title>
<polygon fill="#ffffb3" stroke="#000000" points="1618.252,-122 1461.748,-122 1461.748,-86 1618.252,-86 1618.252,-122"/>
<text text-anchor="middle" x="1540" y="-99.8" font-family="Times,serif" font-size="14.00" fill="#000000">ChatMessageComponent</text>
</g>
<!-- ChatMessageComponent&#45;&gt;LayoutModule -->
<g id="edge6" class="edge">
<title>ChatMessageComponent&#45;&gt;LayoutModule</title>
<path fill="none" stroke="#000000" d="M1540,-122.027C1540,-138.3976 1540,-160 1540,-160 1540,-160 1291.8278,-160 1291.8278,-160"/>
<polygon fill="#000000" stroke="#000000" points="1291.8279,-156.5001 1281.8278,-160 1291.8278,-163.5001 1291.8279,-156.5001"/>
</g>
<!-- ChatAppComponent -->
<g id="node7" class="node">
<title>ChatAppComponent</title>
<polygon fill="#ffffb3" stroke="#000000" points="1443.8809,-122 1312.1191,-122 1312.1191,-86 1443.8809,-86 1443.8809,-122"/>
<text text-anchor="middle" x="1378" y="-99.8" font-family="Times,serif" font-size="14.00" fill="#000000">ChatAppComponent</text>
</g>
<!-- ChatAppComponent&#45;&gt;LayoutModule -->
<g id="edge7" class="edge">
<title>ChatAppComponent&#45;&gt;LayoutModule</title>
<path fill="none" stroke="#000000" d="M1378,-122.1871C1378,-137.1824 1378,-156 1378,-156 1378,-156 1291.8366,-156 1291.8366,-156"/>
<polygon fill="#000000" stroke="#000000" points="1291.8366,-152.5001 1281.8366,-156 1291.8365,-159.5001 1291.8366,-152.5001"/>
</g>
<!-- CommonModule -->
<g id="node9" class="node">
<title>CommonModule</title>
<polygon fill="#8dd3c7" stroke="#000000" points="1287.6681,-122 1284.6681,-126 1263.6681,-126 1260.6681,-122 1176.3319,-122 1176.3319,-86 1287.6681,-86 1287.6681,-122"/>
<text text-anchor="middle" x="1232" y="-99.8" font-family="Times,serif" font-size="14.00" fill="#000000">CommonModule</text>
</g>
<!-- CommonModule&#45;&gt;LayoutModule -->
<g id="edge8" class="edge">
<title>CommonModule&#45;&gt;LayoutModule</title>
<path fill="none" stroke="#000000" d="M1232,-122.1061C1232,-122.1061 1232,-140.991 1232,-140.991"/>
<polygon fill="#000000" stroke="#000000" points="1228.5001,-140.9909 1232,-150.991 1235.5001,-140.991 1228.5001,-140.9909"/>
</g>
<!-- TooltipModule.forRoot() -->
<g id="node10" class="node">
<title>TooltipModule.forRoot()</title>
<polygon fill="#8dd3c7" stroke="#000000" points="1158.6439,-122 1155.6439,-126 1134.6439,-126 1131.6439,-122 1001.3561,-122 1001.3561,-86 1158.6439,-86 1158.6439,-122"/>
<text text-anchor="middle" x="1080" y="-99.8" font-family="Times,serif" font-size="14.00" fill="#000000">TooltipModule.forRoot()</text>
</g>
<!-- TooltipModule.forRoot()&#45;&gt;LayoutModule -->
<g id="edge9" class="edge">
<title>TooltipModule.forRoot()&#45;&gt;LayoutModule</title>
<path fill="none" stroke="#000000" d="M1080,-122.1871C1080,-137.1824 1080,-156 1080,-156 1080,-156 1172.2295,-156 1172.2295,-156"/>
<polygon fill="#000000" stroke="#000000" points="1172.2296,-159.5001 1182.2295,-156 1172.2295,-152.5001 1172.2296,-159.5001"/>
</g>
<!-- BsDropdownModule.forRoot() -->
<g id="node11" class="node">
<title>BsDropdownModule.forRoot()</title>
<polygon fill="#8dd3c7" stroke="#000000" points="983.0749,-122 980.0749,-126 959.0749,-126 956.0749,-122 792.9251,-122 792.9251,-86 983.0749,-86 983.0749,-122"/>
<text text-anchor="middle" x="888" y="-99.8" font-family="Times,serif" font-size="14.00" fill="#000000">BsDropdownModule.forRoot()</text>
</g>
<!-- BsDropdownModule.forRoot()&#45;&gt;LayoutModule -->
<g id="edge10" class="edge">
<title>BsDropdownModule.forRoot()&#45;&gt;LayoutModule</title>
<path fill="none" stroke="#000000" d="M888,-122.027C888,-138.3976 888,-160 888,-160 888,-160 1172.3468,-160 1172.3468,-160"/>
<polygon fill="#000000" stroke="#000000" points="1172.3469,-163.5001 1182.3468,-160 1172.3468,-156.5001 1172.3469,-163.5001"/>
</g>
<!-- ModalModule.forRoot() -->
<g id="node12" class="node">
<title>ModalModule.forRoot()</title>
<polygon fill="#8dd3c7" stroke="#000000" points="774.4699,-122 771.4699,-126 750.4699,-126 747.4699,-122 621.5301,-122 621.5301,-86 774.4699,-86 774.4699,-122"/>
<text text-anchor="middle" x="698" y="-99.8" font-family="Times,serif" font-size="14.00" fill="#000000">ModalModule.forRoot()</text>
</g>
<!-- ModalModule.forRoot()&#45;&gt;LayoutModule -->
<g id="edge11" class="edge">
<title>ModalModule.forRoot()&#45;&gt;LayoutModule</title>
<path fill="none" stroke="#000000" d="M698,-122.302C698,-140.2699 698,-165 698,-165 698,-165 1172.2421,-165 1172.2421,-165"/>
<polygon fill="#000000" stroke="#000000" points="1172.2421,-168.5001 1182.2421,-165 1172.2421,-161.5001 1172.2421,-168.5001"/>
</g>
<!-- ROUTES -->
<g id="node13" class="node">
<title>ROUTES</title>
<polygon fill="#8dd3c7" stroke="#000000" points="604.439,-122 601.439,-126 580.439,-126 577.439,-122 533.561,-122 533.561,-86 604.439,-86 604.439,-122"/>
<text text-anchor="middle" x="569" y="-99.8" font-family="Times,serif" font-size="14.00" fill="#000000">ROUTES</text>
</g>
<!-- ROUTES&#45;&gt;LayoutModule -->
<g id="edge12" class="edge">
<title>ROUTES&#45;&gt;LayoutModule</title>
<path fill="none" stroke="#000000" d="M569,-122.1061C569,-141.3391 569,-169 569,-169 569,-169 1172.1672,-169 1172.1672,-169"/>
<polygon fill="#000000" stroke="#000000" points="1172.1673,-172.5001 1182.1672,-169 1172.1672,-165.5001 1172.1673,-172.5001"/>
</g>
<!-- FormsModule -->
<g id="node14" class="node">
<title>FormsModule</title>
<polygon fill="#8dd3c7" stroke="#000000" points="515.8288,-122 512.8288,-126 491.8288,-126 488.8288,-122 420.1712,-122 420.1712,-86 515.8288,-86 515.8288,-122"/>
<text text-anchor="middle" x="468" y="-99.8" font-family="Times,serif" font-size="14.00" fill="#000000">FormsModule</text>
</g>
<!-- FormsModule&#45;&gt;LayoutModule -->
<g id="edge13" class="edge">
<title>FormsModule&#45;&gt;LayoutModule</title>
<path fill="none" stroke="#000000" d="M468,-122.0267C468,-142.7672 468,-174 468,-174 468,-174 1172.1665,-174 1172.1665,-174"/>
<polygon fill="#000000" stroke="#000000" points="1172.1666,-177.5001 1182.1665,-174 1172.1665,-170.5001 1172.1666,-177.5001"/>
</g>
<!-- LoadingBarRouterModule -->
<g id="node15" class="node">
<title>LoadingBarRouterModule</title>
<polygon fill="#8dd3c7" stroke="#000000" points="402.0225,-122 399.0225,-126 378.0225,-126 375.0225,-122 237.9775,-122 237.9775,-86 402.0225,-86 402.0225,-122"/>
<text text-anchor="middle" x="320" y="-99.8" font-family="Times,serif" font-size="14.00" fill="#000000">LoadingBarRouterModule</text>
</g>
<!-- LoadingBarRouterModule&#45;&gt;LayoutModule -->
<g id="edge14" class="edge">
<title>LoadingBarRouterModule&#45;&gt;LayoutModule</title>
<path fill="none" stroke="#000000" d="M320,-122.2921C320,-144.2057 320,-178 320,-178 320,-178 1172.3193,-178 1172.3193,-178"/>
<polygon fill="#000000" stroke="#000000" points="1172.3193,-181.5001 1182.3193,-178 1172.3192,-174.5001 1172.3193,-181.5001"/>
</g>
<!-- TranslateModule.forChild(args) -->
<g id="node16" class="node">
<title>TranslateModule.forChild(args)</title>
<polygon fill="#8dd3c7" stroke="#000000" points="219.7127,-122 216.7127,-126 195.7127,-126 192.7127,-122 24.2873,-122 24.2873,-86 219.7127,-86 219.7127,-122"/>
<text text-anchor="middle" x="122" y="-99.8" font-family="Times,serif" font-size="14.00" fill="#000000">TranslateModule.forChild(args)</text>
</g>
<!-- TranslateModule.forChild(args)&#45;&gt;LayoutModule -->
<g id="edge15" class="edge">
<title>TranslateModule.forChild(args)&#45;&gt;LayoutModule</title>
<path fill="none" stroke="#000000" d="M122,-122.3228C122,-145.6602 122,-183 122,-183 122,-183 1172.1492,-183 1172.1492,-183"/>
<polygon fill="#000000" stroke="#000000" points="1172.1492,-186.5001 1182.1492,-183 1172.1492,-179.5001 1172.1492,-186.5001"/>
</g>
</g>
</svg>
