<?xml version="1.0" encoding="UTF-8" standalone="no"?>
<!DOCTYPE svg PUBLIC "-//W3C//DTD SVG 1.1//EN"
 "http://www.w3.org/Graphics/SVG/1.1/DTD/svg11.dtd">
<!-- Generated by graphviz version 2.40.1 (20161225.0304)
 -->
<!-- Title: dependencies Pages: 1 -->
<svg width="2090pt" height="211pt"
 viewBox="0.00 0.00 2090.00 211.00" xmlns="http://www.w3.org/2000/svg" xmlns:xlink="http://www.w3.org/1999/xlink">
<g id="graph0" class="graph" transform="scale(1 1) rotate(0) translate(4 207)">
<title>dependencies</title>
<polygon fill="#ffffff" stroke="transparent" points="-4,4 -4,-207 2086,-207 2086,4 -4,4"/>
<text text-anchor="start" x="1020.0091" y="-42.4" font-family="sans-serif" font-weight="bold" font-size="14.00" fill="#000000">Legend</text>
<polygon fill="#ffffb3" stroke="transparent" points="807,-10 807,-30 827,-30 827,-10 807,-10"/>
<text text-anchor="start" x="830.629" y="-15.4" font-family="sans-serif" font-size="14.00" fill="#000000"> &#160;Declarations</text>
<polygon fill="#8dd3c7" stroke="transparent" points="920,-10 920,-30 940,-30 940,-10 920,-10"/>
<text text-anchor="start" x="943.7251" y="-15.4" font-family="sans-serif" font-size="14.00" fill="#000000"> &#160;Module</text>
<polygon fill="#80b1d3" stroke="transparent" points="1006,-10 1006,-30 1026,-30 1026,-10 1006,-10"/>
<text text-anchor="start" x="1029.7812" y="-15.4" font-family="sans-serif" font-size="14.00" fill="#000000"> &#160;Bootstrap</text>
<polygon fill="#fdb462" stroke="transparent" points="1103,-10 1103,-30 1123,-30 1123,-10 1103,-10"/>
<text text-anchor="start" x="1126.6732" y="-15.4" font-family="sans-serif" font-size="14.00" fill="#000000"> &#160;Providers</text>
<polygon fill="#fb8072" stroke="transparent" points="1199,-10 1199,-30 1219,-30 1219,-10 1199,-10"/>
<text text-anchor="start" x="1222.7258" y="-15.4" font-family="sans-serif" font-size="14.00" fill="#000000"> &#160;Exports</text>
<g id="clust1" class="cluster">
<title>cluster_UsersManagementModule</title>
<polygon fill="none" stroke="#000000" stroke-dasharray="1,5" points="8,-70 8,-195 2074,-195 2074,-70 8,-70"/>
</g>
<g id="clust2" class="cluster">
<title>cluster_UsersManagementModule_declarations</title>
<polygon fill="none" stroke="#000000" points="1388,-78 1388,-130 2066,-130 2066,-78 1388,-78"/>
</g>
<g id="clust7" class="cluster">
<title>cluster_UsersManagementModule_imports</title>
<polygon fill="none" stroke="#000000" points="16,-78 16,-130 1380,-130 1380,-78 16,-78"/>
</g>
<!-- UsersManagementComponent -->
<g id="node1" class="node">
<title>UsersManagementComponent</title>
<polygon fill="#ffffb3" stroke="#000000" points="2058.2878,-122 1871.7122,-122 1871.7122,-86 2058.2878,-86 2058.2878,-122"/>
<text text-anchor="middle" x="1965" y="-99.8" font-family="Times,serif" font-size="14.00" fill="#000000">UsersManagementComponent</text>
</g>
<!-- UsersManagementModule -->
<g id="node5" class="node">
<title>UsersManagementModule</title>
<polygon fill="#8dd3c7" stroke="#000000" points="1102.0057,-187 1099.0057,-191 1078.0057,-191 1075.0057,-187 937.9943,-187 937.9943,-151 1102.0057,-151 1102.0057,-187"/>
<text text-anchor="middle" x="1020" y="-164.8" font-family="Times,serif" font-size="14.00" fill="#000000">UsersManagementModule</text>
</g>
<!-- UsersManagementComponent&#45;&gt;UsersManagementModule -->
<g id="edge1" class="edge">
<title>UsersManagementComponent&#45;&gt;UsersManagementModule</title>
<path fill="none" stroke="#000000" d="M1965,-122.0908C1965,-145.1328 1965,-182 1965,-182 1965,-182 1112.2094,-182 1112.2094,-182"/>
<polygon fill="#000000" stroke="#000000" points="1112.2095,-178.5001 1102.2094,-182 1112.2094,-185.5001 1112.2095,-178.5001"/>
</g>
<!-- RolesManagementComponent -->
<g id="node2" class="node">
<title>RolesManagementComponent</title>
<polygon fill="#ffffb3" stroke="#000000" points="1854.3032,-122 1667.6968,-122 1667.6968,-86 1854.3032,-86 1854.3032,-122"/>
<text text-anchor="middle" x="1761" y="-99.8" font-family="Times,serif" font-size="14.00" fill="#000000">RolesManagementComponent</text>
</g>
<!-- RolesManagementComponent&#45;&gt;UsersManagementModule -->
<g id="edge2" class="edge">
<title>RolesManagementComponent&#45;&gt;UsersManagementModule</title>
<path fill="none" stroke="#000000" d="M1761,-122.0449C1761,-143.6623 1761,-177 1761,-177 1761,-177 1112.1312,-177 1112.1312,-177"/>
<polygon fill="#000000" stroke="#000000" points="1112.1312,-173.5001 1102.1312,-177 1112.1311,-180.5001 1112.1312,-173.5001"/>
</g>
<!-- RoleEditorComponent -->
<g id="node3" class="node">
<title>RoleEditorComponent</title>
<polygon fill="#ffffb3" stroke="#000000" points="1649.2688,-122 1506.7312,-122 1506.7312,-86 1649.2688,-86 1649.2688,-122"/>
<text text-anchor="middle" x="1578" y="-99.8" font-family="Times,serif" font-size="14.00" fill="#000000">RoleEditorComponent</text>
</g>
<!-- RoleEditorComponent&#45;&gt;UsersManagementModule -->
<g id="edge3" class="edge">
<title>RoleEditorComponent&#45;&gt;UsersManagementModule</title>
<path fill="none" stroke="#000000" d="M1578,-122.2228C1578,-142.3652 1578,-172 1578,-172 1578,-172 1112.035,-172 1112.035,-172"/>
<polygon fill="#000000" stroke="#000000" points="1112.035,-168.5001 1102.035,-172 1112.035,-175.5001 1112.035,-168.5001"/>
</g>
<!-- GroupByPipe -->
<g id="node4" class="node">
<title>GroupByPipe</title>
<polygon fill="#ffffb3" stroke="#000000" points="1488.4916,-122 1395.5084,-122 1395.5084,-86 1488.4916,-86 1488.4916,-122"/>
<text text-anchor="middle" x="1442" y="-99.8" font-family="Times,serif" font-size="14.00" fill="#000000">GroupByPipe</text>
</g>
<!-- GroupByPipe&#45;&gt;UsersManagementModule -->
<g id="edge4" class="edge">
<title>GroupByPipe&#45;&gt;UsersManagementModule</title>
<path fill="none" stroke="#000000" d="M1442,-122.2222C1442,-140.8285 1442,-167 1442,-167 1442,-167 1112.1168,-167 1112.1168,-167"/>
<polygon fill="#000000" stroke="#000000" points="1112.1168,-163.5001 1102.1168,-167 1112.1168,-170.5001 1112.1168,-163.5001"/>
</g>
<!-- CommonModule -->
<g id="node6" class="node">
<title>CommonModule</title>
<polygon fill="#8dd3c7" stroke="#000000" points="1371.6681,-122 1368.6681,-126 1347.6681,-126 1344.6681,-122 1260.3319,-122 1260.3319,-86 1371.6681,-86 1371.6681,-122"/>
<text text-anchor="middle" x="1316" y="-99.8" font-family="Times,serif" font-size="14.00" fill="#000000">CommonModule</text>
</g>
<!-- CommonModule&#45;&gt;UsersManagementModule -->
<g id="edge5" class="edge">
<title>CommonModule&#45;&gt;UsersManagementModule</title>
<path fill="none" stroke="#000000" d="M1316,-122.0336C1316,-139.0597 1316,-162 1316,-162 1316,-162 1112.0594,-162 1112.0594,-162"/>
<polygon fill="#000000" stroke="#000000" points="1112.0595,-158.5001 1102.0594,-162 1112.0594,-165.5001 1112.0595,-158.5001"/>
</g>
<!-- FormsModule -->
<g id="node7" class="node">
<title>FormsModule</title>
<polygon fill="#8dd3c7" stroke="#000000" points="1242.8288,-122 1239.8288,-126 1218.8288,-126 1215.8288,-122 1147.1712,-122 1147.1712,-86 1242.8288,-86 1242.8288,-122"/>
<text text-anchor="middle" x="1195" y="-99.8" font-family="Times,serif" font-size="14.00" fill="#000000">FormsModule</text>
</g>
<!-- FormsModule&#45;&gt;UsersManagementModule -->
<g id="edge6" class="edge">
<title>FormsModule&#45;&gt;UsersManagementModule</title>
<path fill="none" stroke="#000000" d="M1195,-122.2396C1195,-137.5706 1195,-157 1195,-157 1195,-157 1112.1197,-157 1112.1197,-157"/>
<polygon fill="#000000" stroke="#000000" points="1112.1198,-153.5001 1102.1197,-157 1112.1197,-160.5001 1112.1198,-153.5001"/>
</g>
<!-- Select2Module -->
<g id="node8" class="node">
<title>Select2Module</title>
<polygon fill="#8dd3c7" stroke="#000000" points="1129.2577,-122 1126.2577,-126 1105.2577,-126 1102.2577,-122 1028.7423,-122 1028.7423,-86 1129.2577,-86 1129.2577,-122"/>
<text text-anchor="middle" x="1079" y="-99.8" font-family="Times,serif" font-size="14.00" fill="#000000">Select2Module</text>
</g>
<!-- Select2Module&#45;&gt;UsersManagementModule -->
<g id="edge7" class="edge">
<title>Select2Module&#45;&gt;UsersManagementModule</title>
<path fill="none" stroke="#000000" d="M1065.4369,-122.1061C1065.4369,-122.1061 1065.4369,-140.991 1065.4369,-140.991"/>
<polygon fill="#000000" stroke="#000000" points="1061.937,-140.9909 1065.4369,-150.991 1068.937,-140.991 1061.937,-140.9909"/>
</g>
<!-- SharedModule -->
<g id="node9" class="node">
<title>SharedModule</title>
<polygon fill="#8dd3c7" stroke="#000000" points="1010.4231,-122 1007.4231,-126 986.4231,-126 983.4231,-122 911.5769,-122 911.5769,-86 1010.4231,-86 1010.4231,-122"/>
<text text-anchor="middle" x="961" y="-99.8" font-family="Times,serif" font-size="14.00" fill="#000000">SharedModule</text>
</g>
<!-- SharedModule&#45;&gt;UsersManagementModule -->
<g id="edge8" class="edge">
<title>SharedModule&#45;&gt;UsersManagementModule</title>
<path fill="none" stroke="#000000" d="M973.9793,-122.1061C973.9793,-122.1061 973.9793,-140.991 973.9793,-140.991"/>
<polygon fill="#000000" stroke="#000000" points="970.4794,-140.9909 973.9793,-150.991 977.4794,-140.991 970.4794,-140.9909"/>
</g>
<!-- ROUTES -->
<g id="node10" class="node">
<title>ROUTES</title>
<polygon fill="#8dd3c7" stroke="#000000" points="894.439,-122 891.439,-126 870.439,-126 867.439,-122 823.561,-122 823.561,-86 894.439,-86 894.439,-122"/>
<text text-anchor="middle" x="859" y="-99.8" font-family="Times,serif" font-size="14.00" fill="#000000">ROUTES</text>
</g>
<!-- ROUTES&#45;&gt;UsersManagementModule -->
<g id="edge9" class="edge">
<title>ROUTES&#45;&gt;UsersManagementModule</title>
<path fill="none" stroke="#000000" d="M859,-122.2396C859,-137.5706 859,-157 859,-157 859,-157 927.6134,-157 927.6134,-157"/>
<polygon fill="#000000" stroke="#000000" points="927.6135,-160.5001 937.6134,-157 927.6134,-153.5001 927.6135,-160.5001"/>
</g>
<!-- TranslateModule.forChild(args) -->
<g id="node11" class="node">
<title>TranslateModule.forChild(args)</title>
<polygon fill="#8dd3c7" stroke="#000000" points="805.7127,-122 802.7127,-126 781.7127,-126 778.7127,-122 610.2873,-122 610.2873,-86 805.7127,-86 805.7127,-122"/>
<text text-anchor="middle" x="708" y="-99.8" font-family="Times,serif" font-size="14.00" fill="#000000">TranslateModule.forChild(args)</text>
</g>
<!-- TranslateModule.forChild(args)&#45;&gt;UsersManagementModule -->
<g id="edge10" class="edge">
<title>TranslateModule.forChild(args)&#45;&gt;UsersManagementModule</title>
<path fill="none" stroke="#000000" d="M708,-122.0336C708,-139.0597 708,-162 708,-162 708,-162 927.6176,-162 927.6176,-162"/>
<polygon fill="#000000" stroke="#000000" points="927.6176,-165.5001 937.6176,-162 927.6175,-158.5001 927.6176,-165.5001"/>
</g>
<!-- ModalModule -->
<g id="node12" class="node">
<title>ModalModule</title>
<polygon fill="#8dd3c7" stroke="#000000" points="592.0997,-122 589.0997,-126 568.0997,-126 565.0997,-122 495.9003,-122 495.9003,-86 592.0997,-86 592.0997,-122"/>
<text text-anchor="middle" x="544" y="-99.8" font-family="Times,serif" font-size="14.00" fill="#000000">ModalModule</text>
</g>
<!-- ModalModule&#45;&gt;UsersManagementModule -->
<g id="edge11" class="edge">
<title>ModalModule&#45;&gt;UsersManagementModule</title>
<path fill="none" stroke="#000000" d="M544,-122.2222C544,-140.8285 544,-167 544,-167 544,-167 927.9018,-167 927.9018,-167"/>
<polygon fill="#000000" stroke="#000000" points="927.9018,-170.5001 937.9018,-167 927.9017,-163.5001 927.9018,-170.5001"/>
</g>
<!-- AccountManagementModule -->
<g id="node13" class="node">
<title>AccountManagementModule</title>
<polygon fill="#8dd3c7" stroke="#000000" points="478.0604,-122 475.0604,-126 454.0604,-126 451.0604,-122 297.9396,-122 297.9396,-86 478.0604,-86 478.0604,-122"/>
<text text-anchor="middle" x="388" y="-99.8" font-family="Times,serif" font-size="14.00" fill="#000000">AccountManagementModule</text>
</g>
<!-- AccountManagementModule&#45;&gt;UsersManagementModule -->
<g id="edge12" class="edge">
<title>AccountManagementModule&#45;&gt;UsersManagementModule</title>
<path fill="none" stroke="#000000" d="M388,-122.2228C388,-142.3652 388,-172 388,-172 388,-172 927.7012,-172 927.7012,-172"/>
<polygon fill="#000000" stroke="#000000" points="927.7013,-175.5001 937.7012,-172 927.7012,-168.5001 927.7013,-175.5001"/>
</g>
<!-- NgxDatatableModule -->
<g id="node14" class="node">
<title>NgxDatatableModule</title>
<polygon fill="#8dd3c7" stroke="#000000" points="279.7935,-122 276.7935,-126 255.7935,-126 252.7935,-122 142.2065,-122 142.2065,-86 279.7935,-86 279.7935,-122"/>
<text text-anchor="middle" x="211" y="-99.8" font-family="Times,serif" font-size="14.00" fill="#000000">NgxDatatableModule</text>
</g>
<!-- NgxDatatableModule&#45;&gt;UsersManagementModule -->
<g id="edge13" class="edge">
<title>NgxDatatableModule&#45;&gt;UsersManagementModule</title>
<path fill="none" stroke="#000000" d="M211,-122.0449C211,-143.6623 211,-177 211,-177 211,-177 927.9767,-177 927.9767,-177"/>
<polygon fill="#000000" stroke="#000000" points="927.9767,-180.5001 937.9767,-177 927.9767,-173.5001 927.9767,-180.5001"/>
</g>
<!-- TooltipModule -->
<g id="node15" class="node">
<title>TooltipModule</title>
<polygon fill="#8dd3c7" stroke="#000000" points="124.2745,-122 121.2745,-126 100.2745,-126 97.2745,-122 23.7255,-122 23.7255,-86 124.2745,-86 124.2745,-122"/>
<text text-anchor="middle" x="74" y="-99.8" font-family="Times,serif" font-size="14.00" fill="#000000">TooltipModule</text>
</g>
<!-- TooltipModule&#45;&gt;UsersManagementModule -->
<g id="edge14" class="edge">
<title>TooltipModule&#45;&gt;UsersManagementModule</title>
<path fill="none" stroke="#000000" d="M74,-122.0908C74,-145.1328 74,-182 74,-182 74,-182 927.7036,-182 927.7036,-182"/>
<polygon fill="#000000" stroke="#000000" points="927.7036,-185.5001 937.7036,-182 927.7035,-178.5001 927.7036,-185.5001"/>
</g>
</g>
</svg>
