<?xml version="1.0" encoding="UTF-8" standalone="no"?>
<!DOCTYPE svg PUBLIC "-//W3C//DTD SVG 1.1//EN"
 "http://www.w3.org/Graphics/SVG/1.1/DTD/svg11.dtd">
<!-- Generated by graphviz version 2.40.1 (20161225.0304)
 -->
<!-- Title: dependencies Pages: 1 -->
<svg width="530pt" height="211pt"
 viewBox="0.00 0.00 530.00 211.00" xmlns="http://www.w3.org/2000/svg" xmlns:xlink="http://www.w3.org/1999/xlink">
<g id="graph0" class="graph" transform="scale(1 1) rotate(0) translate(4 207)">
<title>dependencies</title>
<polygon fill="#ffffff" stroke="transparent" points="-4,4 -4,-207 526,-207 526,4 -4,4"/>
<text text-anchor="start" x="240.0091" y="-42.4" font-family="sans-serif" font-weight="bold" font-size="14.00" fill="#000000">Legend</text>
<polygon fill="#ffffb3" stroke="transparent" points="27,-10 27,-30 47,-30 47,-10 27,-10"/>
<text text-anchor="start" x="50.629" y="-15.4" font-family="sans-serif" font-size="14.00" fill="#000000"> &#160;Declarations</text>
<polygon fill="#8dd3c7" stroke="transparent" points="140,-10 140,-30 160,-30 160,-10 140,-10"/>
<text text-anchor="start" x="163.7251" y="-15.4" font-family="sans-serif" font-size="14.00" fill="#000000"> &#160;Module</text>
<polygon fill="#80b1d3" stroke="transparent" points="226,-10 226,-30 246,-30 246,-10 226,-10"/>
<text text-anchor="start" x="249.7812" y="-15.4" font-family="sans-serif" font-size="14.00" fill="#000000"> &#160;Bootstrap</text>
<polygon fill="#fdb462" stroke="transparent" points="323,-10 323,-30 343,-30 343,-10 323,-10"/>
<text text-anchor="start" x="346.6732" y="-15.4" font-family="sans-serif" font-size="14.00" fill="#000000"> &#160;Providers</text>
<polygon fill="#fb8072" stroke="transparent" points="419,-10 419,-30 439,-30 439,-10 419,-10"/>
<text text-anchor="start" x="442.7258" y="-15.4" font-family="sans-serif" font-size="14.00" fill="#000000"> &#160;Exports</text>
<g id="clust1" class="cluster">
<title>cluster_SurveyExecuteModule</title>
<polygon fill="none" stroke="#000000" stroke-dasharray="1,5" points="8,-70 8,-195 514,-195 514,-70 8,-70"/>
</g>
<g id="clust2" class="cluster">
<title>cluster_SurveyExecuteModule_declarations</title>
<polygon fill="none" stroke="#000000" points="138,-78 138,-130 506,-130 506,-78 138,-78"/>
</g>
<g id="clust5" class="cluster">
<title>cluster_SurveyExecuteModule_imports</title>
<polygon fill="none" stroke="#000000" points="16,-78 16,-130 130,-130 130,-78 16,-78"/>
</g>
<!-- ConductSurveyComponent -->
<g id="node1" class="node">
<title>ConductSurveyComponent</title>
<polygon fill="#ffffb3" stroke="#000000" points="498.4326,-122 329.5674,-122 329.5674,-86 498.4326,-86 498.4326,-122"/>
<text text-anchor="middle" x="414" y="-99.8" font-family="Times,serif" font-size="14.00" fill="#000000">ConductSurveyComponent</text>
</g>
<!-- SurveyExecuteModule -->
<g id="node3" class="node">
<title>SurveyExecuteModule</title>
<polygon fill="#8dd3c7" stroke="#000000" points="301.2949,-187 298.2949,-191 277.2949,-191 274.2949,-187 156.7051,-187 156.7051,-151 301.2949,-151 301.2949,-187"/>
<text text-anchor="middle" x="229" y="-164.8" font-family="Times,serif" font-size="14.00" fill="#000000">SurveyExecuteModule</text>
</g>
<!-- ConductSurveyComponent&#45;&gt;SurveyExecuteModule -->
<g id="edge1" class="edge">
<title>ConductSurveyComponent&#45;&gt;SurveyExecuteModule</title>
<path fill="none" stroke="#000000" d="M414,-122.1061C414,-141.3391 414,-169 414,-169 414,-169 311.3207,-169 311.3207,-169"/>
<polygon fill="#000000" stroke="#000000" points="311.3207,-165.5001 301.3207,-169 311.3206,-172.5001 311.3207,-165.5001"/>
</g>
<!-- SurveyExecuteComponent -->
<g id="node2" class="node">
<title>SurveyExecuteComponent</title>
<polygon fill="#ffffb3" stroke="#000000" points="312.0772,-122 145.9228,-122 145.9228,-86 312.0772,-86 312.0772,-122"/>
<text text-anchor="middle" x="229" y="-99.8" font-family="Times,serif" font-size="14.00" fill="#000000">SurveyExecuteComponent</text>
</g>
<!-- SurveyExecuteComponent&#45;&gt;SurveyExecuteModule -->
<g id="edge2" class="edge">
<title>SurveyExecuteComponent&#45;&gt;SurveyExecuteModule</title>
<path fill="none" stroke="#000000" d="M229,-122.1061C229,-122.1061 229,-140.991 229,-140.991"/>
<polygon fill="#000000" stroke="#000000" points="225.5001,-140.9909 229,-150.991 232.5001,-140.991 225.5001,-140.9909"/>
</g>
<!-- SharedModule -->
<g id="node4" class="node">
<title>SharedModule</title>
<polygon fill="#8dd3c7" stroke="#000000" points="122.4231,-122 119.4231,-126 98.4231,-126 95.4231,-122 23.5769,-122 23.5769,-86 122.4231,-86 122.4231,-122"/>
<text text-anchor="middle" x="73" y="-99.8" font-family="Times,serif" font-size="14.00" fill="#000000">SharedModule</text>
</g>
<!-- SharedModule&#45;&gt;SurveyExecuteModule -->
<g id="edge3" class="edge">
<title>SharedModule&#45;&gt;SurveyExecuteModule</title>
<path fill="none" stroke="#000000" d="M73,-122.1061C73,-141.3391 73,-169 73,-169 73,-169 146.4804,-169 146.4804,-169"/>
<polygon fill="#000000" stroke="#000000" points="146.4804,-172.5001 156.4804,-169 146.4803,-165.5001 146.4804,-172.5001"/>
</g>
</g>
</svg>
