<?xml version="1.0" encoding="UTF-8" standalone="no"?>
<!DOCTYPE svg PUBLIC "-//W3C//DTD SVG 1.1//EN"
 "http://www.w3.org/Graphics/SVG/1.1/DTD/svg11.dtd">
<!-- Generated by graphviz version 2.40.1 (20161225.0304)
 -->
<!-- Title: dependencies Pages: 1 -->
<svg width="2415pt" height="284pt"
 viewBox="0.00 0.00 2415.00 284.00" xmlns="http://www.w3.org/2000/svg" xmlns:xlink="http://www.w3.org/1999/xlink">
<g id="graph0" class="graph" transform="scale(1 1) rotate(0) translate(4 280)">
<title>dependencies</title>
<polygon fill="#ffffff" stroke="transparent" points="-4,4 -4,-280 2411,-280 2411,4 -4,4"/>
<text text-anchor="start" x="1182.5091" y="-42.4" font-family="sans-serif" font-weight="bold" font-size="14.00" fill="#000000">Legend</text>
<polygon fill="#ffffb3" stroke="transparent" points="969.5,-10 969.5,-30 989.5,-30 989.5,-10 969.5,-10"/>
<text text-anchor="start" x="993.129" y="-15.4" font-family="sans-serif" font-size="14.00" fill="#000000"> &#160;Declarations</text>
<polygon fill="#8dd3c7" stroke="transparent" points="1082.5,-10 1082.5,-30 1102.5,-30 1102.5,-10 1082.5,-10"/>
<text text-anchor="start" x="1106.2251" y="-15.4" font-family="sans-serif" font-size="14.00" fill="#000000"> &#160;Module</text>
<polygon fill="#80b1d3" stroke="transparent" points="1168.5,-10 1168.5,-30 1188.5,-30 1188.5,-10 1168.5,-10"/>
<text text-anchor="start" x="1192.2812" y="-15.4" font-family="sans-serif" font-size="14.00" fill="#000000"> &#160;Bootstrap</text>
<polygon fill="#fdb462" stroke="transparent" points="1265.5,-10 1265.5,-30 1285.5,-30 1285.5,-10 1265.5,-10"/>
<text text-anchor="start" x="1289.1732" y="-15.4" font-family="sans-serif" font-size="14.00" fill="#000000"> &#160;Providers</text>
<polygon fill="#fb8072" stroke="transparent" points="1361.5,-10 1361.5,-30 1381.5,-30 1381.5,-10 1361.5,-10"/>
<text text-anchor="start" x="1385.2258" y="-15.4" font-family="sans-serif" font-size="14.00" fill="#000000"> &#160;Exports</text>
<g id="clust1" class="cluster">
<title>cluster_AppModule</title>
<polygon fill="none" stroke="#000000" stroke-dasharray="1,5" points="8,-70 8,-268 2399,-268 2399,-70 8,-70"/>
</g>
<g id="clust2" class="cluster">
<title>cluster_AppModule_declarations</title>
<polygon fill="none" stroke="#000000" points="1001,-78 1001,-130 2391,-130 2391,-78 1001,-78"/>
</g>
<g id="clust12" class="cluster">
<title>cluster_AppModule_imports</title>
<polygon fill="none" stroke="#000000" points="732,-78 732,-130 993,-130 993,-78 732,-78"/>
</g>
<g id="clust14" class="cluster">
<title>cluster_AppModule_bootstrap</title>
<polygon fill="none" stroke="#000000" points="1159,-208 1159,-260 1283,-260 1283,-208 1159,-208"/>
</g>
<g id="clust15" class="cluster">
<title>cluster_AppModule_providers</title>
<polygon fill="none" stroke="#000000" points="16,-78 16,-130 724,-130 724,-78 16,-78"/>
</g>
<!-- AppComponent -->
<g id="node1" class="node">
<title>AppComponent</title>
<polygon fill="#ffffb3" stroke="#000000" points="2382.9399,-122 2277.0601,-122 2277.0601,-86 2382.9399,-86 2382.9399,-122"/>
<text text-anchor="middle" x="2330" y="-99.8" font-family="Times,serif" font-size="14.00" fill="#000000">AppComponent</text>
</g>
<!-- AppModule -->
<g id="node10" class="node">
<title>AppModule</title>
<polygon fill="#8dd3c7" stroke="#000000" points="1262.6571,-187 1259.6571,-191 1238.6571,-191 1235.6571,-187 1179.3429,-187 1179.3429,-151 1262.6571,-151 1262.6571,-187"/>
<text text-anchor="middle" x="1221" y="-164.8" font-family="Times,serif" font-size="14.00" fill="#000000">AppModule</text>
</g>
<!-- AppComponent&#45;&gt;AppModule -->
<g id="edge1" class="edge">
<title>AppComponent&#45;&gt;AppModule</title>
<path fill="none" stroke="#000000" d="M2330,-122.3228C2330,-145.6602 2330,-183 2330,-183 2330,-183 1272.7844,-183 1272.7844,-183"/>
<polygon fill="#000000" stroke="#000000" points="1272.7844,-179.5001 1262.7844,-183 1272.7844,-186.5001 1272.7844,-179.5001"/>
</g>
<!-- AutofocusDirective -->
<g id="node2" class="node">
<title>AutofocusDirective</title>
<polygon fill="#ffffb3" stroke="#000000" points="2259.4004,-122 2132.5996,-122 2132.5996,-86 2259.4004,-86 2259.4004,-122"/>
<text text-anchor="middle" x="2196" y="-99.8" font-family="Times,serif" font-size="14.00" fill="#000000">AutofocusDirective</text>
</g>
<!-- AutofocusDirective&#45;&gt;AppModule -->
<g id="edge2" class="edge">
<title>AutofocusDirective&#45;&gt;AppModule</title>
<path fill="none" stroke="#000000" d="M2196,-122.2921C2196,-144.2057 2196,-178 2196,-178 2196,-178 1272.8945,-178 1272.8945,-178"/>
<polygon fill="#000000" stroke="#000000" points="1272.8946,-174.5001 1262.8945,-178 1272.8945,-181.5001 1272.8946,-174.5001"/>
</g>
<!-- BootstrapDatepickerDirective -->
<g id="node3" class="node">
<title>BootstrapDatepickerDirective</title>
<polygon fill="#ffffb3" stroke="#000000" points="2114.9272,-122 1931.0728,-122 1931.0728,-86 2114.9272,-86 2114.9272,-122"/>
<text text-anchor="middle" x="2023" y="-99.8" font-family="Times,serif" font-size="14.00" fill="#000000">BootstrapDatepickerDirective</text>
</g>
<!-- BootstrapDatepickerDirective&#45;&gt;AppModule -->
<g id="edge3" class="edge">
<title>BootstrapDatepickerDirective&#45;&gt;AppModule</title>
<path fill="none" stroke="#000000" d="M2023,-122.0267C2023,-142.7672 2023,-174 2023,-174 2023,-174 1272.7096,-174 1272.7096,-174"/>
<polygon fill="#000000" stroke="#000000" points="1272.7096,-170.5001 1262.7096,-174 1272.7096,-177.5001 1272.7096,-170.5001"/>
</g>
<!-- BootstrapSelectDirective -->
<g id="node4" class="node">
<title>BootstrapSelectDirective</title>
<polygon fill="#ffffb3" stroke="#000000" points="1913.2282,-122 1756.7718,-122 1756.7718,-86 1913.2282,-86 1913.2282,-122"/>
<text text-anchor="middle" x="1835" y="-99.8" font-family="Times,serif" font-size="14.00" fill="#000000">BootstrapSelectDirective</text>
</g>
<!-- BootstrapSelectDirective&#45;&gt;AppModule -->
<g id="edge4" class="edge">
<title>BootstrapSelectDirective&#45;&gt;AppModule</title>
<path fill="none" stroke="#000000" d="M1835,-122.1061C1835,-141.3391 1835,-169 1835,-169 1835,-169 1272.72,-169 1272.72,-169"/>
<polygon fill="#000000" stroke="#000000" points="1272.72,-165.5001 1262.72,-169 1272.72,-172.5001 1272.72,-165.5001"/>
</g>
<!-- BootstrapTabDirective -->
<g id="node5" class="node">
<title>BootstrapTabDirective</title>
<polygon fill="#ffffb3" stroke="#000000" points="1738.2879,-122 1593.7121,-122 1593.7121,-86 1738.2879,-86 1738.2879,-122"/>
<text text-anchor="middle" x="1666" y="-99.8" font-family="Times,serif" font-size="14.00" fill="#000000">BootstrapTabDirective</text>
</g>
<!-- BootstrapTabDirective&#45;&gt;AppModule -->
<g id="edge5" class="edge">
<title>BootstrapTabDirective&#45;&gt;AppModule</title>
<path fill="none" stroke="#000000" d="M1666,-122.302C1666,-140.2699 1666,-165 1666,-165 1666,-165 1272.8645,-165 1272.8645,-165"/>
<polygon fill="#000000" stroke="#000000" points="1272.8646,-161.5001 1262.8645,-165 1272.8645,-168.5001 1272.8646,-161.5001"/>
</g>
<!-- BootstrapToggleDirective -->
<g id="node6" class="node">
<title>BootstrapToggleDirective</title>
<polygon fill="#ffffb3" stroke="#000000" points="1576.1783,-122 1413.8217,-122 1413.8217,-86 1576.1783,-86 1576.1783,-122"/>
<text text-anchor="middle" x="1495" y="-99.8" font-family="Times,serif" font-size="14.00" fill="#000000">BootstrapToggleDirective</text>
</g>
<!-- BootstrapToggleDirective&#45;&gt;AppModule -->
<g id="edge6" class="edge">
<title>BootstrapToggleDirective&#45;&gt;AppModule</title>
<path fill="none" stroke="#000000" d="M1495,-122.027C1495,-138.3976 1495,-160 1495,-160 1495,-160 1272.913,-160 1272.913,-160"/>
<polygon fill="#000000" stroke="#000000" points="1272.913,-156.5001 1262.913,-160 1272.9129,-163.5001 1272.913,-156.5001"/>
</g>
<!-- EqualValidator -->
<g id="node7" class="node">
<title>EqualValidator</title>
<polygon fill="#ffffb3" stroke="#000000" points="1395.5271,-122 1294.4729,-122 1294.4729,-86 1395.5271,-86 1395.5271,-122"/>
<text text-anchor="middle" x="1345" y="-99.8" font-family="Times,serif" font-size="14.00" fill="#000000">EqualValidator</text>
</g>
<!-- EqualValidator&#45;&gt;AppModule -->
<g id="edge7" class="edge">
<title>EqualValidator&#45;&gt;AppModule</title>
<path fill="none" stroke="#000000" d="M1345,-122.1871C1345,-137.1824 1345,-156 1345,-156 1345,-156 1272.9807,-156 1272.9807,-156"/>
<polygon fill="#000000" stroke="#000000" points="1272.9808,-152.5001 1262.9807,-156 1272.9807,-159.5001 1272.9808,-152.5001"/>
</g>
<!-- ErrorComponent -->
<g id="node8" class="node">
<title>ErrorComponent</title>
<polygon fill="#ffffb3" stroke="#000000" points="1276.3669,-122 1165.6331,-122 1165.6331,-86 1276.3669,-86 1276.3669,-122"/>
<text text-anchor="middle" x="1221" y="-99.8" font-family="Times,serif" font-size="14.00" fill="#000000">ErrorComponent</text>
</g>
<!-- ErrorComponent&#45;&gt;AppModule -->
<g id="edge8" class="edge">
<title>ErrorComponent&#45;&gt;AppModule</title>
<path fill="none" stroke="#000000" d="M1221,-122.1061C1221,-122.1061 1221,-140.991 1221,-140.991"/>
<polygon fill="#000000" stroke="#000000" points="1217.5001,-140.9909 1221,-150.991 1224.5001,-140.991 1217.5001,-140.9909"/>
</g>
<!-- LastElementDirective -->
<g id="node9" class="node">
<title>LastElementDirective</title>
<polygon fill="#ffffb3" stroke="#000000" points="1147.3389,-122 1008.6611,-122 1008.6611,-86 1147.3389,-86 1147.3389,-122"/>
<text text-anchor="middle" x="1078" y="-99.8" font-family="Times,serif" font-size="14.00" fill="#000000">LastElementDirective</text>
</g>
<!-- LastElementDirective&#45;&gt;AppModule -->
<g id="edge9" class="edge">
<title>LastElementDirective&#45;&gt;AppModule</title>
<path fill="none" stroke="#000000" d="M1078,-122.1871C1078,-137.1824 1078,-156 1078,-156 1078,-156 1169.2541,-156 1169.2541,-156"/>
<polygon fill="#000000" stroke="#000000" points="1169.2541,-159.5001 1179.2541,-156 1169.254,-152.5001 1169.2541,-159.5001"/>
</g>
<!-- AppComponent  -->
<g id="node13" class="node">
<title>AppComponent </title>
<polygon fill="#80b1d3" stroke="#000000" points="1275.439,-252 1166.561,-252 1166.561,-216 1275.439,-216 1275.439,-252"/>
<text text-anchor="middle" x="1221" y="-229.8" font-family="Times,serif" font-size="14.00" fill="#000000">AppComponent </text>
</g>
<!-- AppModule&#45;&gt;AppComponent  -->
<g id="edge12" class="edge">
<title>AppModule&#45;&gt;AppComponent </title>
<path fill="none" stroke="#000000" stroke-dasharray="1,5" d="M1221,-187.1061C1221,-187.1061 1221,-205.991 1221,-205.991"/>
<polygon fill="#000000" stroke="#000000" points="1217.5001,-205.9909 1221,-215.991 1224.5001,-205.991 1217.5001,-205.9909"/>
</g>
<!-- AppRoutingModule -->
<g id="node11" class="node">
<title>AppRoutingModule</title>
<polygon fill="#8dd3c7" stroke="#000000" points="985.2744,-122 982.2744,-126 961.2744,-126 958.2744,-122 856.7256,-122 856.7256,-86 985.2744,-86 985.2744,-122"/>
<text text-anchor="middle" x="921" y="-99.8" font-family="Times,serif" font-size="14.00" fill="#000000">AppRoutingModule</text>
</g>
<!-- AppRoutingModule&#45;&gt;AppModule -->
<g id="edge10" class="edge">
<title>AppRoutingModule&#45;&gt;AppModule</title>
<path fill="none" stroke="#000000" d="M921,-122.027C921,-138.3976 921,-160 921,-160 921,-160 1169.2863,-160 1169.2863,-160"/>
<polygon fill="#000000" stroke="#000000" points="1169.2863,-163.5001 1179.2863,-160 1169.2863,-156.5001 1169.2863,-163.5001"/>
</g>
<!-- SharedModule -->
<g id="node12" class="node">
<title>SharedModule</title>
<polygon fill="#8dd3c7" stroke="#000000" points="838.4231,-122 835.4231,-126 814.4231,-126 811.4231,-122 739.5769,-122 739.5769,-86 838.4231,-86 838.4231,-122"/>
<text text-anchor="middle" x="789" y="-99.8" font-family="Times,serif" font-size="14.00" fill="#000000">SharedModule</text>
</g>
<!-- SharedModule&#45;&gt;AppModule -->
<g id="edge11" class="edge">
<title>SharedModule&#45;&gt;AppModule</title>
<path fill="none" stroke="#000000" d="M789,-122.302C789,-140.2699 789,-165 789,-165 789,-165 1169.1855,-165 1169.1855,-165"/>
<polygon fill="#000000" stroke="#000000" points="1169.1855,-168.5001 1179.1855,-165 1169.1855,-161.5001 1169.1855,-168.5001"/>
</g>
<!-- AppConfig -->
<g id="node14" class="node">
<title>AppConfig</title>
<ellipse fill="#fdb462" stroke="#000000" cx="662" cy="-104" rx="54.4778" ry="18"/>
<text text-anchor="middle" x="662" y="-99.8" font-family="Times,serif" font-size="14.00" fill="#000000">AppConfig</text>
</g>
<!-- AppConfig&#45;&gt;AppModule -->
<g id="edge13" class="edge">
<title>AppConfig&#45;&gt;AppModule</title>
<path fill="none" stroke="#000000" d="M662,-122.1061C662,-141.3391 662,-169 662,-169 662,-169 1168.9841,-169 1168.9841,-169"/>
<polygon fill="#000000" stroke="#000000" points="1168.9842,-172.5001 1178.9841,-169 1168.9841,-165.5001 1168.9842,-172.5001"/>
</g>
<!-- AppTranslationService -->
<g id="node15" class="node">
<title>AppTranslationService</title>
<ellipse fill="#fdb462" stroke="#000000" cx="489" cy="-104" rx="100.6998" ry="18"/>
<text text-anchor="middle" x="489" y="-99.8" font-family="Times,serif" font-size="14.00" fill="#000000">AppTranslationService</text>
</g>
<!-- AppTranslationService&#45;&gt;AppModule -->
<g id="edge14" class="edge">
<title>AppTranslationService&#45;&gt;AppModule</title>
<path fill="none" stroke="#000000" d="M489,-122.0267C489,-142.7672 489,-174 489,-174 489,-174 1169.2817,-174 1169.2817,-174"/>
<polygon fill="#000000" stroke="#000000" points="1169.2817,-177.5001 1179.2817,-174 1169.2816,-170.5001 1169.2817,-177.5001"/>
</g>
<!-- EndpointFactory -->
<g id="node16" class="node">
<title>EndpointFactory</title>
<ellipse fill="#fdb462" stroke="#000000" cx="294" cy="-104" rx="75.8856" ry="18"/>
<text text-anchor="middle" x="294" y="-99.8" font-family="Times,serif" font-size="14.00" fill="#000000">EndpointFactory</text>
</g>
<!-- EndpointFactory&#45;&gt;AppModule -->
<g id="edge15" class="edge">
<title>EndpointFactory&#45;&gt;AppModule</title>
<path fill="none" stroke="#000000" d="M294,-122.2921C294,-144.2057 294,-178 294,-178 294,-178 1169.0644,-178 1169.0644,-178"/>
<polygon fill="#000000" stroke="#000000" points="1169.0644,-181.5001 1179.0644,-178 1169.0643,-174.5001 1169.0644,-181.5001"/>
</g>
<!-- LocalStoreManager -->
<g id="node17" class="node">
<title>LocalStoreManager</title>
<ellipse fill="#fdb462" stroke="#000000" cx="112" cy="-104" rx="87.9394" ry="18"/>
<text text-anchor="middle" x="112" y="-99.8" font-family="Times,serif" font-size="14.00" fill="#000000">LocalStoreManager</text>
</g>
<!-- LocalStoreManager&#45;&gt;AppModule -->
<g id="edge16" class="edge">
<title>LocalStoreManager&#45;&gt;AppModule</title>
<path fill="none" stroke="#000000" d="M112,-122.3228C112,-145.6602 112,-183 112,-183 112,-183 1169.2156,-183 1169.2156,-183"/>
<polygon fill="#000000" stroke="#000000" points="1169.2156,-186.5001 1179.2156,-183 1169.2156,-179.5001 1169.2156,-186.5001"/>
</g>
</g>
</svg>
