<?xml version="1.0" encoding="UTF-8" standalone="no"?>
<!DOCTYPE svg PUBLIC "-//W3C//DTD SVG 1.1//EN"
 "http://www.w3.org/Graphics/SVG/1.1/DTD/svg11.dtd">
<!-- Generated by graphviz version 2.40.1 (20161225.0304)
 -->
<!-- Title: dependencies Pages: 1 -->
<svg width="831pt" height="211pt"
 viewBox="0.00 0.00 831.00 211.00" xmlns="http://www.w3.org/2000/svg" xmlns:xlink="http://www.w3.org/1999/xlink">
<g id="graph0" class="graph" transform="scale(1 1) rotate(0) translate(4 207)">
<title>dependencies</title>
<polygon fill="#ffffff" stroke="transparent" points="-4,4 -4,-207 827,-207 827,4 -4,4"/>
<text text-anchor="start" x="390.5091" y="-42.4" font-family="sans-serif" font-weight="bold" font-size="14.00" fill="#000000">Legend</text>
<polygon fill="#ffffb3" stroke="transparent" points="177.5,-10 177.5,-30 197.5,-30 197.5,-10 177.5,-10"/>
<text text-anchor="start" x="201.129" y="-15.4" font-family="sans-serif" font-size="14.00" fill="#000000"> &#160;Declarations</text>
<polygon fill="#8dd3c7" stroke="transparent" points="290.5,-10 290.5,-30 310.5,-30 310.5,-10 290.5,-10"/>
<text text-anchor="start" x="314.2251" y="-15.4" font-family="sans-serif" font-size="14.00" fill="#000000"> &#160;Module</text>
<polygon fill="#80b1d3" stroke="transparent" points="376.5,-10 376.5,-30 396.5,-30 396.5,-10 376.5,-10"/>
<text text-anchor="start" x="400.2812" y="-15.4" font-family="sans-serif" font-size="14.00" fill="#000000"> &#160;Bootstrap</text>
<polygon fill="#fdb462" stroke="transparent" points="473.5,-10 473.5,-30 493.5,-30 493.5,-10 473.5,-10"/>
<text text-anchor="start" x="497.1732" y="-15.4" font-family="sans-serif" font-size="14.00" fill="#000000"> &#160;Providers</text>
<polygon fill="#fb8072" stroke="transparent" points="569.5,-10 569.5,-30 589.5,-30 589.5,-10 569.5,-10"/>
<text text-anchor="start" x="593.2258" y="-15.4" font-family="sans-serif" font-size="14.00" fill="#000000"> &#160;Exports</text>
<g id="clust1" class="cluster">
<title>cluster_LoginModule</title>
<polygon fill="none" stroke="#000000" stroke-dasharray="1,5" points="8,-70 8,-195 815,-195 815,-70 8,-70"/>
</g>
<g id="clust2" class="cluster">
<title>cluster_LoginModule_declarations</title>
<polygon fill="none" stroke="#000000" points="677,-78 677,-130 807,-130 807,-78 677,-78"/>
</g>
<g id="clust4" class="cluster">
<title>cluster_LoginModule_imports</title>
<polygon fill="none" stroke="#000000" points="16,-78 16,-130 669,-130 669,-78 16,-78"/>
</g>
<!-- LoginComponent -->
<g id="node1" class="node">
<title>LoginComponent</title>
<polygon fill="#ffffb3" stroke="#000000" points="799.2758,-122 684.7242,-122 684.7242,-86 799.2758,-86 799.2758,-122"/>
<text text-anchor="middle" x="742" y="-99.8" font-family="Times,serif" font-size="14.00" fill="#000000">LoginComponent</text>
</g>
<!-- LoginModule -->
<g id="node2" class="node">
<title>LoginModule</title>
<polygon fill="#8dd3c7" stroke="#000000" points="530.493,-187 527.493,-191 506.493,-191 503.493,-187 437.507,-187 437.507,-151 530.493,-151 530.493,-187"/>
<text text-anchor="middle" x="484" y="-164.8" font-family="Times,serif" font-size="14.00" fill="#000000">LoginModule</text>
</g>
<!-- LoginComponent&#45;&gt;LoginModule -->
<g id="edge1" class="edge">
<title>LoginComponent&#45;&gt;LoginModule</title>
<path fill="none" stroke="#000000" d="M742,-122.2843C742,-143.3211 742,-175 742,-175 742,-175 540.7219,-175 540.7219,-175"/>
<polygon fill="#000000" stroke="#000000" points="540.7219,-171.5001 530.7219,-175 540.7218,-178.5001 540.7219,-171.5001"/>
</g>
<!-- CommonModule -->
<g id="node3" class="node">
<title>CommonModule</title>
<polygon fill="#8dd3c7" stroke="#000000" points="660.6681,-122 657.6681,-126 636.6681,-126 633.6681,-122 549.3319,-122 549.3319,-86 660.6681,-86 660.6681,-122"/>
<text text-anchor="middle" x="605" y="-99.8" font-family="Times,serif" font-size="14.00" fill="#000000">CommonModule</text>
</g>
<!-- CommonModule&#45;&gt;LoginModule -->
<g id="edge2" class="edge">
<title>CommonModule&#45;&gt;LoginModule</title>
<path fill="none" stroke="#000000" d="M605,-122.0225C605,-139.3734 605,-163 605,-163 605,-163 540.7818,-163 540.7818,-163"/>
<polygon fill="#000000" stroke="#000000" points="540.7818,-159.5001 530.7818,-163 540.7817,-166.5001 540.7818,-159.5001"/>
</g>
<!-- FormsModule -->
<g id="node4" class="node">
<title>FormsModule</title>
<polygon fill="#8dd3c7" stroke="#000000" points="531.8288,-122 528.8288,-126 507.8288,-126 504.8288,-122 436.1712,-122 436.1712,-86 531.8288,-86 531.8288,-122"/>
<text text-anchor="middle" x="484" y="-99.8" font-family="Times,serif" font-size="14.00" fill="#000000">FormsModule</text>
</g>
<!-- FormsModule&#45;&gt;LoginModule -->
<g id="edge3" class="edge">
<title>FormsModule&#45;&gt;LoginModule</title>
<path fill="none" stroke="#000000" d="M484,-122.1061C484,-122.1061 484,-140.991 484,-140.991"/>
<polygon fill="#000000" stroke="#000000" points="480.5001,-140.9909 484,-150.991 487.5001,-140.991 480.5001,-140.9909"/>
</g>
<!-- RouterModule.forChild(args) -->
<g id="node5" class="node">
<title>RouterModule.forChild(args)</title>
<polygon fill="#8dd3c7" stroke="#000000" points="418.7323,-122 415.7323,-126 394.7323,-126 391.7323,-122 237.2677,-122 237.2677,-86 418.7323,-86 418.7323,-122"/>
<text text-anchor="middle" x="328" y="-99.8" font-family="Times,serif" font-size="14.00" fill="#000000">RouterModule.forChild(args)</text>
</g>
<!-- RouterModule.forChild(args)&#45;&gt;LoginModule -->
<g id="edge4" class="edge">
<title>RouterModule.forChild(args)&#45;&gt;LoginModule</title>
<path fill="none" stroke="#000000" d="M328,-122.0225C328,-139.3734 328,-163 328,-163 328,-163 427.1949,-163 427.1949,-163"/>
<polygon fill="#000000" stroke="#000000" points="427.1949,-166.5001 437.1949,-163 427.1948,-159.5001 427.1949,-166.5001"/>
</g>
<!-- TranslateModule.forChild(args) -->
<g id="node6" class="node">
<title>TranslateModule.forChild(args)</title>
<polygon fill="#8dd3c7" stroke="#000000" points="219.7127,-122 216.7127,-126 195.7127,-126 192.7127,-122 24.2873,-122 24.2873,-86 219.7127,-86 219.7127,-122"/>
<text text-anchor="middle" x="122" y="-99.8" font-family="Times,serif" font-size="14.00" fill="#000000">TranslateModule.forChild(args)</text>
</g>
<!-- TranslateModule.forChild(args)&#45;&gt;LoginModule -->
<g id="edge5" class="edge">
<title>TranslateModule.forChild(args)&#45;&gt;LoginModule</title>
<path fill="none" stroke="#000000" d="M122,-122.2843C122,-143.3211 122,-175 122,-175 122,-175 427.4159,-175 427.4159,-175"/>
<polygon fill="#000000" stroke="#000000" points="427.416,-178.5001 437.4159,-175 427.4159,-171.5001 427.416,-178.5001"/>
</g>
</g>
</svg>
