<?xml version="1.0" encoding="UTF-8" standalone="no"?>
<!DOCTYPE svg PUBLIC "-//W3C//DTD SVG 1.1//EN"
 "http://www.w3.org/Graphics/SVG/1.1/DTD/svg11.dtd">
<!-- Generated by graphviz version 2.40.1 (20161225.0304)
 -->
<!-- Title: dependencies Pages: 1 -->
<svg width="1049pt" height="284pt"
 viewBox="0.00 0.00 1049.00 284.00" xmlns="http://www.w3.org/2000/svg" xmlns:xlink="http://www.w3.org/1999/xlink">
<g id="graph0" class="graph" transform="scale(1 1) rotate(0) translate(4 280)">
<title>dependencies</title>
<polygon fill="#ffffff" stroke="transparent" points="-4,4 -4,-280 1045,-280 1045,4 -4,4"/>
<text text-anchor="start" x="499.5091" y="-42.4" font-family="sans-serif" font-weight="bold" font-size="14.00" fill="#000000">Legend</text>
<polygon fill="#ffffb3" stroke="transparent" points="286.5,-10 286.5,-30 306.5,-30 306.5,-10 286.5,-10"/>
<text text-anchor="start" x="310.129" y="-15.4" font-family="sans-serif" font-size="14.00" fill="#000000"> &#160;Declarations</text>
<polygon fill="#8dd3c7" stroke="transparent" points="399.5,-10 399.5,-30 419.5,-30 419.5,-10 399.5,-10"/>
<text text-anchor="start" x="423.2251" y="-15.4" font-family="sans-serif" font-size="14.00" fill="#000000"> &#160;Module</text>
<polygon fill="#80b1d3" stroke="transparent" points="485.5,-10 485.5,-30 505.5,-30 505.5,-10 485.5,-10"/>
<text text-anchor="start" x="509.2812" y="-15.4" font-family="sans-serif" font-size="14.00" fill="#000000"> &#160;Bootstrap</text>
<polygon fill="#fdb462" stroke="transparent" points="582.5,-10 582.5,-30 602.5,-30 602.5,-10 582.5,-10"/>
<text text-anchor="start" x="606.1732" y="-15.4" font-family="sans-serif" font-size="14.00" fill="#000000"> &#160;Providers</text>
<polygon fill="#fb8072" stroke="transparent" points="678.5,-10 678.5,-30 698.5,-30 698.5,-10 678.5,-10"/>
<text text-anchor="start" x="702.2258" y="-15.4" font-family="sans-serif" font-size="14.00" fill="#000000"> &#160;Exports</text>
<g id="clust1" class="cluster">
<title>cluster_AccountManagementModule</title>
<polygon fill="none" stroke="#000000" stroke-dasharray="1,5" points="8,-70 8,-268 1033,-268 1033,-70 8,-70"/>
</g>
<g id="clust2" class="cluster">
<title>cluster_AccountManagementModule_declarations</title>
<polygon fill="none" stroke="#000000" points="686,-78 686,-130 1025,-130 1025,-78 686,-78"/>
</g>
<g id="clust5" class="cluster">
<title>cluster_AccountManagementModule_imports</title>
<polygon fill="none" stroke="#000000" points="16,-78 16,-130 678,-130 678,-78 16,-78"/>
</g>
<g id="clust6" class="cluster">
<title>cluster_AccountManagementModule_exports</title>
<polygon fill="none" stroke="#000000" points="418,-208 418,-260 568,-260 568,-208 418,-208"/>
</g>
<!-- UserPreferencesComponent -->
<g id="node1" class="node">
<title>UserPreferencesComponent</title>
<polygon fill="#ffffb3" stroke="#000000" points="1016.5408,-122 843.4592,-122 843.4592,-86 1016.5408,-86 1016.5408,-122"/>
<text text-anchor="middle" x="930" y="-99.8" font-family="Times,serif" font-size="14.00" fill="#000000">UserPreferencesComponent</text>
</g>
<!-- AccountManagementModule -->
<g id="node3" class="node">
<title>AccountManagementModule</title>
<polygon fill="#8dd3c7" stroke="#000000" points="583.0604,-187 580.0604,-191 559.0604,-191 556.0604,-187 402.9396,-187 402.9396,-151 583.0604,-151 583.0604,-187"/>
<text text-anchor="middle" x="493" y="-164.8" font-family="Times,serif" font-size="14.00" fill="#000000">AccountManagementModule</text>
</g>
<!-- UserPreferencesComponent&#45;&gt;AccountManagementModule -->
<g id="edge1" class="edge">
<title>UserPreferencesComponent&#45;&gt;AccountManagementModule</title>
<path fill="none" stroke="#000000" d="M930,-122.2843C930,-143.3211 930,-175 930,-175 930,-175 593.2816,-175 593.2816,-175"/>
<polygon fill="#000000" stroke="#000000" points="593.2817,-171.5001 583.2816,-175 593.2816,-178.5001 593.2817,-171.5001"/>
</g>
<!-- UserInfoComponent -->
<g id="node2" class="node">
<title>UserInfoComponent</title>
<polygon fill="#ffffb3" stroke="#000000" points="825.58,-122 694.42,-122 694.42,-86 825.58,-86 825.58,-122"/>
<text text-anchor="middle" x="760" y="-99.8" font-family="Times,serif" font-size="14.00" fill="#000000">UserInfoComponent</text>
</g>
<!-- UserInfoComponent&#45;&gt;AccountManagementModule -->
<g id="edge2" class="edge">
<title>UserInfoComponent&#45;&gt;AccountManagementModule</title>
<path fill="none" stroke="#000000" d="M760,-122.0225C760,-139.3734 760,-163 760,-163 760,-163 593.394,-163 593.394,-163"/>
<polygon fill="#000000" stroke="#000000" points="593.3941,-159.5001 583.394,-163 593.394,-166.5001 593.3941,-159.5001"/>
</g>
<!-- UserInfoComponent  -->
<g id="node9" class="node">
<title>UserInfoComponent </title>
<polygon fill="#fb8072" stroke="#000000" points="560.0807,-252 425.9193,-252 425.9193,-216 560.0807,-216 560.0807,-252"/>
<text text-anchor="middle" x="493" y="-229.8" font-family="Times,serif" font-size="14.00" fill="#000000">UserInfoComponent </text>
</g>
<!-- AccountManagementModule&#45;&gt;UserInfoComponent  -->
<g id="edge8" class="edge">
<title>AccountManagementModule&#45;&gt;UserInfoComponent </title>
<path fill="none" stroke="#000000" stroke-dasharray="5,2" d="M493,-187.1061C493,-187.1061 493,-205.991 493,-205.991"/>
<polygon fill="#000000" stroke="#000000" points="489.5001,-205.9909 493,-215.991 496.5001,-205.991 489.5001,-205.9909"/>
</g>
<!-- CommonModule -->
<g id="node4" class="node">
<title>CommonModule</title>
<polygon fill="#8dd3c7" stroke="#000000" points="669.6681,-122 666.6681,-126 645.6681,-126 642.6681,-122 558.3319,-122 558.3319,-86 669.6681,-86 669.6681,-122"/>
<text text-anchor="middle" x="614" y="-99.8" font-family="Times,serif" font-size="14.00" fill="#000000">CommonModule</text>
</g>
<!-- CommonModule&#45;&gt;AccountManagementModule -->
<g id="edge3" class="edge">
<title>CommonModule&#45;&gt;AccountManagementModule</title>
<path fill="none" stroke="#000000" d="M570.5982,-122.1061C570.5982,-122.1061 570.5982,-140.991 570.5982,-140.991"/>
<polygon fill="#000000" stroke="#000000" points="567.0983,-140.9909 570.5982,-150.991 574.0983,-140.991 567.0983,-140.9909"/>
</g>
<!-- FormsModule -->
<g id="node5" class="node">
<title>FormsModule</title>
<polygon fill="#8dd3c7" stroke="#000000" points="540.8288,-122 537.8288,-126 516.8288,-126 513.8288,-122 445.1712,-122 445.1712,-86 540.8288,-86 540.8288,-122"/>
<text text-anchor="middle" x="493" y="-99.8" font-family="Times,serif" font-size="14.00" fill="#000000">FormsModule</text>
</g>
<!-- FormsModule&#45;&gt;AccountManagementModule -->
<g id="edge4" class="edge">
<title>FormsModule&#45;&gt;AccountManagementModule</title>
<path fill="none" stroke="#000000" d="M493,-122.1061C493,-122.1061 493,-140.991 493,-140.991"/>
<polygon fill="#000000" stroke="#000000" points="489.5001,-140.9909 493,-150.991 496.5001,-140.991 489.5001,-140.9909"/>
</g>
<!-- Select2Module -->
<g id="node6" class="node">
<title>Select2Module</title>
<polygon fill="#8dd3c7" stroke="#000000" points="427.2577,-122 424.2577,-126 403.2577,-126 400.2577,-122 326.7423,-122 326.7423,-86 427.2577,-86 427.2577,-122"/>
<text text-anchor="middle" x="377" y="-99.8" font-family="Times,serif" font-size="14.00" fill="#000000">Select2Module</text>
</g>
<!-- Select2Module&#45;&gt;AccountManagementModule -->
<g id="edge5" class="edge">
<title>Select2Module&#45;&gt;AccountManagementModule</title>
<path fill="none" stroke="#000000" d="M415.1742,-122.1061C415.1742,-122.1061 415.1742,-140.991 415.1742,-140.991"/>
<polygon fill="#000000" stroke="#000000" points="411.6743,-140.9909 415.1742,-150.991 418.6743,-140.991 411.6743,-140.9909"/>
</g>
<!-- ROUTES -->
<g id="node7" class="node">
<title>ROUTES</title>
<polygon fill="#8dd3c7" stroke="#000000" points="308.439,-122 305.439,-126 284.439,-126 281.439,-122 237.561,-122 237.561,-86 308.439,-86 308.439,-122"/>
<text text-anchor="middle" x="273" y="-99.8" font-family="Times,serif" font-size="14.00" fill="#000000">ROUTES</text>
</g>
<!-- ROUTES&#45;&gt;AccountManagementModule -->
<g id="edge6" class="edge">
<title>ROUTES&#45;&gt;AccountManagementModule</title>
<path fill="none" stroke="#000000" d="M273,-122.0225C273,-139.3734 273,-163 273,-163 273,-163 392.8828,-163 392.8828,-163"/>
<polygon fill="#000000" stroke="#000000" points="392.8828,-166.5001 402.8828,-163 392.8828,-159.5001 392.8828,-166.5001"/>
</g>
<!-- TranslateModule.forChild(args) -->
<g id="node8" class="node">
<title>TranslateModule.forChild(args)</title>
<polygon fill="#8dd3c7" stroke="#000000" points="219.7127,-122 216.7127,-126 195.7127,-126 192.7127,-122 24.2873,-122 24.2873,-86 219.7127,-86 219.7127,-122"/>
<text text-anchor="middle" x="122" y="-99.8" font-family="Times,serif" font-size="14.00" fill="#000000">TranslateModule.forChild(args)</text>
</g>
<!-- TranslateModule.forChild(args)&#45;&gt;AccountManagementModule -->
<g id="edge7" class="edge">
<title>TranslateModule.forChild(args)&#45;&gt;AccountManagementModule</title>
<path fill="none" stroke="#000000" d="M122,-122.2843C122,-143.3211 122,-175 122,-175 122,-175 392.7176,-175 392.7176,-175"/>
<polygon fill="#000000" stroke="#000000" points="392.7176,-178.5001 402.7176,-175 392.7176,-171.5001 392.7176,-178.5001"/>
</g>
</g>
</svg>
