<?xml version="1.0" encoding="UTF-8" standalone="no"?>
<!DOCTYPE svg PUBLIC "-//W3C//DTD SVG 1.1//EN"
 "http://www.w3.org/Graphics/SVG/1.1/DTD/svg11.dtd">
<!-- Generated by graphviz version 2.40.1 (20161225.0304)
 -->
<!-- Title: dependencies Pages: 1 -->
<svg width="1347pt" height="211pt"
 viewBox="0.00 0.00 1347.00 211.00" xmlns="http://www.w3.org/2000/svg" xmlns:xlink="http://www.w3.org/1999/xlink">
<g id="graph0" class="graph" transform="scale(1 1) rotate(0) translate(4 207)">
<title>dependencies</title>
<polygon fill="#ffffff" stroke="transparent" points="-4,4 -4,-207 1343,-207 1343,4 -4,4"/>
<text text-anchor="start" x="648.5091" y="-42.4" font-family="sans-serif" font-weight="bold" font-size="14.00" fill="#000000">Legend</text>
<polygon fill="#ffffb3" stroke="transparent" points="435.5,-10 435.5,-30 455.5,-30 455.5,-10 435.5,-10"/>
<text text-anchor="start" x="459.129" y="-15.4" font-family="sans-serif" font-size="14.00" fill="#000000"> &#160;Declarations</text>
<polygon fill="#8dd3c7" stroke="transparent" points="548.5,-10 548.5,-30 568.5,-30 568.5,-10 548.5,-10"/>
<text text-anchor="start" x="572.2251" y="-15.4" font-family="sans-serif" font-size="14.00" fill="#000000"> &#160;Module</text>
<polygon fill="#80b1d3" stroke="transparent" points="634.5,-10 634.5,-30 654.5,-30 654.5,-10 634.5,-10"/>
<text text-anchor="start" x="658.2812" y="-15.4" font-family="sans-serif" font-size="14.00" fill="#000000"> &#160;Bootstrap</text>
<polygon fill="#fdb462" stroke="transparent" points="731.5,-10 731.5,-30 751.5,-30 751.5,-10 731.5,-10"/>
<text text-anchor="start" x="755.1732" y="-15.4" font-family="sans-serif" font-size="14.00" fill="#000000"> &#160;Providers</text>
<polygon fill="#fb8072" stroke="transparent" points="827.5,-10 827.5,-30 847.5,-30 847.5,-10 827.5,-10"/>
<text text-anchor="start" x="851.2258" y="-15.4" font-family="sans-serif" font-size="14.00" fill="#000000"> &#160;Exports</text>
<g id="clust1" class="cluster">
<title>cluster_GroupsManagementModule</title>
<polygon fill="none" stroke="#000000" stroke-dasharray="1,5" points="8,-70 8,-195 1331,-195 1331,-70 8,-70"/>
</g>
<g id="clust2" class="cluster">
<title>cluster_GroupsManagementModule_declarations</title>
<polygon fill="none" stroke="#000000" points="1111,-78 1111,-130 1323,-130 1323,-78 1111,-78"/>
</g>
<g id="clust4" class="cluster">
<title>cluster_GroupsManagementModule_imports</title>
<polygon fill="none" stroke="#000000" points="16,-78 16,-130 1103,-130 1103,-78 16,-78"/>
</g>
<!-- GroupsManagementComponent -->
<g id="node1" class="node">
<title>GroupsManagementComponent</title>
<polygon fill="#ffffb3" stroke="#000000" points="1314.6288,-122 1119.3712,-122 1119.3712,-86 1314.6288,-86 1314.6288,-122"/>
<text text-anchor="middle" x="1217" y="-99.8" font-family="Times,serif" font-size="14.00" fill="#000000">GroupsManagementComponent</text>
</g>
<!-- GroupsManagementModule -->
<g id="node2" class="node">
<title>GroupsManagementModule</title>
<polygon fill="#8dd3c7" stroke="#000000" points="800.8459,-187 797.8459,-191 776.8459,-191 773.8459,-187 627.1541,-187 627.1541,-151 800.8459,-151 800.8459,-187"/>
<text text-anchor="middle" x="714" y="-164.8" font-family="Times,serif" font-size="14.00" fill="#000000">GroupsManagementModule</text>
</g>
<!-- GroupsManagementComponent&#45;&gt;GroupsManagementModule -->
<g id="edge1" class="edge">
<title>GroupsManagementComponent&#45;&gt;GroupsManagementModule</title>
<path fill="none" stroke="#000000" d="M1217,-122.2921C1217,-144.2057 1217,-178 1217,-178 1217,-178 811.0417,-178 811.0417,-178"/>
<polygon fill="#000000" stroke="#000000" points="811.0417,-174.5001 801.0417,-178 811.0416,-181.5001 811.0417,-174.5001"/>
</g>
<!-- CommonModule -->
<g id="node3" class="node">
<title>CommonModule</title>
<polygon fill="#8dd3c7" stroke="#000000" points="1094.6681,-122 1091.6681,-126 1070.6681,-126 1067.6681,-122 983.3319,-122 983.3319,-86 1094.6681,-86 1094.6681,-122"/>
<text text-anchor="middle" x="1039" y="-99.8" font-family="Times,serif" font-size="14.00" fill="#000000">CommonModule</text>
</g>
<!-- CommonModule&#45;&gt;GroupsManagementModule -->
<g id="edge2" class="edge">
<title>CommonModule&#45;&gt;GroupsManagementModule</title>
<path fill="none" stroke="#000000" d="M1039,-122.1061C1039,-141.3391 1039,-169 1039,-169 1039,-169 811.094,-169 811.094,-169"/>
<polygon fill="#000000" stroke="#000000" points="811.0941,-165.5001 801.094,-169 811.094,-172.5001 811.0941,-165.5001"/>
</g>
<!-- ROUTES -->
<g id="node4" class="node">
<title>ROUTES</title>
<polygon fill="#8dd3c7" stroke="#000000" points="965.439,-122 962.439,-126 941.439,-126 938.439,-122 894.561,-122 894.561,-86 965.439,-86 965.439,-122"/>
<text text-anchor="middle" x="930" y="-99.8" font-family="Times,serif" font-size="14.00" fill="#000000">ROUTES</text>
</g>
<!-- ROUTES&#45;&gt;GroupsManagementModule -->
<g id="edge3" class="edge">
<title>ROUTES&#45;&gt;GroupsManagementModule</title>
<path fill="none" stroke="#000000" d="M930,-122.027C930,-138.3976 930,-160 930,-160 930,-160 810.9218,-160 810.9218,-160"/>
<polygon fill="#000000" stroke="#000000" points="810.9218,-156.5001 800.9218,-160 810.9218,-163.5001 810.9218,-156.5001"/>
</g>
<!-- FormsModule -->
<g id="node5" class="node">
<title>FormsModule</title>
<polygon fill="#8dd3c7" stroke="#000000" points="876.8288,-122 873.8288,-126 852.8288,-126 849.8288,-122 781.1712,-122 781.1712,-86 876.8288,-86 876.8288,-122"/>
<text text-anchor="middle" x="829" y="-99.8" font-family="Times,serif" font-size="14.00" fill="#000000">FormsModule</text>
</g>
<!-- FormsModule&#45;&gt;GroupsManagementModule -->
<g id="edge4" class="edge">
<title>FormsModule&#45;&gt;GroupsManagementModule</title>
<path fill="none" stroke="#000000" d="M791.1294,-122.1061C791.1294,-122.1061 791.1294,-140.991 791.1294,-140.991"/>
<polygon fill="#000000" stroke="#000000" points="787.6295,-140.9909 791.1294,-150.991 794.6295,-140.991 787.6295,-140.9909"/>
</g>
<!-- SharedModule -->
<g id="node6" class="node">
<title>SharedModule</title>
<polygon fill="#8dd3c7" stroke="#000000" points="763.4231,-122 760.4231,-126 739.4231,-126 736.4231,-122 664.5769,-122 664.5769,-86 763.4231,-86 763.4231,-122"/>
<text text-anchor="middle" x="714" y="-99.8" font-family="Times,serif" font-size="14.00" fill="#000000">SharedModule</text>
</g>
<!-- SharedModule&#45;&gt;GroupsManagementModule -->
<g id="edge5" class="edge">
<title>SharedModule&#45;&gt;GroupsManagementModule</title>
<path fill="none" stroke="#000000" d="M714,-122.1061C714,-122.1061 714,-140.991 714,-140.991"/>
<polygon fill="#000000" stroke="#000000" points="710.5001,-140.9909 714,-150.991 717.5001,-140.991 710.5001,-140.9909"/>
</g>
<!-- ModalModule -->
<g id="node7" class="node">
<title>ModalModule</title>
<polygon fill="#8dd3c7" stroke="#000000" points="647.0997,-122 644.0997,-126 623.0997,-126 620.0997,-122 550.9003,-122 550.9003,-86 647.0997,-86 647.0997,-122"/>
<text text-anchor="middle" x="599" y="-99.8" font-family="Times,serif" font-size="14.00" fill="#000000">ModalModule</text>
</g>
<!-- ModalModule&#45;&gt;GroupsManagementModule -->
<g id="edge6" class="edge">
<title>ModalModule&#45;&gt;GroupsManagementModule</title>
<path fill="none" stroke="#000000" d="M637.0635,-122.1061C637.0635,-122.1061 637.0635,-140.991 637.0635,-140.991"/>
<polygon fill="#000000" stroke="#000000" points="633.5635,-140.9909 637.0635,-150.991 640.5635,-140.991 633.5635,-140.9909"/>
</g>
<!-- TranslateModule.forChild(args) -->
<g id="node8" class="node">
<title>TranslateModule.forChild(args)</title>
<polygon fill="#8dd3c7" stroke="#000000" points="532.7127,-122 529.7127,-126 508.7127,-126 505.7127,-122 337.2873,-122 337.2873,-86 532.7127,-86 532.7127,-122"/>
<text text-anchor="middle" x="435" y="-99.8" font-family="Times,serif" font-size="14.00" fill="#000000">TranslateModule.forChild(args)</text>
</g>
<!-- TranslateModule.forChild(args)&#45;&gt;GroupsManagementModule -->
<g id="edge7" class="edge">
<title>TranslateModule.forChild(args)&#45;&gt;GroupsManagementModule</title>
<path fill="none" stroke="#000000" d="M435,-122.027C435,-138.3976 435,-160 435,-160 435,-160 616.8703,-160 616.8703,-160"/>
<polygon fill="#000000" stroke="#000000" points="616.8703,-163.5001 626.8703,-160 616.8703,-156.5001 616.8703,-163.5001"/>
</g>
<!-- NgxDatatableModule -->
<g id="node9" class="node">
<title>NgxDatatableModule</title>
<polygon fill="#8dd3c7" stroke="#000000" points="319.7935,-122 316.7935,-126 295.7935,-126 292.7935,-122 182.2065,-122 182.2065,-86 319.7935,-86 319.7935,-122"/>
<text text-anchor="middle" x="251" y="-99.8" font-family="Times,serif" font-size="14.00" fill="#000000">NgxDatatableModule</text>
</g>
<!-- NgxDatatableModule&#45;&gt;GroupsManagementModule -->
<g id="edge8" class="edge">
<title>NgxDatatableModule&#45;&gt;GroupsManagementModule</title>
<path fill="none" stroke="#000000" d="M251,-122.1061C251,-141.3391 251,-169 251,-169 251,-169 616.9132,-169 616.9132,-169"/>
<polygon fill="#000000" stroke="#000000" points="616.9133,-172.5001 626.9132,-169 616.9132,-165.5001 616.9133,-172.5001"/>
</g>
<!-- MonacoEditorModule -->
<g id="node10" class="node">
<title>MonacoEditorModule</title>
<polygon fill="#8dd3c7" stroke="#000000" points="164.4186,-122 161.4186,-126 140.4186,-126 137.4186,-122 23.5814,-122 23.5814,-86 164.4186,-86 164.4186,-122"/>
<text text-anchor="middle" x="94" y="-99.8" font-family="Times,serif" font-size="14.00" fill="#000000">MonacoEditorModule</text>
</g>
<!-- MonacoEditorModule&#45;&gt;GroupsManagementModule -->
<g id="edge9" class="edge">
<title>MonacoEditorModule&#45;&gt;GroupsManagementModule</title>
<path fill="none" stroke="#000000" d="M94,-122.2921C94,-144.2057 94,-178 94,-178 94,-178 617.1388,-178 617.1388,-178"/>
<polygon fill="#000000" stroke="#000000" points="617.1389,-181.5001 627.1388,-178 617.1388,-174.5001 617.1389,-181.5001"/>
</g>
</g>
</svg>
