<?xml version="1.0" encoding="UTF-8" standalone="no"?>
<!DOCTYPE svg PUBLIC "-//W3C//DTD SVG 1.1//EN"
 "http://www.w3.org/Graphics/SVG/1.1/DTD/svg11.dtd">
<!-- Generated by graphviz version 2.40.1 (20161225.0304)
 -->
<!-- Title: dependencies Pages: 1 -->
<svg width="504pt" height="284pt"
 viewBox="0.00 0.00 504.00 284.00" xmlns="http://www.w3.org/2000/svg" xmlns:xlink="http://www.w3.org/1999/xlink">
<g id="graph0" class="graph" transform="scale(1 1) rotate(0) translate(4 280)">
<title>dependencies</title>
<polygon fill="#ffffff" stroke="transparent" points="-4,4 -4,-280 500,-280 500,4 -4,4"/>
<text text-anchor="start" x="227.0091" y="-42.4" font-family="sans-serif" font-weight="bold" font-size="14.00" fill="#000000">Legend</text>
<polygon fill="#ffffb3" stroke="transparent" points="14,-10 14,-30 34,-30 34,-10 14,-10"/>
<text text-anchor="start" x="37.629" y="-15.4" font-family="sans-serif" font-size="14.00" fill="#000000"> &#160;Declarations</text>
<polygon fill="#8dd3c7" stroke="transparent" points="127,-10 127,-30 147,-30 147,-10 127,-10"/>
<text text-anchor="start" x="150.7251" y="-15.4" font-family="sans-serif" font-size="14.00" fill="#000000"> &#160;Module</text>
<polygon fill="#80b1d3" stroke="transparent" points="213,-10 213,-30 233,-30 233,-10 213,-10"/>
<text text-anchor="start" x="236.7812" y="-15.4" font-family="sans-serif" font-size="14.00" fill="#000000"> &#160;Bootstrap</text>
<polygon fill="#fdb462" stroke="transparent" points="310,-10 310,-30 330,-30 330,-10 310,-10"/>
<text text-anchor="start" x="333.6732" y="-15.4" font-family="sans-serif" font-size="14.00" fill="#000000"> &#160;Providers</text>
<polygon fill="#fb8072" stroke="transparent" points="406,-10 406,-30 426,-30 426,-10 406,-10"/>
<text text-anchor="start" x="429.7258" y="-15.4" font-family="sans-serif" font-size="14.00" fill="#000000"> &#160;Exports</text>
<g id="clust1" class="cluster">
<title>cluster_NgxSmoothDnDModule</title>
<polygon fill="none" stroke="#000000" stroke-dasharray="1,5" points="81,-70 81,-268 415,-268 415,-70 81,-70"/>
</g>
<g id="clust2" class="cluster">
<title>cluster_NgxSmoothDnDModule_declarations</title>
<polygon fill="none" stroke="#000000" points="93,-78 93,-130 403,-130 403,-78 93,-78"/>
</g>
<g id="clust6" class="cluster">
<title>cluster_NgxSmoothDnDModule_exports</title>
<polygon fill="none" stroke="#000000" points="89,-208 89,-260 407,-260 407,-208 89,-208"/>
</g>
<!-- ContainerComponent -->
<g id="node1" class="node">
<title>ContainerComponent</title>
<polygon fill="#ffffb3" stroke="#000000" points="395.0408,-122 258.9592,-122 258.9592,-86 395.0408,-86 395.0408,-122"/>
<text text-anchor="middle" x="327" y="-99.8" font-family="Times,serif" font-size="14.00" fill="#000000">ContainerComponent</text>
</g>
<!-- NgxSmoothDnDModule -->
<g id="node3" class="node">
<title>NgxSmoothDnDModule</title>
<polygon fill="#8dd3c7" stroke="#000000" points="249.434,-187 246.434,-191 225.434,-191 222.434,-187 94.566,-187 94.566,-151 249.434,-151 249.434,-187"/>
<text text-anchor="middle" x="172" y="-164.8" font-family="Times,serif" font-size="14.00" fill="#000000">NgxSmoothDnDModule</text>
</g>
<!-- ContainerComponent&#45;&gt;NgxSmoothDnDModule -->
<g id="edge1" class="edge">
<title>ContainerComponent&#45;&gt;NgxSmoothDnDModule</title>
<path fill="none" stroke="#000000" d="M258.9242,-104C250.6324,-104 245.0169,-104 245.0169,-104 245.0169,-104 245.0169,-140.8939 245.0169,-140.8939"/>
<polygon fill="#000000" stroke="#000000" points="241.5169,-140.8938 245.0169,-150.8939 248.5169,-140.8939 241.5169,-140.8938"/>
</g>
<!-- DraggableComponent -->
<g id="node2" class="node">
<title>DraggableComponent</title>
<polygon fill="#ffffb3" stroke="#000000" points="240.6345,-122 101.3655,-122 101.3655,-86 240.6345,-86 240.6345,-122"/>
<text text-anchor="middle" x="171" y="-99.8" font-family="Times,serif" font-size="14.00" fill="#000000">DraggableComponent</text>
</g>
<!-- DraggableComponent&#45;&gt;NgxSmoothDnDModule -->
<g id="edge2" class="edge">
<title>DraggableComponent&#45;&gt;NgxSmoothDnDModule</title>
<path fill="none" stroke="#000000" d="M171,-122.1061C171,-122.1061 171,-140.991 171,-140.991"/>
<polygon fill="#000000" stroke="#000000" points="167.5001,-140.9909 171,-150.991 174.5001,-140.991 167.5001,-140.9909"/>
</g>
<!-- ContainerComponent  -->
<g id="node4" class="node">
<title>ContainerComponent </title>
<polygon fill="#fb8072" stroke="#000000" points="399.04,-252 258.96,-252 258.96,-216 399.04,-216 399.04,-252"/>
<text text-anchor="middle" x="329" y="-229.8" font-family="Times,serif" font-size="14.00" fill="#000000">ContainerComponent </text>
</g>
<!-- NgxSmoothDnDModule&#45;&gt;ContainerComponent  -->
<g id="edge3" class="edge">
<title>NgxSmoothDnDModule&#45;&gt;ContainerComponent </title>
<path fill="none" stroke="#000000" stroke-dasharray="5,2" d="M244.8919,-187.1061C244.8919,-206.3391 244.8919,-234 244.8919,-234 244.8919,-234 248.7806,-234 248.7806,-234"/>
<polygon fill="#000000" stroke="#000000" points="248.7806,-237.5001 258.7806,-234 248.7806,-230.5001 248.7806,-237.5001"/>
</g>
<!-- DraggableComponent  -->
<g id="node5" class="node">
<title>DraggableComponent </title>
<polygon fill="#fb8072" stroke="#000000" points="240.6341,-252 97.3659,-252 97.3659,-216 240.6341,-216 240.6341,-252"/>
<text text-anchor="middle" x="169" y="-229.8" font-family="Times,serif" font-size="14.00" fill="#000000">DraggableComponent </text>
</g>
<!-- NgxSmoothDnDModule&#45;&gt;DraggableComponent  -->
<g id="edge4" class="edge">
<title>NgxSmoothDnDModule&#45;&gt;DraggableComponent </title>
<path fill="none" stroke="#000000" stroke-dasharray="5,2" d="M169,-187.1061C169,-187.1061 169,-205.991 169,-205.991"/>
<polygon fill="#000000" stroke="#000000" points="165.5001,-205.9909 169,-215.991 172.5001,-205.991 165.5001,-205.9909"/>
</g>
</g>
</svg>
