<?xml version="1.0" encoding="UTF-8" standalone="no"?>
<!DOCTYPE svg PUBLIC "-//W3C//DTD SVG 1.1//EN"
 "http://www.w3.org/Graphics/SVG/1.1/DTD/svg11.dtd">
<!-- Generated by graphviz version 2.40.1 (20161225.0304)
 -->
<!-- Title: dependencies Pages: 1 -->
<svg width="5424pt" height="284pt"
 viewBox="0.00 0.00 5424.00 284.00" xmlns="http://www.w3.org/2000/svg" xmlns:xlink="http://www.w3.org/1999/xlink">
<g id="graph0" class="graph" transform="scale(1 1) rotate(0) translate(4 280)">
<title>dependencies</title>
<polygon fill="#ffffff" stroke="transparent" points="-4,4 -4,-280 5420,-280 5420,4 -4,4"/>
<text text-anchor="start" x="2687.0091" y="-42.4" font-family="sans-serif" font-weight="bold" font-size="14.00" fill="#000000">Legend</text>
<polygon fill="#ffffb3" stroke="transparent" points="2474,-10 2474,-30 2494,-30 2494,-10 2474,-10"/>
<text text-anchor="start" x="2497.629" y="-15.4" font-family="sans-serif" font-size="14.00" fill="#000000"> &#160;Declarations</text>
<polygon fill="#8dd3c7" stroke="transparent" points="2587,-10 2587,-30 2607,-30 2607,-10 2587,-10"/>
<text text-anchor="start" x="2610.7251" y="-15.4" font-family="sans-serif" font-size="14.00" fill="#000000"> &#160;Module</text>
<polygon fill="#80b1d3" stroke="transparent" points="2673,-10 2673,-30 2693,-30 2693,-10 2673,-10"/>
<text text-anchor="start" x="2696.7812" y="-15.4" font-family="sans-serif" font-size="14.00" fill="#000000"> &#160;Bootstrap</text>
<polygon fill="#fdb462" stroke="transparent" points="2770,-10 2770,-30 2790,-30 2790,-10 2770,-10"/>
<text text-anchor="start" x="2793.6732" y="-15.4" font-family="sans-serif" font-size="14.00" fill="#000000"> &#160;Providers</text>
<polygon fill="#fb8072" stroke="transparent" points="2866,-10 2866,-30 2886,-30 2886,-10 2866,-10"/>
<text text-anchor="start" x="2889.7258" y="-15.4" font-family="sans-serif" font-size="14.00" fill="#000000"> &#160;Exports</text>
<g id="clust1" class="cluster">
<title>cluster_AppModule</title>
<polygon fill="none" stroke="#000000" stroke-dasharray="1,5" points="8,-70 8,-268 5408,-268 5408,-70 8,-70"/>
</g>
<g id="clust2" class="cluster">
<title>cluster_AppModule_declarations</title>
<polygon fill="none" stroke="#000000" points="4011,-78 4011,-130 5400,-130 5400,-78 4011,-78"/>
</g>
<g id="clust12" class="cluster">
<title>cluster_AppModule_imports</title>
<polygon fill="none" stroke="#000000" points="1091,-78 1091,-130 4003,-130 4003,-78 1091,-78"/>
</g>
<g id="clust14" class="cluster">
<title>cluster_AppModule_bootstrap</title>
<polygon fill="none" stroke="#000000" points="2917,-208 2917,-260 3041,-260 3041,-208 2917,-208"/>
</g>
<g id="clust15" class="cluster">
<title>cluster_AppModule_providers</title>
<polygon fill="none" stroke="#000000" points="16,-78 16,-130 1083,-130 1083,-78 16,-78"/>
</g>
<!-- AppComponent -->
<g id="node1" class="node">
<title>AppComponent</title>
<polygon fill="#ffffb3" stroke="#000000" points="5391.9399,-122 5286.0601,-122 5286.0601,-86 5391.9399,-86 5391.9399,-122"/>
<text text-anchor="middle" x="5339" y="-99.8" font-family="Times,serif" font-size="14.00" fill="#000000">AppComponent</text>
</g>
<!-- AppModule -->
<g id="node10" class="node">
<title>AppModule</title>
<polygon fill="#8dd3c7" stroke="#000000" points="3020.6571,-187 3017.6571,-191 2996.6571,-191 2993.6571,-187 2937.3429,-187 2937.3429,-151 3020.6571,-151 3020.6571,-187"/>
<text text-anchor="middle" x="2979" y="-164.8" font-family="Times,serif" font-size="14.00" fill="#000000">AppModule</text>
</g>
<!-- AppComponent&#45;&gt;AppModule -->
<g id="edge1" class="edge">
<title>AppComponent&#45;&gt;AppModule</title>
<path fill="none" stroke="#000000" d="M5339,-122.3802C5339,-146.2785 5339,-185 5339,-185 5339,-185 3030.7124,-185 3030.7124,-185"/>
<polygon fill="#000000" stroke="#000000" points="3030.7124,-181.5001 3020.7124,-185 3030.7123,-188.5001 3030.7124,-181.5001"/>
</g>
<!-- ErrorComponent -->
<g id="node2" class="node">
<title>ErrorComponent</title>
<polygon fill="#ffffb3" stroke="#000000" points="5268.3669,-122 5157.6331,-122 5157.6331,-86 5268.3669,-86 5268.3669,-122"/>
<text text-anchor="middle" x="5213" y="-99.8" font-family="Times,serif" font-size="14.00" fill="#000000">ErrorComponent</text>
</g>
<!-- ErrorComponent&#45;&gt;AppModule -->
<g id="edge2" class="edge">
<title>ErrorComponent&#45;&gt;AppModule</title>
<path fill="none" stroke="#000000" d="M5213,-122.3228C5213,-145.6602 5213,-183 5213,-183 5213,-183 3031.1408,-183 3031.1408,-183"/>
<polygon fill="#000000" stroke="#000000" points="3031.1408,-179.5001 3021.1408,-183 3031.1407,-186.5001 3031.1408,-179.5001"/>
</g>
<!-- EqualValidator -->
<g id="node3" class="node">
<title>EqualValidator</title>
<polygon fill="#ffffb3" stroke="#000000" points="5139.5271,-122 5038.4729,-122 5038.4729,-86 5139.5271,-86 5139.5271,-122"/>
<text text-anchor="middle" x="5089" y="-99.8" font-family="Times,serif" font-size="14.00" fill="#000000">EqualValidator</text>
</g>
<!-- EqualValidator&#45;&gt;AppModule -->
<g id="edge3" class="edge">
<title>EqualValidator&#45;&gt;AppModule</title>
<path fill="none" stroke="#000000" d="M5089,-122.2479C5089,-145.0179 5089,-181 5089,-181 5089,-181 3030.6737,-181 3030.6737,-181"/>
<polygon fill="#000000" stroke="#000000" points="3030.6738,-177.5001 3020.6737,-181 3030.6737,-184.5001 3030.6738,-177.5001"/>
</g>
<!-- LastElementDirective -->
<g id="node4" class="node">
<title>LastElementDirective</title>
<polygon fill="#ffffb3" stroke="#000000" points="5020.3389,-122 4881.6611,-122 4881.6611,-86 5020.3389,-86 5020.3389,-122"/>
<text text-anchor="middle" x="4951" y="-99.8" font-family="Times,serif" font-size="14.00" fill="#000000">LastElementDirective</text>
</g>
<!-- LastElementDirective&#45;&gt;AppModule -->
<g id="edge4" class="edge">
<title>LastElementDirective&#45;&gt;AppModule</title>
<path fill="none" stroke="#000000" d="M4951,-122.2921C4951,-144.2057 4951,-178 4951,-178 4951,-178 3031.1003,-178 3031.1003,-178"/>
<polygon fill="#000000" stroke="#000000" points="3031.1004,-174.5001 3021.1003,-178 3031.1003,-181.5001 3031.1004,-174.5001"/>
</g>
<!-- AutofocusDirective -->
<g id="node5" class="node">
<title>AutofocusDirective</title>
<polygon fill="#ffffb3" stroke="#000000" points="4863.4004,-122 4736.5996,-122 4736.5996,-86 4863.4004,-86 4863.4004,-122"/>
<text text-anchor="middle" x="4800" y="-99.8" font-family="Times,serif" font-size="14.00" fill="#000000">AutofocusDirective</text>
</g>
<!-- AutofocusDirective&#45;&gt;AppModule -->
<g id="edge5" class="edge">
<title>AutofocusDirective&#45;&gt;AppModule</title>
<path fill="none" stroke="#000000" d="M4800,-122.1686C4800,-143.498 4800,-176 4800,-176 4800,-176 3030.8929,-176 3030.8929,-176"/>
<polygon fill="#000000" stroke="#000000" points="3030.8929,-172.5001 3020.8929,-176 3030.8929,-179.5001 3030.8929,-172.5001"/>
</g>
<!-- BootstrapTabDirective -->
<g id="node6" class="node">
<title>BootstrapTabDirective</title>
<polygon fill="#ffffb3" stroke="#000000" points="4719.2879,-122 4574.7121,-122 4574.7121,-86 4719.2879,-86 4719.2879,-122"/>
<text text-anchor="middle" x="4647" y="-99.8" font-family="Times,serif" font-size="14.00" fill="#000000">BootstrapTabDirective</text>
</g>
<!-- BootstrapTabDirective&#45;&gt;AppModule -->
<g id="edge6" class="edge">
<title>BootstrapTabDirective&#45;&gt;AppModule</title>
<path fill="none" stroke="#000000" d="M4647,-122.0267C4647,-142.7672 4647,-174 4647,-174 4647,-174 3031.0659,-174 3031.0659,-174"/>
<polygon fill="#000000" stroke="#000000" points="3031.066,-170.5001 3021.0659,-174 3031.0659,-177.5001 3031.066,-170.5001"/>
</g>
<!-- BootstrapToggleDirective -->
<g id="node7" class="node">
<title>BootstrapToggleDirective</title>
<polygon fill="#ffffb3" stroke="#000000" points="4557.1783,-122 4394.8217,-122 4394.8217,-86 4557.1783,-86 4557.1783,-122"/>
<text text-anchor="middle" x="4476" y="-99.8" font-family="Times,serif" font-size="14.00" fill="#000000">BootstrapToggleDirective</text>
</g>
<!-- BootstrapToggleDirective&#45;&gt;AppModule -->
<g id="edge7" class="edge">
<title>BootstrapToggleDirective&#45;&gt;AppModule</title>
<path fill="none" stroke="#000000" d="M4476,-122.2228C4476,-142.3652 4476,-172 4476,-172 4476,-172 3030.995,-172 3030.995,-172"/>
<polygon fill="#000000" stroke="#000000" points="3030.995,-168.5001 3020.995,-172 3030.9949,-175.5001 3030.995,-168.5001"/>
</g>
<!-- BootstrapDatepickerDirective -->
<g id="node8" class="node">
<title>BootstrapDatepickerDirective</title>
<polygon fill="#ffffb3" stroke="#000000" points="4376.9272,-122 4193.0728,-122 4193.0728,-86 4376.9272,-86 4376.9272,-122"/>
<text text-anchor="middle" x="4285" y="-99.8" font-family="Times,serif" font-size="14.00" fill="#000000">BootstrapDatepickerDirective</text>
</g>
<!-- BootstrapDatepickerDirective&#45;&gt;AppModule -->
<g id="edge8" class="edge">
<title>BootstrapDatepickerDirective&#45;&gt;AppModule</title>
<path fill="none" stroke="#000000" d="M4285,-122.1061C4285,-141.3391 4285,-169 4285,-169 4285,-169 3030.9738,-169 3030.9738,-169"/>
<polygon fill="#000000" stroke="#000000" points="3030.9738,-165.5001 3020.9738,-169 3030.9738,-172.5001 3030.9738,-165.5001"/>
</g>
<!-- BootstrapSelectDirective -->
<g id="node9" class="node">
<title>BootstrapSelectDirective</title>
<polygon fill="#ffffb3" stroke="#000000" points="4175.2282,-122 4018.7718,-122 4018.7718,-86 4175.2282,-86 4175.2282,-122"/>
<text text-anchor="middle" x="4097" y="-99.8" font-family="Times,serif" font-size="14.00" fill="#000000">BootstrapSelectDirective</text>
</g>
<!-- BootstrapSelectDirective&#45;&gt;AppModule -->
<g id="edge9" class="edge">
<title>BootstrapSelectDirective&#45;&gt;AppModule</title>
<path fill="none" stroke="#000000" d="M4097,-122.2222C4097,-140.8285 4097,-167 4097,-167 4097,-167 3030.7865,-167 3030.7865,-167"/>
<polygon fill="#000000" stroke="#000000" points="3030.7865,-163.5001 3020.7865,-167 3030.7864,-170.5001 3030.7865,-163.5001"/>
</g>
<!-- AppComponent  -->
<g id="node28" class="node">
<title>AppComponent </title>
<polygon fill="#80b1d3" stroke="#000000" points="3033.439,-252 2924.561,-252 2924.561,-216 3033.439,-216 3033.439,-252"/>
<text text-anchor="middle" x="2979" y="-229.8" font-family="Times,serif" font-size="14.00" fill="#000000">AppComponent </text>
</g>
<!-- AppModule&#45;&gt;AppComponent  -->
<g id="edge27" class="edge">
<title>AppModule&#45;&gt;AppComponent </title>
<path fill="none" stroke="#000000" stroke-dasharray="1,5" d="M2979,-187.1061C2979,-187.1061 2979,-205.991 2979,-205.991"/>
<polygon fill="#000000" stroke="#000000" points="2975.5001,-205.9909 2979,-215.991 2982.5001,-205.991 2975.5001,-205.9909"/>
</g>
<!-- BrowserModule -->
<g id="node11" class="node">
<title>BrowserModule</title>
<polygon fill="#8dd3c7" stroke="#000000" points="3995.4734,-122 3992.4734,-126 3971.4734,-126 3968.4734,-122 3888.5266,-122 3888.5266,-86 3995.4734,-86 3995.4734,-122"/>
<text text-anchor="middle" x="3942" y="-99.8" font-family="Times,serif" font-size="14.00" fill="#000000">BrowserModule</text>
</g>
<!-- BrowserModule&#45;&gt;AppModule -->
<g id="edge10" class="edge">
<title>BrowserModule&#45;&gt;AppModule</title>
<path fill="none" stroke="#000000" d="M3942,-122.302C3942,-140.2699 3942,-165 3942,-165 3942,-165 3030.688,-165 3030.688,-165"/>
<polygon fill="#000000" stroke="#000000" points="3030.688,-161.5001 3020.688,-165 3030.688,-168.5001 3030.688,-161.5001"/>
</g>
<!-- BrowserAnimationsModule -->
<g id="node12" class="node">
<title>BrowserAnimationsModule</title>
<polygon fill="#8dd3c7" stroke="#000000" points="3870.3019,-122 3867.3019,-126 3846.3019,-126 3843.3019,-122 3697.6981,-122 3697.6981,-86 3870.3019,-86 3870.3019,-122"/>
<text text-anchor="middle" x="3784" y="-99.8" font-family="Times,serif" font-size="14.00" fill="#000000">BrowserAnimationsModule</text>
</g>
<!-- BrowserAnimationsModule&#45;&gt;AppModule -->
<g id="edge11" class="edge">
<title>BrowserAnimationsModule&#45;&gt;AppModule</title>
<path fill="none" stroke="#000000" d="M3784,-122.0225C3784,-139.3734 3784,-163 3784,-163 3784,-163 3030.8656,-163 3030.8656,-163"/>
<polygon fill="#000000" stroke="#000000" points="3030.8656,-159.5001 3020.8656,-163 3030.8656,-166.5001 3030.8656,-159.5001"/>
</g>
<!-- FormsModule -->
<g id="node13" class="node">
<title>FormsModule</title>
<polygon fill="#8dd3c7" stroke="#000000" points="3679.8288,-122 3676.8288,-126 3655.8288,-126 3652.8288,-122 3584.1712,-122 3584.1712,-86 3679.8288,-86 3679.8288,-122"/>
<text text-anchor="middle" x="3632" y="-99.8" font-family="Times,serif" font-size="14.00" fill="#000000">FormsModule</text>
</g>
<!-- FormsModule&#45;&gt;AppModule -->
<g id="edge12" class="edge">
<title>FormsModule&#45;&gt;AppModule</title>
<path fill="none" stroke="#000000" d="M3632,-122.027C3632,-138.3976 3632,-160 3632,-160 3632,-160 3030.8414,-160 3030.8414,-160"/>
<polygon fill="#000000" stroke="#000000" points="3030.8415,-156.5001 3020.8414,-160 3030.8414,-163.5001 3030.8415,-156.5001"/>
</g>
<!-- AppRoutingModule -->
<g id="node14" class="node">
<title>AppRoutingModule</title>
<polygon fill="#8dd3c7" stroke="#000000" points="3566.2744,-122 3563.2744,-126 3542.2744,-126 3539.2744,-122 3437.7256,-122 3437.7256,-86 3566.2744,-86 3566.2744,-122"/>
<text text-anchor="middle" x="3502" y="-99.8" font-family="Times,serif" font-size="14.00" fill="#000000">AppRoutingModule</text>
</g>
<!-- AppRoutingModule&#45;&gt;AppModule -->
<g id="edge13" class="edge">
<title>AppRoutingModule&#45;&gt;AppModule</title>
<path fill="none" stroke="#000000" d="M3502,-122.2819C3502,-137.9478 3502,-158 3502,-158 3502,-158 3030.9152,-158 3030.9152,-158"/>
<polygon fill="#000000" stroke="#000000" points="3030.9152,-154.5001 3020.9152,-158 3030.9152,-161.5001 3030.9152,-154.5001"/>
</g>
<!-- HttpClientModule -->
<g id="node15" class="node">
<title>HttpClientModule</title>
<polygon fill="#8dd3c7" stroke="#000000" points="3419.1611,-122 3416.1611,-126 3395.1611,-126 3392.1611,-122 3300.8389,-122 3300.8389,-86 3419.1611,-86 3419.1611,-122"/>
<text text-anchor="middle" x="3360" y="-99.8" font-family="Times,serif" font-size="14.00" fill="#000000">HttpClientModule</text>
</g>
<!-- HttpClientModule&#45;&gt;AppModule -->
<g id="edge14" class="edge">
<title>HttpClientModule&#45;&gt;AppModule</title>
<path fill="none" stroke="#000000" d="M3360,-122.1871C3360,-137.1824 3360,-156 3360,-156 3360,-156 3030.8635,-156 3030.8635,-156"/>
<polygon fill="#000000" stroke="#000000" points="3030.8636,-152.5001 3020.8635,-156 3030.8635,-159.5001 3030.8636,-152.5001"/>
</g>
<!-- SharedModule -->
<g id="node16" class="node">
<title>SharedModule</title>
<polygon fill="#8dd3c7" stroke="#000000" points="3282.4231,-122 3279.4231,-126 3258.4231,-126 3255.4231,-122 3183.5769,-122 3183.5769,-86 3282.4231,-86 3282.4231,-122"/>
<text text-anchor="middle" x="3233" y="-99.8" font-family="Times,serif" font-size="14.00" fill="#000000">SharedModule</text>
</g>
<!-- SharedModule&#45;&gt;AppModule -->
<g id="edge15" class="edge">
<title>SharedModule&#45;&gt;AppModule</title>
<path fill="none" stroke="#000000" d="M3233,-122.0511C3233,-136.373 3233,-154 3233,-154 3233,-154 3030.6585,-154 3030.6585,-154"/>
<polygon fill="#000000" stroke="#000000" points="3030.6585,-150.5001 3020.6585,-154 3030.6585,-157.5001 3030.6585,-150.5001"/>
</g>
<!-- TranslateModule.forRoot(args) -->
<g id="node17" class="node">
<title>TranslateModule.forRoot(args)</title>
<polygon fill="#8dd3c7" stroke="#000000" points="3165.8223,-122 3162.8223,-126 3141.8223,-126 3138.8223,-122 2974.1777,-122 2974.1777,-86 3165.8223,-86 3165.8223,-122"/>
<text text-anchor="middle" x="3070" y="-99.8" font-family="Times,serif" font-size="14.00" fill="#000000">TranslateModule.forRoot(args)</text>
</g>
<!-- TranslateModule.forRoot(args)&#45;&gt;AppModule -->
<g id="edge16" class="edge">
<title>TranslateModule.forRoot(args)&#45;&gt;AppModule</title>
<path fill="none" stroke="#000000" d="M2997.5836,-122.1061C2997.5836,-122.1061 2997.5836,-140.991 2997.5836,-140.991"/>
<polygon fill="#000000" stroke="#000000" points="2994.0837,-140.9909 2997.5836,-150.991 3001.0837,-140.991 2994.0837,-140.9909"/>
</g>
<!-- NgxDatatableModule -->
<g id="node18" class="node">
<title>NgxDatatableModule</title>
<polygon fill="#8dd3c7" stroke="#000000" points="2956.7935,-122 2953.7935,-126 2932.7935,-126 2929.7935,-122 2819.2065,-122 2819.2065,-86 2956.7935,-86 2956.7935,-122"/>
<text text-anchor="middle" x="2888" y="-99.8" font-family="Times,serif" font-size="14.00" fill="#000000">NgxDatatableModule</text>
</g>
<!-- NgxDatatableModule&#45;&gt;AppModule -->
<g id="edge17" class="edge">
<title>NgxDatatableModule&#45;&gt;AppModule</title>
<path fill="none" stroke="#000000" d="M2946.9092,-122.1061C2946.9092,-122.1061 2946.9092,-140.991 2946.9092,-140.991"/>
<polygon fill="#000000" stroke="#000000" points="2943.4093,-140.9909 2946.9092,-150.991 2950.4093,-140.991 2943.4093,-140.9909"/>
</g>
<!-- ToastyModule.forRoot() -->
<g id="node19" class="node">
<title>ToastyModule.forRoot()</title>
<polygon fill="#8dd3c7" stroke="#000000" points="2801.0218,-122 2798.0218,-126 2777.0218,-126 2774.0218,-122 2646.9782,-122 2646.9782,-86 2801.0218,-86 2801.0218,-122"/>
<text text-anchor="middle" x="2724" y="-99.8" font-family="Times,serif" font-size="14.00" fill="#000000">ToastyModule.forRoot()</text>
</g>
<!-- ToastyModule.forRoot()&#45;&gt;AppModule -->
<g id="edge18" class="edge">
<title>ToastyModule.forRoot()&#45;&gt;AppModule</title>
<path fill="none" stroke="#000000" d="M2724,-122.0511C2724,-136.373 2724,-154 2724,-154 2724,-154 2927.1775,-154 2927.1775,-154"/>
<polygon fill="#000000" stroke="#000000" points="2927.1775,-157.5001 2937.1775,-154 2927.1774,-150.5001 2927.1775,-157.5001"/>
</g>
<!-- TooltipModule.forRoot() -->
<g id="node20" class="node">
<title>TooltipModule.forRoot()</title>
<polygon fill="#8dd3c7" stroke="#000000" points="2628.6439,-122 2625.6439,-126 2604.6439,-126 2601.6439,-122 2471.3561,-122 2471.3561,-86 2628.6439,-86 2628.6439,-122"/>
<text text-anchor="middle" x="2550" y="-99.8" font-family="Times,serif" font-size="14.00" fill="#000000">TooltipModule.forRoot()</text>
</g>
<!-- TooltipModule.forRoot()&#45;&gt;AppModule -->
<g id="edge19" class="edge">
<title>TooltipModule.forRoot()&#45;&gt;AppModule</title>
<path fill="none" stroke="#000000" d="M2550,-122.1871C2550,-137.1824 2550,-156 2550,-156 2550,-156 2927.0846,-156 2927.0846,-156"/>
<polygon fill="#000000" stroke="#000000" points="2927.0846,-159.5001 2937.0846,-156 2927.0845,-152.5001 2927.0846,-159.5001"/>
</g>
<!-- PopoverModule.forRoot() -->
<g id="node21" class="node">
<title>PopoverModule.forRoot()</title>
<polygon fill="#8dd3c7" stroke="#000000" points="2453.0777,-122 2450.0777,-126 2429.0777,-126 2426.0777,-122 2290.9223,-122 2290.9223,-86 2453.0777,-86 2453.0777,-122"/>
<text text-anchor="middle" x="2372" y="-99.8" font-family="Times,serif" font-size="14.00" fill="#000000">PopoverModule.forRoot()</text>
</g>
<!-- PopoverModule.forRoot()&#45;&gt;AppModule -->
<g id="edge20" class="edge">
<title>PopoverModule.forRoot()&#45;&gt;AppModule</title>
<path fill="none" stroke="#000000" d="M2372,-122.2819C2372,-137.9478 2372,-158 2372,-158 2372,-158 2927.2784,-158 2927.2784,-158"/>
<polygon fill="#000000" stroke="#000000" points="2927.2785,-161.5001 2937.2784,-158 2927.2784,-154.5001 2927.2785,-161.5001"/>
</g>
<!-- CarouselModule.forRoot() -->
<g id="node22" class="node">
<title>CarouselModule.forRoot()</title>
<polygon fill="#8dd3c7" stroke="#000000" points="2272.6813,-122 2269.6813,-126 2248.6813,-126 2245.6813,-122 2107.3187,-122 2107.3187,-86 2272.6813,-86 2272.6813,-122"/>
<text text-anchor="middle" x="2190" y="-99.8" font-family="Times,serif" font-size="14.00" fill="#000000">CarouselModule.forRoot()</text>
</g>
<!-- CarouselModule.forRoot()&#45;&gt;AppModule -->
<g id="edge21" class="edge">
<title>CarouselModule.forRoot()&#45;&gt;AppModule</title>
<path fill="none" stroke="#000000" d="M2190,-122.027C2190,-138.3976 2190,-160 2190,-160 2190,-160 2927.137,-160 2927.137,-160"/>
<polygon fill="#000000" stroke="#000000" points="2927.137,-163.5001 2937.137,-160 2927.137,-156.5001 2927.137,-163.5001"/>
</g>
<!-- ButtonsModule.forRoot() -->
<g id="node23" class="node">
<title>ButtonsModule.forRoot()</title>
<polygon fill="#8dd3c7" stroke="#000000" points="2088.9825,-122 2085.9825,-126 2064.9825,-126 2061.9825,-122 1929.0175,-122 1929.0175,-86 2088.9825,-86 2088.9825,-122"/>
<text text-anchor="middle" x="2009" y="-99.8" font-family="Times,serif" font-size="14.00" fill="#000000">ButtonsModule.forRoot()</text>
</g>
<!-- ButtonsModule.forRoot()&#45;&gt;AppModule -->
<g id="edge22" class="edge">
<title>ButtonsModule.forRoot()&#45;&gt;AppModule</title>
<path fill="none" stroke="#000000" d="M2009,-122.0225C2009,-139.3734 2009,-163 2009,-163 2009,-163 2927.3203,-163 2927.3203,-163"/>
<polygon fill="#000000" stroke="#000000" points="2927.3203,-166.5001 2937.3203,-163 2927.3203,-159.5001 2927.3203,-166.5001"/>
</g>
<!-- ModalModule.forRoot() -->
<g id="node24" class="node">
<title>ModalModule.forRoot()</title>
<polygon fill="#8dd3c7" stroke="#000000" points="1911.4699,-122 1908.4699,-126 1887.4699,-126 1884.4699,-122 1758.5301,-122 1758.5301,-86 1911.4699,-86 1911.4699,-122"/>
<text text-anchor="middle" x="1835" y="-99.8" font-family="Times,serif" font-size="14.00" fill="#000000">ModalModule.forRoot()</text>
</g>
<!-- ModalModule.forRoot()&#45;&gt;AppModule -->
<g id="edge23" class="edge">
<title>ModalModule.forRoot()&#45;&gt;AppModule</title>
<path fill="none" stroke="#000000" d="M1835,-122.302C1835,-140.2699 1835,-165 1835,-165 1835,-165 2927.2688,-165 2927.2688,-165"/>
<polygon fill="#000000" stroke="#000000" points="2927.2688,-168.5001 2937.2688,-165 2927.2687,-161.5001 2927.2688,-168.5001"/>
</g>
<!-- TreeviewModule.forRoot() -->
<g id="node25" class="node">
<title>TreeviewModule.forRoot()</title>
<polygon fill="#8dd3c7" stroke="#000000" points="1740.2738,-122 1737.2738,-126 1716.2738,-126 1713.2738,-122 1571.7262,-122 1571.7262,-86 1740.2738,-86 1740.2738,-122"/>
<text text-anchor="middle" x="1656" y="-99.8" font-family="Times,serif" font-size="14.00" fill="#000000">TreeviewModule.forRoot()</text>
</g>
<!-- TreeviewModule.forRoot()&#45;&gt;AppModule -->
<g id="edge24" class="edge">
<title>TreeviewModule.forRoot()&#45;&gt;AppModule</title>
<path fill="none" stroke="#000000" d="M1656,-122.2222C1656,-140.8285 1656,-167 1656,-167 1656,-167 2927.2201,-167 2927.2201,-167"/>
<polygon fill="#000000" stroke="#000000" points="2927.2202,-170.5001 2937.2201,-167 2927.2201,-163.5001 2927.2202,-170.5001"/>
</g>
<!-- ContextMenuModule.forRoot(args) -->
<g id="node26" class="node">
<title>ContextMenuModule.forRoot(args)</title>
<polygon fill="#8dd3c7" stroke="#000000" points="1553.2309,-122 1550.2309,-126 1529.2309,-126 1526.2309,-122 1336.7691,-122 1336.7691,-86 1553.2309,-86 1553.2309,-122"/>
<text text-anchor="middle" x="1445" y="-99.8" font-family="Times,serif" font-size="14.00" fill="#000000">ContextMenuModule.forRoot(args)</text>
</g>
<!-- ContextMenuModule.forRoot(args)&#45;&gt;AppModule -->
<g id="edge25" class="edge">
<title>ContextMenuModule.forRoot(args)&#45;&gt;AppModule</title>
<path fill="none" stroke="#000000" d="M1445,-122.1061C1445,-141.3391 1445,-169 1445,-169 1445,-169 2927.1736,-169 2927.1736,-169"/>
<polygon fill="#000000" stroke="#000000" points="2927.1737,-172.5001 2937.1736,-169 2927.1736,-165.5001 2927.1737,-172.5001"/>
</g>
<!-- MonacoEditorModule.forRoot(args) -->
<g id="node27" class="node">
<title>MonacoEditorModule.forRoot(args)</title>
<polygon fill="#8dd3c7" stroke="#000000" points="1319.1074,-122 1316.1074,-126 1295.1074,-126 1292.1074,-122 1098.8926,-122 1098.8926,-86 1319.1074,-86 1319.1074,-122"/>
<text text-anchor="middle" x="1209" y="-99.8" font-family="Times,serif" font-size="14.00" fill="#000000">MonacoEditorModule.forRoot(args)</text>
</g>
<!-- MonacoEditorModule.forRoot(args)&#45;&gt;AppModule -->
<g id="edge26" class="edge">
<title>MonacoEditorModule.forRoot(args)&#45;&gt;AppModule</title>
<path fill="none" stroke="#000000" d="M1209,-122.2228C1209,-142.3652 1209,-172 1209,-172 1209,-172 2926.9927,-172 2926.9927,-172"/>
<polygon fill="#000000" stroke="#000000" points="2926.9928,-175.5001 2936.9927,-172 2926.9927,-168.5001 2926.9928,-175.5001"/>
</g>
<!-- APP_PROVIDERS -->
<g id="node29" class="node">
<title>APP_PROVIDERS</title>
<ellipse fill="#fdb462" stroke="#000000" cx="988" cy="-104" rx="87.437" ry="18"/>
<text text-anchor="middle" x="988" y="-99.8" font-family="Times,serif" font-size="14.00" fill="#000000">APP_PROVIDERS</text>
</g>
<!-- APP_PROVIDERS&#45;&gt;AppModule -->
<g id="edge28" class="edge">
<title>APP_PROVIDERS&#45;&gt;AppModule</title>
<path fill="none" stroke="#000000" d="M988,-122.0267C988,-142.7672 988,-174 988,-174 988,-174 2926.9558,-174 2926.9558,-174"/>
<polygon fill="#000000" stroke="#000000" points="2926.9558,-177.5001 2936.9558,-174 2926.9557,-170.5001 2926.9558,-177.5001"/>
</g>
<!-- AppTranslationService -->
<g id="node30" class="node">
<title>AppTranslationService</title>
<ellipse fill="#fdb462" stroke="#000000" cx="782" cy="-104" rx="100.6998" ry="18"/>
<text text-anchor="middle" x="782" y="-99.8" font-family="Times,serif" font-size="14.00" fill="#000000">AppTranslationService</text>
</g>
<!-- AppTranslationService&#45;&gt;AppModule -->
<g id="edge29" class="edge">
<title>AppTranslationService&#45;&gt;AppModule</title>
<path fill="none" stroke="#000000" d="M782,-122.1686C782,-143.498 782,-176 782,-176 782,-176 2927.0738,-176 2927.0738,-176"/>
<polygon fill="#000000" stroke="#000000" points="2927.0738,-179.5001 2937.0738,-176 2927.0738,-172.5001 2927.0738,-179.5001"/>
</g>
<!-- LocalStoreManager -->
<g id="node31" class="node">
<title>LocalStoreManager</title>
<ellipse fill="#fdb462" stroke="#000000" cx="576" cy="-104" rx="87.9394" ry="18"/>
<text text-anchor="middle" x="576" y="-99.8" font-family="Times,serif" font-size="14.00" fill="#000000">LocalStoreManager</text>
</g>
<!-- LocalStoreManager&#45;&gt;AppModule -->
<g id="edge30" class="edge">
<title>LocalStoreManager&#45;&gt;AppModule</title>
<path fill="none" stroke="#000000" d="M576,-122.2921C576,-144.2057 576,-178 576,-178 576,-178 2927.2914,-178 2927.2914,-178"/>
<polygon fill="#000000" stroke="#000000" points="2927.2915,-181.5001 2937.2914,-178 2927.2914,-174.5001 2927.2915,-181.5001"/>
</g>
<!-- EndpointFactory -->
<g id="node32" class="node">
<title>EndpointFactory</title>
<ellipse fill="#fdb462" stroke="#000000" cx="394" cy="-104" rx="75.8856" ry="18"/>
<text text-anchor="middle" x="394" y="-99.8" font-family="Times,serif" font-size="14.00" fill="#000000">EndpointFactory</text>
</g>
<!-- EndpointFactory&#45;&gt;AppModule -->
<g id="edge31" class="edge">
<title>EndpointFactory&#45;&gt;AppModule</title>
<path fill="none" stroke="#000000" d="M394,-122.2479C394,-145.0179 394,-181 394,-181 394,-181 2927.0851,-181 2927.0851,-181"/>
<polygon fill="#000000" stroke="#000000" points="2927.0851,-184.5001 2937.0851,-181 2927.0851,-177.5001 2927.0851,-184.5001"/>
</g>
<!-- TranslatePipe -->
<g id="node33" class="node">
<title>TranslatePipe</title>
<ellipse fill="#fdb462" stroke="#000000" cx="236" cy="-104" rx="64.2591" ry="18"/>
<text text-anchor="middle" x="236" y="-99.8" font-family="Times,serif" font-size="14.00" fill="#000000">TranslatePipe</text>
</g>
<!-- TranslatePipe&#45;&gt;AppModule -->
<g id="edge32" class="edge">
<title>TranslatePipe&#45;&gt;AppModule</title>
<path fill="none" stroke="#000000" d="M236,-122.3228C236,-145.6602 236,-183 236,-183 236,-183 2927.284,-183 2927.284,-183"/>
<polygon fill="#000000" stroke="#000000" points="2927.284,-186.5001 2937.284,-183 2927.2839,-179.5001 2927.284,-186.5001"/>
</g>
<!-- TitleCasePipe -->
<g id="node34" class="node">
<title>TitleCasePipe</title>
<ellipse fill="#fdb462" stroke="#000000" cx="89" cy="-104" rx="65.4208" ry="18"/>
<text text-anchor="middle" x="89" y="-99.8" font-family="Times,serif" font-size="14.00" fill="#000000">TitleCasePipe</text>
</g>
<!-- TitleCasePipe&#45;&gt;AppModule -->
<g id="edge33" class="edge">
<title>TitleCasePipe&#45;&gt;AppModule</title>
<path fill="none" stroke="#000000" d="M89,-122.3802C89,-146.2785 89,-185 89,-185 89,-185 2927.3119,-185 2927.3119,-185"/>
<polygon fill="#000000" stroke="#000000" points="2927.3119,-188.5001 2937.3119,-185 2927.3118,-181.5001 2927.3119,-188.5001"/>
</g>
</g>
</svg>
