<?xml version="1.0" encoding="UTF-8" standalone="no"?>
<!DOCTYPE svg PUBLIC "-//W3C//DTD SVG 1.1//EN"
 "http://www.w3.org/Graphics/SVG/1.1/DTD/svg11.dtd">
<!-- Generated by graphviz version 2.40.1 (20161225.0304)
 -->
<!-- Title: dependencies Pages: 1 -->
<svg width="504pt" height="284pt"
 viewBox="0.00 0.00 504.00 284.00" xmlns="http://www.w3.org/2000/svg" xmlns:xlink="http://www.w3.org/1999/xlink">
<g id="graph0" class="graph" transform="scale(1 1) rotate(0) translate(4 280)">
<title>dependencies</title>
<polygon fill="#ffffff" stroke="transparent" points="-4,4 -4,-280 500,-280 500,4 -4,4"/>
<text text-anchor="start" x="227.0091" y="-42.4" font-family="sans-serif" font-weight="bold" font-size="14.00" fill="#000000">Legend</text>
<polygon fill="#ffffb3" stroke="transparent" points="14,-10 14,-30 34,-30 34,-10 14,-10"/>
<text text-anchor="start" x="37.629" y="-15.4" font-family="sans-serif" font-size="14.00" fill="#000000"> &#160;Declarations</text>
<polygon fill="#8dd3c7" stroke="transparent" points="127,-10 127,-30 147,-30 147,-10 127,-10"/>
<text text-anchor="start" x="150.7251" y="-15.4" font-family="sans-serif" font-size="14.00" fill="#000000"> &#160;Module</text>
<polygon fill="#80b1d3" stroke="transparent" points="213,-10 213,-30 233,-30 233,-10 213,-10"/>
<text text-anchor="start" x="236.7812" y="-15.4" font-family="sans-serif" font-size="14.00" fill="#000000"> &#160;Bootstrap</text>
<polygon fill="#fdb462" stroke="transparent" points="310,-10 310,-30 330,-30 330,-10 310,-10"/>
<text text-anchor="start" x="333.6732" y="-15.4" font-family="sans-serif" font-size="14.00" fill="#000000"> &#160;Providers</text>
<polygon fill="#fb8072" stroke="transparent" points="406,-10 406,-30 426,-30 426,-10 406,-10"/>
<text text-anchor="start" x="429.7258" y="-15.4" font-family="sans-serif" font-size="14.00" fill="#000000"> &#160;Exports</text>
<g id="clust1" class="cluster">
<title>cluster_AccountManagementModule</title>
<polygon fill="none" stroke="#000000" stroke-dasharray="1,5" points="70.5,-70 70.5,-268 425.5,-268 425.5,-70 70.5,-70"/>
</g>
<g id="clust2" class="cluster">
<title>cluster_AccountManagementModule_declarations</title>
<polygon fill="none" stroke="#000000" points="78.5,-78 78.5,-130 417.5,-130 417.5,-78 78.5,-78"/>
</g>
<g id="clust6" class="cluster">
<title>cluster_AccountManagementModule_exports</title>
<polygon fill="none" stroke="#000000" points="175.5,-208 175.5,-260 325.5,-260 325.5,-208 175.5,-208"/>
</g>
<!-- UserInfoComponent -->
<g id="node1" class="node">
<title>UserInfoComponent</title>
<polygon fill="#ffffb3" stroke="#000000" points="409.08,-122 277.92,-122 277.92,-86 409.08,-86 409.08,-122"/>
<text text-anchor="middle" x="343.5" y="-99.8" font-family="Times,serif" font-size="14.00" fill="#000000">UserInfoComponent</text>
</g>
<!-- AccountManagementModule -->
<g id="node3" class="node">
<title>AccountManagementModule</title>
<polygon fill="#8dd3c7" stroke="#000000" points="340.5604,-187 337.5604,-191 316.5604,-191 313.5604,-187 160.4396,-187 160.4396,-151 340.5604,-151 340.5604,-187"/>
<text text-anchor="middle" x="250.5" y="-164.8" font-family="Times,serif" font-size="14.00" fill="#000000">AccountManagementModule</text>
</g>
<!-- UserInfoComponent&#45;&gt;AccountManagementModule -->
<g id="edge1" class="edge">
<title>UserInfoComponent&#45;&gt;AccountManagementModule</title>
<path fill="none" stroke="#000000" d="M309.2451,-122.1061C309.2451,-122.1061 309.2451,-140.991 309.2451,-140.991"/>
<polygon fill="#000000" stroke="#000000" points="305.7452,-140.9909 309.2451,-150.991 312.7452,-140.991 305.7452,-140.9909"/>
</g>
<!-- UserPreferencesComponent -->
<g id="node2" class="node">
<title>UserPreferencesComponent</title>
<polygon fill="#ffffb3" stroke="#000000" points="260.0408,-122 86.9592,-122 86.9592,-86 260.0408,-86 260.0408,-122"/>
<text text-anchor="middle" x="173.5" y="-99.8" font-family="Times,serif" font-size="14.00" fill="#000000">UserPreferencesComponent</text>
</g>
<!-- UserPreferencesComponent&#45;&gt;AccountManagementModule -->
<g id="edge2" class="edge">
<title>UserPreferencesComponent&#45;&gt;AccountManagementModule</title>
<path fill="none" stroke="#000000" d="M210.2451,-122.1061C210.2451,-122.1061 210.2451,-140.991 210.2451,-140.991"/>
<polygon fill="#000000" stroke="#000000" points="206.7452,-140.9909 210.2451,-150.991 213.7452,-140.991 206.7452,-140.9909"/>
</g>
<!-- UserInfoComponent  -->
<g id="node4" class="node">
<title>UserInfoComponent </title>
<polygon fill="#fb8072" stroke="#000000" points="317.5807,-252 183.4193,-252 183.4193,-216 317.5807,-216 317.5807,-252"/>
<text text-anchor="middle" x="250.5" y="-229.8" font-family="Times,serif" font-size="14.00" fill="#000000">UserInfoComponent </text>
</g>
<!-- AccountManagementModule&#45;&gt;UserInfoComponent  -->
<g id="edge3" class="edge">
<title>AccountManagementModule&#45;&gt;UserInfoComponent </title>
<path fill="none" stroke="#000000" stroke-dasharray="5,2" d="M250.5,-187.1061C250.5,-187.1061 250.5,-205.991 250.5,-205.991"/>
<polygon fill="#000000" stroke="#000000" points="247.0001,-205.9909 250.5,-215.991 254.0001,-205.991 247.0001,-205.9909"/>
</g>
</g>
</svg>
