<?xml version="1.0" encoding="UTF-8" standalone="no"?>
<!DOCTYPE svg PUBLIC "-//W3C//DTD SVG 1.1//EN"
 "http://www.w3.org/Graphics/SVG/1.1/DTD/svg11.dtd">
<!-- Generated by graphviz version 2.40.1 (20161225.0304)
 -->
<!-- Title: dependencies Pages: 1 -->
<svg width="504pt" height="284pt"
 viewBox="0.00 0.00 504.00 284.00" xmlns="http://www.w3.org/2000/svg" xmlns:xlink="http://www.w3.org/1999/xlink">
<g id="graph0" class="graph" transform="scale(1 1) rotate(0) translate(4 280)">
<title>dependencies</title>
<polygon fill="#ffffff" stroke="transparent" points="-4,4 -4,-280 500,-280 500,4 -4,4"/>
<text text-anchor="start" x="227.0091" y="-42.4" font-family="sans-serif" font-weight="bold" font-size="14.00" fill="#000000">Legend</text>
<polygon fill="#ffffb3" stroke="transparent" points="14,-10 14,-30 34,-30 34,-10 14,-10"/>
<text text-anchor="start" x="37.629" y="-15.4" font-family="sans-serif" font-size="14.00" fill="#000000"> &#160;Declarations</text>
<polygon fill="#8dd3c7" stroke="transparent" points="127,-10 127,-30 147,-30 147,-10 127,-10"/>
<text text-anchor="start" x="150.7251" y="-15.4" font-family="sans-serif" font-size="14.00" fill="#000000"> &#160;Module</text>
<polygon fill="#80b1d3" stroke="transparent" points="213,-10 213,-30 233,-30 233,-10 213,-10"/>
<text text-anchor="start" x="236.7812" y="-15.4" font-family="sans-serif" font-size="14.00" fill="#000000"> &#160;Bootstrap</text>
<polygon fill="#fdb462" stroke="transparent" points="310,-10 310,-30 330,-30 330,-10 310,-10"/>
<text text-anchor="start" x="333.6732" y="-15.4" font-family="sans-serif" font-size="14.00" fill="#000000"> &#160;Providers</text>
<polygon fill="#fb8072" stroke="transparent" points="406,-10 406,-30 426,-30 426,-10 406,-10"/>
<text text-anchor="start" x="429.7258" y="-15.4" font-family="sans-serif" font-size="14.00" fill="#000000"> &#160;Exports</text>
<g id="clust1" class="cluster">
<title>cluster_AppRoutingModule</title>
<polygon fill="none" stroke="#000000" stroke-dasharray="1,5" points="8.5,-70 8.5,-268 487.5,-268 487.5,-70 8.5,-70"/>
</g>
<g id="clust3" class="cluster">
<title>cluster_AppRoutingModule_imports</title>
<polygon fill="none" stroke="#000000" points="285.5,-78 285.5,-130 479.5,-130 479.5,-78 285.5,-78"/>
</g>
<g id="clust4" class="cluster">
<title>cluster_AppRoutingModule_exports</title>
<polygon fill="none" stroke="#000000" points="151.5,-208 151.5,-260 269.5,-260 269.5,-208 151.5,-208"/>
</g>
<g id="clust6" class="cluster">
<title>cluster_AppRoutingModule_providers</title>
<polygon fill="none" stroke="#000000" points="16.5,-78 16.5,-130 277.5,-130 277.5,-78 16.5,-78"/>
</g>
<!-- RouterModule.forRoot(args) -->
<g id="node1" class="node">
<title>RouterModule.forRoot(args)</title>
<polygon fill="#8dd3c7" stroke="#000000" points="471.3419,-122 468.3419,-126 447.3419,-126 444.3419,-122 293.6581,-122 293.6581,-86 471.3419,-86 471.3419,-122"/>
<text text-anchor="middle" x="382.5" y="-99.8" font-family="Times,serif" font-size="14.00" fill="#000000">RouterModule.forRoot(args)</text>
</g>
<!-- AppRoutingModule -->
<g id="node2" class="node">
<title>AppRoutingModule</title>
<polygon fill="#8dd3c7" stroke="#000000" points="274.7744,-187 271.7744,-191 250.7744,-191 247.7744,-187 146.2256,-187 146.2256,-151 274.7744,-151 274.7744,-187"/>
<text text-anchor="middle" x="210.5" y="-164.8" font-family="Times,serif" font-size="14.00" fill="#000000">AppRoutingModule</text>
</g>
<!-- RouterModule.forRoot(args)&#45;&gt;AppRoutingModule -->
<g id="edge1" class="edge">
<title>RouterModule.forRoot(args)&#45;&gt;AppRoutingModule</title>
<path fill="none" stroke="#000000" d="M382.5,-122.1061C382.5,-141.3391 382.5,-169 382.5,-169 382.5,-169 285.0358,-169 285.0358,-169"/>
<polygon fill="#000000" stroke="#000000" points="285.0358,-165.5001 275.0358,-169 285.0358,-172.5001 285.0358,-165.5001"/>
</g>
<!-- RouterModule  -->
<g id="node3" class="node">
<title>RouterModule </title>
<polygon fill="#fb8072" stroke="#000000" points="261.1523,-252 159.8477,-252 159.8477,-216 261.1523,-216 261.1523,-252"/>
<text text-anchor="middle" x="210.5" y="-229.8" font-family="Times,serif" font-size="14.00" fill="#000000">RouterModule </text>
</g>
<!-- AppRoutingModule&#45;&gt;RouterModule  -->
<g id="edge2" class="edge">
<title>AppRoutingModule&#45;&gt;RouterModule </title>
<path fill="none" stroke="#000000" stroke-dasharray="5,2" d="M210.5,-187.1061C210.5,-187.1061 210.5,-205.991 210.5,-205.991"/>
<polygon fill="#000000" stroke="#000000" points="207.0001,-205.9909 210.5,-215.991 214.0001,-205.991 207.0001,-205.9909"/>
</g>
<!-- AuthService -->
<g id="node4" class="node">
<title>AuthService</title>
<ellipse fill="#fdb462" stroke="#000000" cx="210.5" cy="-104" rx="59.1083" ry="18"/>
<text text-anchor="middle" x="210.5" y="-99.8" font-family="Times,serif" font-size="14.00" fill="#000000">AuthService</text>
</g>
<!-- AuthService&#45;&gt;AppRoutingModule -->
<g id="edge3" class="edge">
<title>AuthService&#45;&gt;AppRoutingModule</title>
<path fill="none" stroke="#000000" d="M210.5,-122.1061C210.5,-122.1061 210.5,-140.991 210.5,-140.991"/>
<polygon fill="#000000" stroke="#000000" points="207.0001,-140.9909 210.5,-150.991 214.0001,-140.991 207.0001,-140.9909"/>
</g>
<!-- AuthGuard -->
<g id="node5" class="node">
<title>AuthGuard</title>
<ellipse fill="#fdb462" stroke="#000000" cx="78.5" cy="-104" rx="54.4566" ry="18"/>
<text text-anchor="middle" x="78.5" y="-99.8" font-family="Times,serif" font-size="14.00" fill="#000000">AuthGuard</text>
</g>
<!-- AuthGuard&#45;&gt;AppRoutingModule -->
<g id="edge4" class="edge">
<title>AuthGuard&#45;&gt;AppRoutingModule</title>
<path fill="none" stroke="#000000" d="M78.5,-122.1061C78.5,-141.3391 78.5,-169 78.5,-169 78.5,-169 136.0467,-169 136.0467,-169"/>
<polygon fill="#000000" stroke="#000000" points="136.0468,-172.5001 146.0467,-169 136.0467,-165.5001 136.0468,-172.5001"/>
</g>
</g>
</svg>
