<?xml version="1.0" encoding="UTF-8" standalone="no"?>
<!DOCTYPE svg PUBLIC "-//W3C//DTD SVG 1.1//EN"
 "http://www.w3.org/Graphics/SVG/1.1/DTD/svg11.dtd">
<!-- Generated by graphviz version 2.40.1 (20161225.0304)
 -->
<!-- Title: dependencies Pages: 1 -->
<svg width="7510pt" height="284pt"
 viewBox="0.00 0.00 7510.00 284.00" xmlns="http://www.w3.org/2000/svg" xmlns:xlink="http://www.w3.org/1999/xlink">
<g id="graph0" class="graph" transform="scale(1 1) rotate(0) translate(4 280)">
<title>dependencies</title>
<polygon fill="#ffffff" stroke="transparent" points="-4,4 -4,-280 7506,-280 7506,4 -4,4"/>
<text text-anchor="start" x="3730.0091" y="-42.4" font-family="sans-serif" font-weight="bold" font-size="14.00" fill="#000000">Legend</text>
<polygon fill="#ffffb3" stroke="transparent" points="3517,-10 3517,-30 3537,-30 3537,-10 3517,-10"/>
<text text-anchor="start" x="3540.629" y="-15.4" font-family="sans-serif" font-size="14.00" fill="#000000"> &#160;Declarations</text>
<polygon fill="#8dd3c7" stroke="transparent" points="3630,-10 3630,-30 3650,-30 3650,-10 3630,-10"/>
<text text-anchor="start" x="3653.7251" y="-15.4" font-family="sans-serif" font-size="14.00" fill="#000000"> &#160;Module</text>
<polygon fill="#80b1d3" stroke="transparent" points="3716,-10 3716,-30 3736,-30 3736,-10 3716,-10"/>
<text text-anchor="start" x="3739.7812" y="-15.4" font-family="sans-serif" font-size="14.00" fill="#000000"> &#160;Bootstrap</text>
<polygon fill="#fdb462" stroke="transparent" points="3813,-10 3813,-30 3833,-30 3833,-10 3813,-10"/>
<text text-anchor="start" x="3836.6732" y="-15.4" font-family="sans-serif" font-size="14.00" fill="#000000"> &#160;Providers</text>
<polygon fill="#fb8072" stroke="transparent" points="3909,-10 3909,-30 3929,-30 3929,-10 3909,-10"/>
<text text-anchor="start" x="3932.7258" y="-15.4" font-family="sans-serif" font-size="14.00" fill="#000000"> &#160;Exports</text>
<g id="clust1" class="cluster">
<title>cluster_ViewerAppModule</title>
<polygon fill="none" stroke="#000000" stroke-dasharray="1,5" points="8,-70 8,-268 7494,-268 7494,-70 8,-70"/>
</g>
<g id="clust2" class="cluster">
<title>cluster_ViewerAppModule_declarations</title>
<polygon fill="none" stroke="#000000" points="2953,-78 2953,-130 7486,-130 7486,-78 2953,-78"/>
</g>
<g id="clust27" class="cluster">
<title>cluster_ViewerAppModule_imports</title>
<polygon fill="none" stroke="#000000" points="2801,-78 2801,-130 2945,-130 2945,-78 2801,-78"/>
</g>
<g id="clust29" class="cluster">
<title>cluster_ViewerAppModule_bootstrap</title>
<polygon fill="none" stroke="#000000" points="4043,-208 4043,-260 4279,-260 4279,-208 4043,-208"/>
</g>
<g id="clust30" class="cluster">
<title>cluster_ViewerAppModule_providers</title>
<polygon fill="none" stroke="#000000" points="16,-78 16,-130 2793,-130 2793,-78 16,-78"/>
</g>
<!-- AdminToolbarComponent -->
<g id="node1" class="node">
<title>AdminToolbarComponent</title>
<polygon fill="#ffffb3" stroke="#000000" points="7478.0392,-122 7313.9608,-122 7313.9608,-86 7478.0392,-86 7478.0392,-122"/>
<text text-anchor="middle" x="7396" y="-99.8" font-family="Times,serif" font-size="14.00" fill="#000000">AdminToolbarComponent</text>
</g>
<!-- ViewerAppModule -->
<g id="node25" class="node">
<title>ViewerAppModule</title>
<polygon fill="#8dd3c7" stroke="#000000" points="4223.3501,-187 4220.3501,-191 4199.3501,-191 4196.3501,-187 4098.6499,-187 4098.6499,-151 4223.3501,-151 4223.3501,-187"/>
<text text-anchor="middle" x="4161" y="-164.8" font-family="Times,serif" font-size="14.00" fill="#000000">ViewerAppModule</text>
</g>
<!-- AdminToolbarComponent&#45;&gt;ViewerAppModule -->
<g id="edge1" class="edge">
<title>AdminToolbarComponent&#45;&gt;ViewerAppModule</title>
<path fill="none" stroke="#000000" d="M7396,-122.3802C7396,-146.2785 7396,-185 7396,-185 7396,-185 4233.4503,-185 4233.4503,-185"/>
<polygon fill="#000000" stroke="#000000" points="4233.4504,-181.5001 4223.4503,-185 4233.4503,-188.5001 4233.4504,-181.5001"/>
</g>
<!-- AppComponent -->
<g id="node2" class="node">
<title>AppComponent</title>
<polygon fill="#ffffb3" stroke="#000000" points="7295.9399,-122 7190.0601,-122 7190.0601,-86 7295.9399,-86 7295.9399,-122"/>
<text text-anchor="middle" x="7243" y="-99.8" font-family="Times,serif" font-size="14.00" fill="#000000">AppComponent</text>
</g>
<!-- AppComponent&#45;&gt;ViewerAppModule -->
<g id="edge2" class="edge">
<title>AppComponent&#45;&gt;ViewerAppModule</title>
<path fill="none" stroke="#000000" d="M7243,-122.3228C7243,-145.6602 7243,-183 7243,-183 7243,-183 4233.6102,-183 4233.6102,-183"/>
<polygon fill="#000000" stroke="#000000" points="4233.6102,-179.5001 4223.6102,-183 4233.6102,-186.5001 4233.6102,-179.5001"/>
</g>
<!-- Footer1Component -->
<g id="node3" class="node">
<title>Footer1Component</title>
<polygon fill="#ffffb3" stroke="#000000" points="7172.3809,-122 7047.6191,-122 7047.6191,-86 7172.3809,-86 7172.3809,-122"/>
<text text-anchor="middle" x="7110" y="-99.8" font-family="Times,serif" font-size="14.00" fill="#000000">Footer1Component</text>
</g>
<!-- Footer1Component&#45;&gt;ViewerAppModule -->
<g id="edge3" class="edge">
<title>Footer1Component&#45;&gt;ViewerAppModule</title>
<path fill="none" stroke="#000000" d="M7110,-122.2479C7110,-145.0179 7110,-181 7110,-181 7110,-181 4233.616,-181 4233.616,-181"/>
<polygon fill="#000000" stroke="#000000" points="4233.616,-177.5001 4223.616,-181 4233.6159,-184.5001 4233.616,-177.5001"/>
</g>
<!-- Header1Component -->
<g id="node4" class="node">
<title>Header1Component</title>
<polygon fill="#ffffb3" stroke="#000000" points="7029.2437,-122 6900.7563,-122 6900.7563,-86 7029.2437,-86 7029.2437,-122"/>
<text text-anchor="middle" x="6965" y="-99.8" font-family="Times,serif" font-size="14.00" fill="#000000">Header1Component</text>
</g>
<!-- Header1Component&#45;&gt;ViewerAppModule -->
<g id="edge4" class="edge">
<title>Header1Component&#45;&gt;ViewerAppModule</title>
<path fill="none" stroke="#000000" d="M6965,-122.1554C6965,-144.3519 6965,-179 6965,-179 6965,-179 4233.4969,-179 4233.4969,-179"/>
<polygon fill="#000000" stroke="#000000" points="4233.497,-175.5001 4223.4969,-179 4233.4969,-182.5001 4233.497,-175.5001"/>
</g>
<!-- Header2Component -->
<g id="node5" class="node">
<title>Header2Component</title>
<polygon fill="#ffffb3" stroke="#000000" points="6882.2437,-122 6753.7563,-122 6753.7563,-86 6882.2437,-86 6882.2437,-122"/>
<text text-anchor="middle" x="6818" y="-99.8" font-family="Times,serif" font-size="14.00" fill="#000000">Header2Component</text>
</g>
<!-- Header2Component&#45;&gt;ViewerAppModule -->
<g id="edge5" class="edge">
<title>Header2Component&#45;&gt;ViewerAppModule</title>
<path fill="none" stroke="#000000" d="M6818,-122.0449C6818,-143.6623 6818,-177 6818,-177 6818,-177 4233.4109,-177 4233.4109,-177"/>
<polygon fill="#000000" stroke="#000000" points="4233.411,-173.5001 4223.4109,-177 4233.4109,-180.5001 4233.411,-173.5001"/>
</g>
<!-- MainSurveyAccess1Component -->
<g id="node6" class="node">
<title>MainSurveyAccess1Component</title>
<polygon fill="#ffffb3" stroke="#000000" points="6735.6797,-122 6538.3203,-122 6538.3203,-86 6735.6797,-86 6735.6797,-122"/>
<text text-anchor="middle" x="6637" y="-99.8" font-family="Times,serif" font-size="14.00" fill="#000000">MainSurveyAccess1Component</text>
</g>
<!-- MainSurveyAccess1Component&#45;&gt;ViewerAppModule -->
<g id="edge6" class="edge">
<title>MainSurveyAccess1Component&#45;&gt;ViewerAppModule</title>
<path fill="none" stroke="#000000" d="M6637,-122.2843C6637,-143.3211 6637,-175 6637,-175 6637,-175 4233.4432,-175 4233.4432,-175"/>
<polygon fill="#000000" stroke="#000000" points="4233.4432,-171.5001 4223.4432,-175 4233.4431,-178.5001 4233.4432,-171.5001"/>
</g>
<!-- PrivacyConfirmationComponent -->
<g id="node7" class="node">
<title>PrivacyConfirmationComponent</title>
<polygon fill="#ffffb3" stroke="#000000" points="6520.5308,-122 6321.4692,-122 6321.4692,-86 6520.5308,-86 6520.5308,-122"/>
<text text-anchor="middle" x="6421" y="-99.8" font-family="Times,serif" font-size="14.00" fill="#000000">PrivacyConfirmationComponent</text>
</g>
<!-- PrivacyConfirmationComponent&#45;&gt;ViewerAppModule -->
<g id="edge7" class="edge">
<title>PrivacyConfirmationComponent&#45;&gt;ViewerAppModule</title>
<path fill="none" stroke="#000000" d="M6421,-122.1289C6421,-142.5724 6421,-173 6421,-173 6421,-173 4233.5075,-173 4233.5075,-173"/>
<polygon fill="#000000" stroke="#000000" points="4233.5076,-169.5001 4223.5075,-173 4233.5075,-176.5001 4233.5076,-169.5001"/>
</g>
<!-- QuestionContainerComponent -->
<g id="node8" class="node">
<title>QuestionContainerComponent</title>
<polygon fill="#ffffb3" stroke="#000000" points="6303.587,-122 6116.413,-122 6116.413,-86 6303.587,-86 6303.587,-122"/>
<text text-anchor="middle" x="6210" y="-99.8" font-family="Times,serif" font-size="14.00" fill="#000000">QuestionContainerComponent</text>
</g>
<!-- QuestionContainerComponent&#45;&gt;ViewerAppModule -->
<g id="edge8" class="edge">
<title>QuestionContainerComponent&#45;&gt;ViewerAppModule</title>
<path fill="none" stroke="#000000" d="M6210,-122.308C6210,-142.1455 6210,-171 6210,-171 6210,-171 4233.4413,-171 4233.4413,-171"/>
<polygon fill="#000000" stroke="#000000" points="4233.4413,-167.5001 4223.4413,-171 4233.4413,-174.5001 4233.4413,-167.5001"/>
</g>
<!-- QuestionPlaceholderComponent -->
<g id="node9" class="node">
<title>QuestionPlaceholderComponent</title>
<polygon fill="#ffffb3" stroke="#000000" points="6097.9622,-122 5900.0378,-122 5900.0378,-86 6097.9622,-86 6097.9622,-122"/>
<text text-anchor="middle" x="5999" y="-99.8" font-family="Times,serif" font-size="14.00" fill="#000000">QuestionPlaceholderComponent</text>
</g>
<!-- QuestionPlaceholderComponent&#45;&gt;ViewerAppModule -->
<g id="edge9" class="edge">
<title>QuestionPlaceholderComponent&#45;&gt;ViewerAppModule</title>
<path fill="none" stroke="#000000" d="M5999,-122.1061C5999,-141.3391 5999,-169 5999,-169 5999,-169 4233.4713,-169 4233.4713,-169"/>
<polygon fill="#000000" stroke="#000000" points="4233.4714,-165.5001 4223.4713,-169 4233.4713,-172.5001 4233.4714,-165.5001"/>
</g>
<!-- SafeHtmlPipe -->
<g id="node10" class="node">
<title>SafeHtmlPipe</title>
<polygon fill="#ffffb3" stroke="#000000" points="5882.0397,-122 5787.9603,-122 5787.9603,-86 5882.0397,-86 5882.0397,-122"/>
<text text-anchor="middle" x="5835" y="-99.8" font-family="Times,serif" font-size="14.00" fill="#000000">SafeHtmlPipe</text>
</g>
<!-- SafeHtmlPipe&#45;&gt;ViewerAppModule -->
<g id="edge10" class="edge">
<title>SafeHtmlPipe&#45;&gt;ViewerAppModule</title>
<path fill="none" stroke="#000000" d="M5835,-122.2222C5835,-140.8285 5835,-167 5835,-167 5835,-167 4233.5676,-167 4233.5676,-167"/>
<polygon fill="#000000" stroke="#000000" points="4233.5676,-163.5001 4223.5676,-167 4233.5675,-170.5001 4233.5676,-163.5001"/>
</g>
<!-- SafePipe -->
<g id="node11" class="node">
<title>SafePipe</title>
<polygon fill="#ffffb3" stroke="#000000" points="5769.7606,-122 5704.2394,-122 5704.2394,-86 5769.7606,-86 5769.7606,-122"/>
<text text-anchor="middle" x="5737" y="-99.8" font-family="Times,serif" font-size="14.00" fill="#000000">SafePipe</text>
</g>
<!-- SafePipe&#45;&gt;ViewerAppModule -->
<g id="edge11" class="edge">
<title>SafePipe&#45;&gt;ViewerAppModule</title>
<path fill="none" stroke="#000000" d="M5737,-122.302C5737,-140.2699 5737,-165 5737,-165 5737,-165 4233.7536,-165 4233.7536,-165"/>
<polygon fill="#000000" stroke="#000000" points="4233.7536,-161.5001 4223.7536,-165 4233.7536,-168.5001 4233.7536,-161.5001"/>
</g>
<!-- SpecialPageBuilderComponent -->
<g id="node12" class="node">
<title>SpecialPageBuilderComponent</title>
<polygon fill="#ffffb3" stroke="#000000" points="5685.745,-122 5494.255,-122 5494.255,-86 5685.745,-86 5685.745,-122"/>
<text text-anchor="middle" x="5590" y="-99.8" font-family="Times,serif" font-size="14.00" fill="#000000">SpecialPageBuilderComponent</text>
</g>
<!-- SpecialPageBuilderComponent&#45;&gt;ViewerAppModule -->
<g id="edge12" class="edge">
<title>SpecialPageBuilderComponent&#45;&gt;ViewerAppModule</title>
<path fill="none" stroke="#000000" d="M5590,-122.0225C5590,-139.3734 5590,-163 5590,-163 5590,-163 4233.7829,-163 4233.7829,-163"/>
<polygon fill="#000000" stroke="#000000" points="4233.783,-159.5001 4223.7829,-163 4233.7829,-166.5001 4233.783,-159.5001"/>
</g>
<!-- SurveyErrorComponent -->
<g id="node13" class="node">
<title>SurveyErrorComponent</title>
<polygon fill="#ffffb3" stroke="#000000" points="5476.0253,-122 5325.9747,-122 5325.9747,-86 5476.0253,-86 5476.0253,-122"/>
<text text-anchor="middle" x="5401" y="-99.8" font-family="Times,serif" font-size="14.00" fill="#000000">SurveyErrorComponent</text>
</g>
<!-- SurveyErrorComponent&#45;&gt;ViewerAppModule -->
<g id="edge13" class="edge">
<title>SurveyErrorComponent&#45;&gt;ViewerAppModule</title>
<path fill="none" stroke="#000000" d="M5401,-122.0352C5401,-138.7344 5401,-161 5401,-161 5401,-161 4233.7684,-161 4233.7684,-161"/>
<polygon fill="#000000" stroke="#000000" points="4233.7685,-157.5001 4223.7684,-161 4233.7684,-164.5001 4233.7685,-157.5001"/>
</g>
<!-- SurveyGroupcodePageComponent -->
<g id="node14" class="node">
<title>SurveyGroupcodePageComponent</title>
<polygon fill="#ffffb3" stroke="#000000" points="5308.3988,-122 5097.6012,-122 5097.6012,-86 5308.3988,-86 5308.3988,-122"/>
<text text-anchor="middle" x="5203" y="-99.8" font-family="Times,serif" font-size="14.00" fill="#000000">SurveyGroupcodePageComponent</text>
</g>
<!-- SurveyGroupcodePageComponent&#45;&gt;ViewerAppModule -->
<g id="edge14" class="edge">
<title>SurveyGroupcodePageComponent&#45;&gt;ViewerAppModule</title>
<path fill="none" stroke="#000000" d="M5203,-122.0091C5203,-138.0494 5203,-159 5203,-159 5203,-159 4233.4477,-159 4233.4477,-159"/>
<polygon fill="#000000" stroke="#000000" points="4233.4478,-155.5001 4223.4477,-159 4233.4477,-162.5001 4233.4478,-155.5001"/>
</g>
<!-- SurveyHeaderDisplayComponent -->
<g id="node15" class="node">
<title>SurveyHeaderDisplayComponent</title>
<polygon fill="#ffffb3" stroke="#000000" points="5079.4482,-122 4874.5518,-122 4874.5518,-86 5079.4482,-86 5079.4482,-122"/>
<text text-anchor="middle" x="4977" y="-99.8" font-family="Times,serif" font-size="14.00" fill="#000000">SurveyHeaderDisplayComponent</text>
</g>
<!-- SurveyHeaderDisplayComponent&#45;&gt;ViewerAppModule -->
<g id="edge15" class="edge">
<title>SurveyHeaderDisplayComponent&#45;&gt;ViewerAppModule</title>
<path fill="none" stroke="#000000" d="M4977,-122.2396C4977,-137.5706 4977,-157 4977,-157 4977,-157 4233.6752,-157 4233.6752,-157"/>
<polygon fill="#000000" stroke="#000000" points="4233.6753,-153.5001 4223.6752,-157 4233.6752,-160.5001 4233.6753,-153.5001"/>
</g>
<!-- SurveyScreeningPageComponent -->
<g id="node16" class="node">
<title>SurveyScreeningPageComponent</title>
<polygon fill="#ffffb3" stroke="#000000" points="4856.1797,-122 4651.8203,-122 4651.8203,-86 4856.1797,-86 4856.1797,-122"/>
<text text-anchor="middle" x="4754" y="-99.8" font-family="Times,serif" font-size="14.00" fill="#000000">SurveyScreeningPageComponent</text>
</g>
<!-- SurveyScreeningPageComponent&#45;&gt;ViewerAppModule -->
<g id="edge16" class="edge">
<title>SurveyScreeningPageComponent&#45;&gt;ViewerAppModule</title>
<path fill="none" stroke="#000000" d="M4754,-122.1243C4754,-136.7832 4754,-155 4754,-155 4754,-155 4233.62,-155 4233.62,-155"/>
<polygon fill="#000000" stroke="#000000" points="4233.6201,-151.5001 4223.62,-155 4233.62,-158.5001 4233.6201,-151.5001"/>
</g>
<!-- SurveyShortcodeDisplayPageComponent -->
<g id="node17" class="node">
<title>SurveyShortcodeDisplayPageComponent</title>
<polygon fill="#ffffb3" stroke="#000000" points="4634.0125,-122 4385.9875,-122 4385.9875,-86 4634.0125,-86 4634.0125,-122"/>
<text text-anchor="middle" x="4510" y="-99.8" font-family="Times,serif" font-size="14.00" fill="#000000">SurveyShortcodeDisplayPageComponent</text>
</g>
<!-- SurveyShortcodeDisplayPageComponent&#45;&gt;ViewerAppModule -->
<g id="edge17" class="edge">
<title>SurveyShortcodeDisplayPageComponent&#45;&gt;ViewerAppModule</title>
<path fill="none" stroke="#000000" d="M4510,-122.2458C4510,-136.1772 4510,-153 4510,-153 4510,-153 4233.3942,-153 4233.3942,-153"/>
<polygon fill="#000000" stroke="#000000" points="4233.3942,-149.5001 4223.3942,-153 4233.3942,-156.5001 4233.3942,-149.5001"/>
</g>
<!-- SurveyShortcodePageComponent -->
<g id="node18" class="node">
<title>SurveyShortcodePageComponent</title>
<polygon fill="#ffffb3" stroke="#000000" points="4367.465,-122 4162.535,-122 4162.535,-86 4367.465,-86 4367.465,-122"/>
<text text-anchor="middle" x="4265" y="-99.8" font-family="Times,serif" font-size="14.00" fill="#000000">SurveyShortcodePageComponent</text>
</g>
<!-- SurveyShortcodePageComponent&#45;&gt;ViewerAppModule -->
<g id="edge18" class="edge">
<title>SurveyShortcodePageComponent&#45;&gt;ViewerAppModule</title>
<path fill="none" stroke="#000000" d="M4192.9713,-122.1061C4192.9713,-122.1061 4192.9713,-140.991 4192.9713,-140.991"/>
<polygon fill="#000000" stroke="#000000" points="4189.4713,-140.9909 4192.9713,-150.991 4196.4713,-140.991 4189.4713,-140.9909"/>
</g>
<!-- SurveyStartPageComponent -->
<g id="node19" class="node">
<title>SurveyStartPageComponent</title>
<polygon fill="#ffffb3" stroke="#000000" points="4144.1414,-122 3969.8586,-122 3969.8586,-86 4144.1414,-86 4144.1414,-122"/>
<text text-anchor="middle" x="4057" y="-99.8" font-family="Times,serif" font-size="14.00" fill="#000000">SurveyStartPageComponent</text>
</g>
<!-- SurveyStartPageComponent&#45;&gt;ViewerAppModule -->
<g id="edge19" class="edge">
<title>SurveyStartPageComponent&#45;&gt;ViewerAppModule</title>
<path fill="none" stroke="#000000" d="M4121.4477,-122.1061C4121.4477,-122.1061 4121.4477,-140.991 4121.4477,-140.991"/>
<polygon fill="#000000" stroke="#000000" points="4117.9478,-140.9909 4121.4477,-150.991 4124.9478,-140.991 4117.9478,-140.9909"/>
</g>
<!-- SurveyTermsPageComponent -->
<g id="node20" class="node">
<title>SurveyTermsPageComponent</title>
<polygon fill="#ffffb3" stroke="#000000" points="3951.965,-122 3768.035,-122 3768.035,-86 3951.965,-86 3951.965,-122"/>
<text text-anchor="middle" x="3860" y="-99.8" font-family="Times,serif" font-size="14.00" fill="#000000">SurveyTermsPageComponent</text>
</g>
<!-- SurveyTermsPageComponent&#45;&gt;ViewerAppModule -->
<g id="edge20" class="edge">
<title>SurveyTermsPageComponent&#45;&gt;ViewerAppModule</title>
<path fill="none" stroke="#000000" d="M3860,-122.2458C3860,-136.1772 3860,-153 3860,-153 3860,-153 4088.6326,-153 4088.6326,-153"/>
<polygon fill="#000000" stroke="#000000" points="4088.6326,-156.5001 4098.6326,-153 4088.6326,-149.5001 4088.6326,-156.5001"/>
</g>
<!-- SurveyThankYouPageComponent -->
<g id="node21" class="node">
<title>SurveyThankYouPageComponent</title>
<polygon fill="#ffffb3" stroke="#000000" points="3750.0758,-122 3541.9242,-122 3541.9242,-86 3750.0758,-86 3750.0758,-122"/>
<text text-anchor="middle" x="3646" y="-99.8" font-family="Times,serif" font-size="14.00" fill="#000000">SurveyThankYouPageComponent</text>
</g>
<!-- SurveyThankYouPageComponent&#45;&gt;ViewerAppModule -->
<g id="edge21" class="edge">
<title>SurveyThankYouPageComponent&#45;&gt;ViewerAppModule</title>
<path fill="none" stroke="#000000" d="M3646,-122.1243C3646,-136.7832 3646,-155 3646,-155 3646,-155 4088.6226,-155 4088.6226,-155"/>
<polygon fill="#000000" stroke="#000000" points="4088.6226,-158.5001 4098.6226,-155 4088.6225,-151.5001 4088.6226,-158.5001"/>
</g>
<!-- SurveyViewerComponent -->
<g id="node22" class="node">
<title>SurveyViewerComponent</title>
<polygon fill="#ffffb3" stroke="#000000" points="3524.1839,-122 3361.8161,-122 3361.8161,-86 3524.1839,-86 3524.1839,-122"/>
<text text-anchor="middle" x="3443" y="-99.8" font-family="Times,serif" font-size="14.00" fill="#000000">SurveyViewerComponent</text>
</g>
<!-- SurveyViewerComponent&#45;&gt;ViewerAppModule -->
<g id="edge22" class="edge">
<title>SurveyViewerComponent&#45;&gt;ViewerAppModule</title>
<path fill="none" stroke="#000000" d="M3443,-122.2396C3443,-137.5706 3443,-157 3443,-157 3443,-157 4088.5382,-157 4088.5382,-157"/>
<polygon fill="#000000" stroke="#000000" points="4088.5383,-160.5001 4098.5382,-157 4088.5382,-153.5001 4088.5383,-160.5001"/>
</g>
<!-- SurveyViewerContainerComponent -->
<g id="node23" class="node">
<title>SurveyViewerContainerComponent</title>
<polygon fill="#ffffb3" stroke="#000000" points="3343.8918,-122 3126.1082,-122 3126.1082,-86 3343.8918,-86 3343.8918,-122"/>
<text text-anchor="middle" x="3235" y="-99.8" font-family="Times,serif" font-size="14.00" fill="#000000">SurveyViewerContainerComponent</text>
</g>
<!-- SurveyViewerContainerComponent&#45;&gt;ViewerAppModule -->
<g id="edge23" class="edge">
<title>SurveyViewerContainerComponent&#45;&gt;ViewerAppModule</title>
<path fill="none" stroke="#000000" d="M3235,-122.0091C3235,-138.0494 3235,-159 3235,-159 3235,-159 4088.4429,-159 4088.4429,-159"/>
<polygon fill="#000000" stroke="#000000" points="4088.4429,-162.5001 4098.4429,-159 4088.4429,-155.5001 4088.4429,-162.5001"/>
</g>
<!-- TextBlock1Component -->
<g id="node24" class="node">
<title>TextBlock1Component</title>
<polygon fill="#ffffb3" stroke="#000000" points="3108.9326,-122 2961.0674,-122 2961.0674,-86 3108.9326,-86 3108.9326,-122"/>
<text text-anchor="middle" x="3035" y="-99.8" font-family="Times,serif" font-size="14.00" fill="#000000">TextBlock1Component</text>
</g>
<!-- TextBlock1Component&#45;&gt;ViewerAppModule -->
<g id="edge24" class="edge">
<title>TextBlock1Component&#45;&gt;ViewerAppModule</title>
<path fill="none" stroke="#000000" d="M3035,-122.0352C3035,-138.7344 3035,-161 3035,-161 3035,-161 4088.4536,-161 4088.4536,-161"/>
<polygon fill="#000000" stroke="#000000" points="4088.4536,-164.5001 4098.4536,-161 4088.4536,-157.5001 4088.4536,-164.5001"/>
</g>
<!-- SurveyViewerContainerComponent  -->
<g id="node27" class="node">
<title>SurveyViewerContainerComponent </title>
<polygon fill="#80b1d3" stroke="#000000" points="4271.3914,-252 4050.6086,-252 4050.6086,-216 4271.3914,-216 4271.3914,-252"/>
<text text-anchor="middle" x="4161" y="-229.8" font-family="Times,serif" font-size="14.00" fill="#000000">SurveyViewerContainerComponent </text>
</g>
<!-- ViewerAppModule&#45;&gt;SurveyViewerContainerComponent  -->
<g id="edge26" class="edge">
<title>ViewerAppModule&#45;&gt;SurveyViewerContainerComponent </title>
<path fill="none" stroke="#000000" stroke-dasharray="1,5" d="M4161,-187.1061C4161,-187.1061 4161,-205.991 4161,-205.991"/>
<polygon fill="#000000" stroke="#000000" points="4157.5001,-205.9909 4161,-215.991 4164.5001,-205.991 4157.5001,-205.9909"/>
</g>
<!-- AppRoutingModule -->
<g id="node26" class="node">
<title>AppRoutingModule</title>
<polygon fill="#8dd3c7" stroke="#000000" points="2937.2744,-122 2934.2744,-126 2913.2744,-126 2910.2744,-122 2808.7256,-122 2808.7256,-86 2937.2744,-86 2937.2744,-122"/>
<text text-anchor="middle" x="2873" y="-99.8" font-family="Times,serif" font-size="14.00" fill="#000000">AppRoutingModule</text>
</g>
<!-- AppRoutingModule&#45;&gt;ViewerAppModule -->
<g id="edge25" class="edge">
<title>AppRoutingModule&#45;&gt;ViewerAppModule</title>
<path fill="none" stroke="#000000" d="M2873,-122.0225C2873,-139.3734 2873,-163 2873,-163 2873,-163 4088.4418,-163 4088.4418,-163"/>
<polygon fill="#000000" stroke="#000000" points="4088.4418,-166.5001 4098.4418,-163 4088.4418,-159.5001 4088.4418,-166.5001"/>
</g>
<!-- AppTranslationService -->
<g id="node28" class="node">
<title>AppTranslationService</title>
<ellipse fill="#fdb462" stroke="#000000" cx="2684" cy="-104" rx="100.6998" ry="18"/>
<text text-anchor="middle" x="2684" y="-99.8" font-family="Times,serif" font-size="14.00" fill="#000000">AppTranslationService</text>
</g>
<!-- AppTranslationService&#45;&gt;ViewerAppModule -->
<g id="edge27" class="edge">
<title>AppTranslationService&#45;&gt;ViewerAppModule</title>
<path fill="none" stroke="#000000" d="M2684,-122.302C2684,-140.2699 2684,-165 2684,-165 2684,-165 4088.4785,-165 4088.4785,-165"/>
<polygon fill="#000000" stroke="#000000" points="4088.4786,-168.5001 4098.4785,-165 4088.4785,-161.5001 4088.4786,-168.5001"/>
</g>
<!-- ConfigurationService -->
<g id="node29" class="node">
<title>ConfigurationService</title>
<ellipse fill="#fdb462" stroke="#000000" cx="2471" cy="-104" rx="94.3408" ry="18"/>
<text text-anchor="middle" x="2471" y="-99.8" font-family="Times,serif" font-size="14.00" fill="#000000">ConfigurationService</text>
</g>
<!-- ConfigurationService&#45;&gt;ViewerAppModule -->
<g id="edge28" class="edge">
<title>ConfigurationService&#45;&gt;ViewerAppModule</title>
<path fill="none" stroke="#000000" d="M2471,-122.2222C2471,-140.8285 2471,-167 2471,-167 2471,-167 4088.5951,-167 4088.5951,-167"/>
<polygon fill="#000000" stroke="#000000" points="4088.5951,-170.5001 4098.5951,-167 4088.5951,-163.5001 4088.5951,-170.5001"/>
</g>
<!-- LocalStoreManager -->
<g id="node30" class="node">
<title>LocalStoreManager</title>
<ellipse fill="#fdb462" stroke="#000000" cx="2271" cy="-104" rx="87.9394" ry="18"/>
<text text-anchor="middle" x="2271" y="-99.8" font-family="Times,serif" font-size="14.00" fill="#000000">LocalStoreManager</text>
</g>
<!-- LocalStoreManager&#45;&gt;ViewerAppModule -->
<g id="edge29" class="edge">
<title>LocalStoreManager&#45;&gt;ViewerAppModule</title>
<path fill="none" stroke="#000000" d="M2271,-122.1061C2271,-141.3391 2271,-169 2271,-169 2271,-169 4088.3857,-169 4088.3857,-169"/>
<polygon fill="#000000" stroke="#000000" points="4088.3858,-172.5001 4098.3857,-169 4088.3857,-165.5001 4088.3858,-172.5001"/>
</g>
<!-- QuestionLoaderEndpointService -->
<g id="node31" class="node">
<title>QuestionLoaderEndpointService</title>
<ellipse fill="#fdb462" stroke="#000000" cx="2028" cy="-104" rx="137.7241" ry="18"/>
<text text-anchor="middle" x="2028" y="-99.8" font-family="Times,serif" font-size="14.00" fill="#000000">QuestionLoaderEndpointService</text>
</g>
<!-- QuestionLoaderEndpointService&#45;&gt;ViewerAppModule -->
<g id="edge30" class="edge">
<title>QuestionLoaderEndpointService&#45;&gt;ViewerAppModule</title>
<path fill="none" stroke="#000000" d="M2028,-122.308C2028,-142.1455 2028,-171 2028,-171 2028,-171 4088.6058,-171 4088.6058,-171"/>
<polygon fill="#000000" stroke="#000000" points="4088.6058,-174.5001 4098.6058,-171 4088.6057,-167.5001 4088.6058,-174.5001"/>
</g>
<!-- QuestionLoaderService -->
<g id="node32" class="node">
<title>QuestionLoaderService</title>
<ellipse fill="#fdb462" stroke="#000000" cx="1770" cy="-104" rx="102.4062" ry="18"/>
<text text-anchor="middle" x="1770" y="-99.8" font-family="Times,serif" font-size="14.00" fill="#000000">QuestionLoaderService</text>
</g>
<!-- QuestionLoaderService&#45;&gt;ViewerAppModule -->
<g id="edge31" class="edge">
<title>QuestionLoaderService&#45;&gt;ViewerAppModule</title>
<path fill="none" stroke="#000000" d="M1770,-122.1289C1770,-142.5724 1770,-173 1770,-173 1770,-173 4088.5811,-173 4088.5811,-173"/>
<polygon fill="#000000" stroke="#000000" points="4088.5811,-176.5001 4098.5811,-173 4088.581,-169.5001 4088.5811,-176.5001"/>
</g>
<!-- SurveyResponderEndpointService -->
<g id="node33" class="node">
<title>SurveyResponderEndpointService</title>
<ellipse fill="#fdb462" stroke="#000000" cx="1506" cy="-104" rx="144.1083" ry="18"/>
<text text-anchor="middle" x="1506" y="-99.8" font-family="Times,serif" font-size="14.00" fill="#000000">SurveyResponderEndpointService</text>
</g>
<!-- SurveyResponderEndpointService&#45;&gt;ViewerAppModule -->
<g id="edge32" class="edge">
<title>SurveyResponderEndpointService&#45;&gt;ViewerAppModule</title>
<path fill="none" stroke="#000000" d="M1506,-122.2843C1506,-143.3211 1506,-175 1506,-175 1506,-175 4088.636,-175 4088.636,-175"/>
<polygon fill="#000000" stroke="#000000" points="4088.6361,-178.5001 4098.636,-175 4088.636,-171.5001 4088.6361,-178.5001"/>
</g>
<!-- SurveyViewerConditionalEvaluator -->
<g id="node34" class="node">
<title>SurveyViewerConditionalEvaluator</title>
<ellipse fill="#fdb462" stroke="#000000" cx="1194" cy="-104" rx="149.9014" ry="18"/>
<text text-anchor="middle" x="1194" y="-99.8" font-family="Times,serif" font-size="14.00" fill="#000000">SurveyViewerConditionalEvaluator</text>
</g>
<!-- SurveyViewerConditionalEvaluator&#45;&gt;ViewerAppModule -->
<g id="edge33" class="edge">
<title>SurveyViewerConditionalEvaluator&#45;&gt;ViewerAppModule</title>
<path fill="none" stroke="#000000" d="M1194,-122.0449C1194,-143.6623 1194,-177 1194,-177 1194,-177 4088.3454,-177 4088.3454,-177"/>
<polygon fill="#000000" stroke="#000000" points="4088.3455,-180.5001 4098.3454,-177 4088.3454,-173.5001 4088.3455,-180.5001"/>
</g>
<!-- SurveyViewerEndpointFactory -->
<g id="node35" class="node">
<title>SurveyViewerEndpointFactory</title>
<ellipse fill="#fdb462" stroke="#000000" cx="894" cy="-104" rx="131.9255" ry="18"/>
<text text-anchor="middle" x="894" y="-99.8" font-family="Times,serif" font-size="14.00" fill="#000000">SurveyViewerEndpointFactory</text>
</g>
<!-- SurveyViewerEndpointFactory&#45;&gt;ViewerAppModule -->
<g id="edge34" class="edge">
<title>SurveyViewerEndpointFactory&#45;&gt;ViewerAppModule</title>
<path fill="none" stroke="#000000" d="M894,-122.1554C894,-144.3519 894,-179 894,-179 894,-179 4088.2937,-179 4088.2937,-179"/>
<polygon fill="#000000" stroke="#000000" points="4088.2938,-182.5001 4098.2937,-179 4088.2937,-175.5001 4088.2938,-182.5001"/>
</g>
<!-- SurveyViewerEndpointService -->
<g id="node36" class="node">
<title>SurveyViewerEndpointService</title>
<ellipse fill="#fdb462" stroke="#000000" cx="613" cy="-104" rx="131.3419" ry="18"/>
<text text-anchor="middle" x="613" y="-99.8" font-family="Times,serif" font-size="14.00" fill="#000000">SurveyViewerEndpointService</text>
</g>
<!-- SurveyViewerEndpointService&#45;&gt;ViewerAppModule -->
<g id="edge35" class="edge">
<title>SurveyViewerEndpointService&#45;&gt;ViewerAppModule</title>
<path fill="none" stroke="#000000" d="M613,-122.2479C613,-145.0179 613,-181 613,-181 613,-181 4088.2901,-181 4088.2901,-181"/>
<polygon fill="#000000" stroke="#000000" points="4088.2901,-184.5001 4098.2901,-181 4088.29,-177.5001 4088.2901,-184.5001"/>
</g>
<!-- SurveyViewerSession -->
<g id="node37" class="node">
<title>SurveyViewerSession</title>
<ellipse fill="#fdb462" stroke="#000000" cx="368" cy="-104" rx="96.1266" ry="18"/>
<text text-anchor="middle" x="368" y="-99.8" font-family="Times,serif" font-size="14.00" fill="#000000">SurveyViewerSession</text>
</g>
<!-- SurveyViewerSession&#45;&gt;ViewerAppModule -->
<g id="edge36" class="edge">
<title>SurveyViewerSession&#45;&gt;ViewerAppModule</title>
<path fill="none" stroke="#000000" d="M368,-122.3228C368,-145.6602 368,-183 368,-183 368,-183 4088.33,-183 4088.33,-183"/>
<polygon fill="#000000" stroke="#000000" points="4088.33,-186.5001 4098.33,-183 4088.33,-179.5001 4088.33,-186.5001"/>
</g>
<!-- SurveyViewerStateService -->
<g id="node38" class="node">
<title>SurveyViewerStateService</title>
<ellipse fill="#fdb462" stroke="#000000" cx="139" cy="-104" rx="115.1416" ry="18"/>
<text text-anchor="middle" x="139" y="-99.8" font-family="Times,serif" font-size="14.00" fill="#000000">SurveyViewerStateService</text>
</g>
<!-- SurveyViewerStateService&#45;&gt;ViewerAppModule -->
<g id="edge37" class="edge">
<title>SurveyViewerStateService&#45;&gt;ViewerAppModule</title>
<path fill="none" stroke="#000000" d="M139,-122.3802C139,-146.2785 139,-185 139,-185 139,-185 4088.6312,-185 4088.6312,-185"/>
<polygon fill="#000000" stroke="#000000" points="4088.6312,-188.5001 4098.6312,-185 4088.6311,-181.5001 4088.6312,-188.5001"/>
</g>
</g>
</svg>
