<?xml version="1.0" encoding="UTF-8" standalone="no"?>
<!DOCTYPE svg PUBLIC "-//W3C//DTD SVG 1.1//EN"
 "http://www.w3.org/Graphics/SVG/1.1/DTD/svg11.dtd">
<!-- Generated by graphviz version 2.40.1 (20161225.0304)
 -->
<!-- Title: dependencies Pages: 1 -->
<svg width="1541pt" height="211pt"
 viewBox="0.00 0.00 1541.00 211.00" xmlns="http://www.w3.org/2000/svg" xmlns:xlink="http://www.w3.org/1999/xlink">
<g id="graph0" class="graph" transform="scale(1 1) rotate(0) translate(4 207)">
<title>dependencies</title>
<polygon fill="#ffffff" stroke="transparent" points="-4,4 -4,-207 1537,-207 1537,4 -4,4"/>
<text text-anchor="start" x="745.5091" y="-42.4" font-family="sans-serif" font-weight="bold" font-size="14.00" fill="#000000">Legend</text>
<polygon fill="#ffffb3" stroke="transparent" points="532.5,-10 532.5,-30 552.5,-30 552.5,-10 532.5,-10"/>
<text text-anchor="start" x="556.129" y="-15.4" font-family="sans-serif" font-size="14.00" fill="#000000"> &#160;Declarations</text>
<polygon fill="#8dd3c7" stroke="transparent" points="645.5,-10 645.5,-30 665.5,-30 665.5,-10 645.5,-10"/>
<text text-anchor="start" x="669.2251" y="-15.4" font-family="sans-serif" font-size="14.00" fill="#000000"> &#160;Module</text>
<polygon fill="#80b1d3" stroke="transparent" points="731.5,-10 731.5,-30 751.5,-30 751.5,-10 731.5,-10"/>
<text text-anchor="start" x="755.2812" y="-15.4" font-family="sans-serif" font-size="14.00" fill="#000000"> &#160;Bootstrap</text>
<polygon fill="#fdb462" stroke="transparent" points="828.5,-10 828.5,-30 848.5,-30 848.5,-10 828.5,-10"/>
<text text-anchor="start" x="852.1732" y="-15.4" font-family="sans-serif" font-size="14.00" fill="#000000"> &#160;Providers</text>
<polygon fill="#fb8072" stroke="transparent" points="924.5,-10 924.5,-30 944.5,-30 944.5,-10 924.5,-10"/>
<text text-anchor="start" x="948.2258" y="-15.4" font-family="sans-serif" font-size="14.00" fill="#000000"> &#160;Exports</text>
<g id="clust1" class="cluster">
<title>cluster_SurveyExecuteModule</title>
<polygon fill="none" stroke="#000000" stroke-dasharray="1,5" points="8,-70 8,-195 1525,-195 1525,-70 8,-70"/>
</g>
<g id="clust2" class="cluster">
<title>cluster_SurveyExecuteModule_declarations</title>
<polygon fill="none" stroke="#000000" points="1149,-78 1149,-130 1517,-130 1517,-78 1149,-78"/>
</g>
<g id="clust5" class="cluster">
<title>cluster_SurveyExecuteModule_imports</title>
<polygon fill="none" stroke="#000000" points="16,-78 16,-130 1141,-130 1141,-78 16,-78"/>
</g>
<!-- SurveyExecuteComponent -->
<g id="node1" class="node">
<title>SurveyExecuteComponent</title>
<polygon fill="#ffffb3" stroke="#000000" points="1509.0772,-122 1342.9228,-122 1342.9228,-86 1509.0772,-86 1509.0772,-122"/>
<text text-anchor="middle" x="1426" y="-99.8" font-family="Times,serif" font-size="14.00" fill="#000000">SurveyExecuteComponent</text>
</g>
<!-- SurveyExecuteModule -->
<g id="node3" class="node">
<title>SurveyExecuteModule</title>
<polygon fill="#8dd3c7" stroke="#000000" points="881.2949,-187 878.2949,-191 857.2949,-191 854.2949,-187 736.7051,-187 736.7051,-151 881.2949,-151 881.2949,-187"/>
<text text-anchor="middle" x="809" y="-164.8" font-family="Times,serif" font-size="14.00" fill="#000000">SurveyExecuteModule</text>
</g>
<!-- SurveyExecuteComponent&#45;&gt;SurveyExecuteModule -->
<g id="edge1" class="edge">
<title>SurveyExecuteComponent&#45;&gt;SurveyExecuteModule</title>
<path fill="none" stroke="#000000" d="M1426,-122.0109C1426,-144.4852 1426,-180 1426,-180 1426,-180 891.2884,-180 891.2884,-180"/>
<polygon fill="#000000" stroke="#000000" points="891.2885,-176.5001 881.2884,-180 891.2884,-183.5001 891.2885,-176.5001"/>
</g>
<!-- ConductSurveyComponent -->
<g id="node2" class="node">
<title>ConductSurveyComponent</title>
<polygon fill="#ffffb3" stroke="#000000" points="1325.4326,-122 1156.5674,-122 1156.5674,-86 1325.4326,-86 1325.4326,-122"/>
<text text-anchor="middle" x="1241" y="-99.8" font-family="Times,serif" font-size="14.00" fill="#000000">ConductSurveyComponent</text>
</g>
<!-- ConductSurveyComponent&#45;&gt;SurveyExecuteModule -->
<g id="edge2" class="edge">
<title>ConductSurveyComponent&#45;&gt;SurveyExecuteModule</title>
<path fill="none" stroke="#000000" d="M1241,-122.1289C1241,-142.5724 1241,-173 1241,-173 1241,-173 891.3071,-173 891.3071,-173"/>
<polygon fill="#000000" stroke="#000000" points="891.3071,-169.5001 881.3071,-173 891.3071,-176.5001 891.3071,-169.5001"/>
</g>
<!-- CommonModule -->
<g id="node4" class="node">
<title>CommonModule</title>
<polygon fill="#8dd3c7" stroke="#000000" points="1132.6681,-122 1129.6681,-126 1108.6681,-126 1105.6681,-122 1021.3319,-122 1021.3319,-86 1132.6681,-86 1132.6681,-122"/>
<text text-anchor="middle" x="1077" y="-99.8" font-family="Times,serif" font-size="14.00" fill="#000000">CommonModule</text>
</g>
<!-- CommonModule&#45;&gt;SurveyExecuteModule -->
<g id="edge3" class="edge">
<title>CommonModule&#45;&gt;SurveyExecuteModule</title>
<path fill="none" stroke="#000000" d="M1077,-122.2667C1077,-140.5552 1077,-166 1077,-166 1077,-166 891.1716,-166 891.1716,-166"/>
<polygon fill="#000000" stroke="#000000" points="891.1717,-162.5001 881.1716,-166 891.1716,-169.5001 891.1717,-162.5001"/>
</g>
<!-- ROUTES -->
<g id="node5" class="node">
<title>ROUTES</title>
<polygon fill="#8dd3c7" stroke="#000000" points="1003.439,-122 1000.439,-126 979.439,-126 976.439,-122 932.561,-122 932.561,-86 1003.439,-86 1003.439,-122"/>
<text text-anchor="middle" x="968" y="-99.8" font-family="Times,serif" font-size="14.00" fill="#000000">ROUTES</text>
</g>
<!-- ROUTES&#45;&gt;SurveyExecuteModule -->
<g id="edge4" class="edge">
<title>ROUTES&#45;&gt;SurveyExecuteModule</title>
<path fill="none" stroke="#000000" d="M968,-122.0091C968,-138.0494 968,-159 968,-159 968,-159 891.5207,-159 891.5207,-159"/>
<polygon fill="#000000" stroke="#000000" points="891.5207,-155.5001 881.5207,-159 891.5207,-162.5001 891.5207,-155.5001"/>
</g>
<!-- FormsModule -->
<g id="node6" class="node">
<title>FormsModule</title>
<polygon fill="#8dd3c7" stroke="#000000" points="914.8288,-122 911.8288,-126 890.8288,-126 887.8288,-122 819.1712,-122 819.1712,-86 914.8288,-86 914.8288,-122"/>
<text text-anchor="middle" x="867" y="-99.8" font-family="Times,serif" font-size="14.00" fill="#000000">FormsModule</text>
</g>
<!-- FormsModule&#45;&gt;SurveyExecuteModule -->
<g id="edge5" class="edge">
<title>FormsModule&#45;&gt;SurveyExecuteModule</title>
<path fill="none" stroke="#000000" d="M850.2416,-122.1061C850.2416,-122.1061 850.2416,-140.991 850.2416,-140.991"/>
<polygon fill="#000000" stroke="#000000" points="846.7417,-140.9909 850.2416,-150.991 853.7417,-140.991 846.7417,-140.9909"/>
</g>
<!-- SharedModule -->
<g id="node7" class="node">
<title>SharedModule</title>
<polygon fill="#8dd3c7" stroke="#000000" points="801.4231,-122 798.4231,-126 777.4231,-126 774.4231,-122 702.5769,-122 702.5769,-86 801.4231,-86 801.4231,-122"/>
<text text-anchor="middle" x="752" y="-99.8" font-family="Times,serif" font-size="14.00" fill="#000000">SharedModule</text>
</g>
<!-- SharedModule&#45;&gt;SurveyExecuteModule -->
<g id="edge6" class="edge">
<title>SharedModule&#45;&gt;SurveyExecuteModule</title>
<path fill="none" stroke="#000000" d="M769.0319,-122.1061C769.0319,-122.1061 769.0319,-140.991 769.0319,-140.991"/>
<polygon fill="#000000" stroke="#000000" points="765.532,-140.9909 769.0319,-150.991 772.532,-140.991 765.532,-140.9909"/>
</g>
<!-- ButtonsModule.forRoot() -->
<g id="node8" class="node">
<title>ButtonsModule.forRoot()</title>
<polygon fill="#8dd3c7" stroke="#000000" points="684.9825,-122 681.9825,-126 660.9825,-126 657.9825,-122 525.0175,-122 525.0175,-86 684.9825,-86 684.9825,-122"/>
<text text-anchor="middle" x="605" y="-99.8" font-family="Times,serif" font-size="14.00" fill="#000000">ButtonsModule.forRoot()</text>
</g>
<!-- ButtonsModule.forRoot()&#45;&gt;SurveyExecuteModule -->
<g id="edge7" class="edge">
<title>ButtonsModule.forRoot()&#45;&gt;SurveyExecuteModule</title>
<path fill="none" stroke="#000000" d="M605,-122.0091C605,-138.0494 605,-159 605,-159 605,-159 726.7901,-159 726.7901,-159"/>
<polygon fill="#000000" stroke="#000000" points="726.7902,-162.5001 736.7901,-159 726.7901,-155.5001 726.7902,-162.5001"/>
</g>
<!-- TranslateModule.forChild(args) -->
<g id="node9" class="node">
<title>TranslateModule.forChild(args)</title>
<polygon fill="#8dd3c7" stroke="#000000" points="507.7127,-122 504.7127,-126 483.7127,-126 480.7127,-122 312.2873,-122 312.2873,-86 507.7127,-86 507.7127,-122"/>
<text text-anchor="middle" x="410" y="-99.8" font-family="Times,serif" font-size="14.00" fill="#000000">TranslateModule.forChild(args)</text>
</g>
<!-- TranslateModule.forChild(args)&#45;&gt;SurveyExecuteModule -->
<g id="edge8" class="edge">
<title>TranslateModule.forChild(args)&#45;&gt;SurveyExecuteModule</title>
<path fill="none" stroke="#000000" d="M410,-122.2667C410,-140.5552 410,-166 410,-166 410,-166 726.7441,-166 726.7441,-166"/>
<polygon fill="#000000" stroke="#000000" points="726.7441,-169.5001 736.7441,-166 726.7441,-162.5001 726.7441,-169.5001"/>
</g>
<!-- DropzoneModule -->
<g id="node10" class="node">
<title>DropzoneModule</title>
<polygon fill="#8dd3c7" stroke="#000000" points="294.2465,-122 291.2465,-126 270.2465,-126 267.2465,-122 179.7535,-122 179.7535,-86 294.2465,-86 294.2465,-122"/>
<text text-anchor="middle" x="237" y="-99.8" font-family="Times,serif" font-size="14.00" fill="#000000">DropzoneModule</text>
</g>
<!-- DropzoneModule&#45;&gt;SurveyExecuteModule -->
<g id="edge9" class="edge">
<title>DropzoneModule&#45;&gt;SurveyExecuteModule</title>
<path fill="none" stroke="#000000" d="M237,-122.1289C237,-142.5724 237,-173 237,-173 237,-173 726.8456,-173 726.8456,-173"/>
<polygon fill="#000000" stroke="#000000" points="726.8457,-176.5001 736.8456,-173 726.8456,-169.5001 726.8457,-176.5001"/>
</g>
<!-- NgxDatatableModule -->
<g id="node11" class="node">
<title>NgxDatatableModule</title>
<polygon fill="#8dd3c7" stroke="#000000" points="161.7935,-122 158.7935,-126 137.7935,-126 134.7935,-122 24.2065,-122 24.2065,-86 161.7935,-86 161.7935,-122"/>
<text text-anchor="middle" x="93" y="-99.8" font-family="Times,serif" font-size="14.00" fill="#000000">NgxDatatableModule</text>
</g>
<!-- NgxDatatableModule&#45;&gt;SurveyExecuteModule -->
<g id="edge10" class="edge">
<title>NgxDatatableModule&#45;&gt;SurveyExecuteModule</title>
<path fill="none" stroke="#000000" d="M93,-122.0109C93,-144.4852 93,-180 93,-180 93,-180 726.7377,-180 726.7377,-180"/>
<polygon fill="#000000" stroke="#000000" points="726.7377,-183.5001 736.7377,-180 726.7377,-176.5001 726.7377,-183.5001"/>
</g>
</g>
</svg>
