<?xml version="1.0" encoding="UTF-8" standalone="no"?>
<!DOCTYPE svg PUBLIC "-//W3C//DTD SVG 1.1//EN"
 "http://www.w3.org/Graphics/SVG/1.1/DTD/svg11.dtd">
<!-- Generated by graphviz version 2.40.1 (20161225.0304)
 -->
<!-- Title: dependencies Pages: 1 -->
<svg width="690pt" height="284pt"
 viewBox="0.00 0.00 690.00 284.00" xmlns="http://www.w3.org/2000/svg" xmlns:xlink="http://www.w3.org/1999/xlink">
<g id="graph0" class="graph" transform="scale(1 1) rotate(0) translate(4 280)">
<title>dependencies</title>
<polygon fill="#ffffff" stroke="transparent" points="-4,4 -4,-280 686,-280 686,4 -4,4"/>
<text text-anchor="start" x="320.0091" y="-42.4" font-family="sans-serif" font-weight="bold" font-size="14.00" fill="#000000">Legend</text>
<polygon fill="#ffffb3" stroke="transparent" points="107,-10 107,-30 127,-30 127,-10 107,-10"/>
<text text-anchor="start" x="130.629" y="-15.4" font-family="sans-serif" font-size="14.00" fill="#000000"> &#160;Declarations</text>
<polygon fill="#8dd3c7" stroke="transparent" points="220,-10 220,-30 240,-30 240,-10 220,-10"/>
<text text-anchor="start" x="243.7251" y="-15.4" font-family="sans-serif" font-size="14.00" fill="#000000"> &#160;Module</text>
<polygon fill="#80b1d3" stroke="transparent" points="306,-10 306,-30 326,-30 326,-10 306,-10"/>
<text text-anchor="start" x="329.7812" y="-15.4" font-family="sans-serif" font-size="14.00" fill="#000000"> &#160;Bootstrap</text>
<polygon fill="#fdb462" stroke="transparent" points="403,-10 403,-30 423,-30 423,-10 403,-10"/>
<text text-anchor="start" x="426.6732" y="-15.4" font-family="sans-serif" font-size="14.00" fill="#000000"> &#160;Providers</text>
<polygon fill="#fb8072" stroke="transparent" points="499,-10 499,-30 519,-30 519,-10 499,-10"/>
<text text-anchor="start" x="522.7258" y="-15.4" font-family="sans-serif" font-size="14.00" fill="#000000"> &#160;Exports</text>
<g id="clust1" class="cluster">
<title>cluster_SharedModule</title>
<polygon fill="none" stroke="#000000" stroke-dasharray="1,5" points="8,-70 8,-268 674,-268 674,-70 8,-70"/>
</g>
<g id="clust2" class="cluster">
<title>cluster_SharedModule_declarations</title>
<polygon fill="none" stroke="#000000" points="25,-78 25,-130 660,-130 660,-78 25,-78"/>
</g>
<g id="clust8" class="cluster">
<title>cluster_SharedModule_exports</title>
<polygon fill="none" stroke="#000000" points="16,-208 16,-260 666,-260 666,-208 16,-208"/>
</g>
<!-- DropdownTreeviewSelectComponent -->
<g id="node1" class="node">
<title>DropdownTreeviewSelectComponent</title>
<polygon fill="#ffffb3" stroke="#000000" points="652.2682,-122 423.7318,-122 423.7318,-86 652.2682,-86 652.2682,-122"/>
<text text-anchor="middle" x="538" y="-99.8" font-family="Times,serif" font-size="14.00" fill="#000000">DropdownTreeviewSelectComponent</text>
</g>
<!-- SharedModule -->
<g id="node5" class="node">
<title>SharedModule</title>
<polygon fill="#8dd3c7" stroke="#000000" points="278.4231,-187 275.4231,-191 254.4231,-191 251.4231,-187 179.5769,-187 179.5769,-151 278.4231,-151 278.4231,-187"/>
<text text-anchor="middle" x="229" y="-164.8" font-family="Times,serif" font-size="14.00" fill="#000000">SharedModule</text>
</g>
<!-- DropdownTreeviewSelectComponent&#45;&gt;SharedModule -->
<g id="edge1" class="edge">
<title>DropdownTreeviewSelectComponent&#45;&gt;SharedModule</title>
<path fill="none" stroke="#000000" d="M576.7947,-122.0225C576.7947,-139.3734 576.7947,-163 576.7947,-163 576.7947,-163 288.4611,-163 288.4611,-163"/>
<polygon fill="#000000" stroke="#000000" points="288.4612,-159.5001 278.4611,-163 288.4611,-166.5001 288.4612,-159.5001"/>
</g>
<!-- ItemListComponent -->
<g id="node2" class="node">
<title>ItemListComponent</title>
<polygon fill="#ffffb3" stroke="#000000" points="405.2674,-122 276.7326,-122 276.7326,-86 405.2674,-86 405.2674,-122"/>
<text text-anchor="middle" x="341" y="-99.8" font-family="Times,serif" font-size="14.00" fill="#000000">ItemListComponent</text>
</g>
<!-- ItemListComponent&#45;&gt;SharedModule -->
<g id="edge2" class="edge">
<title>ItemListComponent&#45;&gt;SharedModule</title>
<path fill="none" stroke="#000000" d="M276.7304,-104C271.2535,-104 267.7483,-104 267.7483,-104 267.7483,-104 267.7483,-140.8939 267.7483,-140.8939"/>
<polygon fill="#000000" stroke="#000000" points="264.2483,-140.8938 267.7483,-150.8939 271.2483,-140.8939 264.2483,-140.8938"/>
</g>
<!-- SafePipe -->
<g id="node3" class="node">
<title>SafePipe</title>
<polygon fill="#ffffb3" stroke="#000000" points="258.7606,-122 193.2394,-122 193.2394,-86 258.7606,-86 258.7606,-122"/>
<text text-anchor="middle" x="226" y="-99.8" font-family="Times,serif" font-size="14.00" fill="#000000">SafePipe</text>
</g>
<!-- SafePipe&#45;&gt;SharedModule -->
<g id="edge3" class="edge">
<title>SafePipe&#45;&gt;SharedModule</title>
<path fill="none" stroke="#000000" d="M226,-122.1061C226,-122.1061 226,-140.991 226,-140.991"/>
<polygon fill="#000000" stroke="#000000" points="222.5001,-140.9909 226,-150.991 229.5001,-140.991 222.5001,-140.9909"/>
</g>
<!-- SearchBoxComponent -->
<g id="node4" class="node">
<title>SearchBoxComponent</title>
<polygon fill="#ffffb3" stroke="#000000" points="175.2562,-122 32.7438,-122 32.7438,-86 175.2562,-86 175.2562,-122"/>
<text text-anchor="middle" x="104" y="-99.8" font-family="Times,serif" font-size="14.00" fill="#000000">SearchBoxComponent</text>
</g>
<!-- SearchBoxComponent&#45;&gt;SharedModule -->
<g id="edge4" class="edge">
<title>SearchBoxComponent&#45;&gt;SharedModule</title>
<path fill="none" stroke="#000000" d="M175.3342,-104C182.0748,-104 186.4544,-104 186.4544,-104 186.4544,-104 186.4544,-140.8939 186.4544,-140.8939"/>
<polygon fill="#000000" stroke="#000000" points="182.9545,-140.8938 186.4544,-150.8939 189.9545,-140.8939 182.9545,-140.8938"/>
</g>
<!-- DropdownTreeviewSelectComponent  -->
<g id="node6" class="node">
<title>DropdownTreeviewSelectComponent </title>
<polygon fill="#fb8072" stroke="#000000" points="657.7681,-252 426.2319,-252 426.2319,-216 657.7681,-216 657.7681,-252"/>
<text text-anchor="middle" x="542" y="-229.8" font-family="Times,serif" font-size="14.00" fill="#000000">DropdownTreeviewSelectComponent </text>
</g>
<!-- SharedModule&#45;&gt;DropdownTreeviewSelectComponent  -->
<g id="edge5" class="edge">
<title>SharedModule&#45;&gt;DropdownTreeviewSelectComponent </title>
<path fill="none" stroke="#000000" stroke-dasharray="5,2" d="M278.3396,-175C356.8537,-175 501.4553,-175 501.4553,-175 501.4553,-175 501.4553,-205.9775 501.4553,-205.9775"/>
<polygon fill="#000000" stroke="#000000" points="497.9554,-205.9774 501.4553,-215.9775 504.9554,-205.9775 497.9554,-205.9774"/>
</g>
<!-- ItemListComponent  -->
<g id="node7" class="node">
<title>ItemListComponent </title>
<polygon fill="#fb8072" stroke="#000000" points="408.2675,-252 275.7325,-252 275.7325,-216 408.2675,-216 408.2675,-252"/>
<text text-anchor="middle" x="342" y="-229.8" font-family="Times,serif" font-size="14.00" fill="#000000">ItemListComponent </text>
</g>
<!-- SharedModule&#45;&gt;ItemListComponent  -->
<g id="edge6" class="edge">
<title>SharedModule&#45;&gt;ItemListComponent </title>
<path fill="none" stroke="#000000" stroke-dasharray="5,2" d="M266.7483,-187.1061C266.7483,-206.3391 266.7483,-234 266.7483,-234 266.7483,-234 267.641,-234 267.641,-234"/>
<polygon fill="#000000" stroke="#000000" points="265.6762,-237.5001 275.6761,-234 265.6761,-230.5001 265.6762,-237.5001"/>
</g>
<!-- SafePipe  -->
<g id="node8" class="node">
<title>SafePipe </title>
<polygon fill="#fb8072" stroke="#000000" points="257.7607,-252 188.2393,-252 188.2393,-216 257.7607,-216 257.7607,-252"/>
<text text-anchor="middle" x="223" y="-229.8" font-family="Times,serif" font-size="14.00" fill="#000000">SafePipe </text>
</g>
<!-- SharedModule&#45;&gt;SafePipe  -->
<g id="edge7" class="edge">
<title>SharedModule&#45;&gt;SafePipe </title>
<path fill="none" stroke="#000000" stroke-dasharray="5,2" d="M223,-187.1061C223,-187.1061 223,-205.991 223,-205.991"/>
<polygon fill="#000000" stroke="#000000" points="219.5001,-205.9909 223,-215.991 226.5001,-205.991 219.5001,-205.9909"/>
</g>
<!-- SearchBoxComponent  -->
<g id="node9" class="node">
<title>SearchBoxComponent </title>
<polygon fill="#fb8072" stroke="#000000" points="170.2562,-252 23.7438,-252 23.7438,-216 170.2562,-216 170.2562,-252"/>
<text text-anchor="middle" x="97" y="-229.8" font-family="Times,serif" font-size="14.00" fill="#000000">SearchBoxComponent </text>
</g>
<!-- SharedModule&#45;&gt;SearchBoxComponent  -->
<g id="edge8" class="edge">
<title>SharedModule&#45;&gt;SearchBoxComponent </title>
<path fill="none" stroke="#000000" stroke-dasharray="5,2" d="M184.0794,-187.1061C184.0794,-206.3391 184.0794,-234 184.0794,-234 184.0794,-234 180.4732,-234 180.4732,-234"/>
<polygon fill="#000000" stroke="#000000" points="180.4733,-230.5001 170.4732,-234 180.4732,-237.5001 180.4733,-230.5001"/>
</g>
</g>
</svg>
