<?xml version="1.0" encoding="UTF-8" standalone="no"?>
<!DOCTYPE svg PUBLIC "-//W3C//DTD SVG 1.1//EN"
 "http://www.w3.org/Graphics/SVG/1.1/DTD/svg11.dtd">
<!-- Generated by graphviz version 2.40.1 (20161225.0304)
 -->
<!-- Title: dependencies Pages: 1 -->
<svg width="1008pt" height="211pt"
 viewBox="0.00 0.00 1008.00 211.00" xmlns="http://www.w3.org/2000/svg" xmlns:xlink="http://www.w3.org/1999/xlink">
<g id="graph0" class="graph" transform="scale(1 1) rotate(0) translate(4 207)">
<title>dependencies</title>
<polygon fill="#ffffff" stroke="transparent" points="-4,4 -4,-207 1004,-207 1004,4 -4,4"/>
<text text-anchor="start" x="479.0091" y="-42.4" font-family="sans-serif" font-weight="bold" font-size="14.00" fill="#000000">Legend</text>
<polygon fill="#ffffb3" stroke="transparent" points="266,-10 266,-30 286,-30 286,-10 266,-10"/>
<text text-anchor="start" x="289.629" y="-15.4" font-family="sans-serif" font-size="14.00" fill="#000000"> &#160;Declarations</text>
<polygon fill="#8dd3c7" stroke="transparent" points="379,-10 379,-30 399,-30 399,-10 379,-10"/>
<text text-anchor="start" x="402.7251" y="-15.4" font-family="sans-serif" font-size="14.00" fill="#000000"> &#160;Module</text>
<polygon fill="#80b1d3" stroke="transparent" points="465,-10 465,-30 485,-30 485,-10 465,-10"/>
<text text-anchor="start" x="488.7812" y="-15.4" font-family="sans-serif" font-size="14.00" fill="#000000"> &#160;Bootstrap</text>
<polygon fill="#fdb462" stroke="transparent" points="562,-10 562,-30 582,-30 582,-10 562,-10"/>
<text text-anchor="start" x="585.6732" y="-15.4" font-family="sans-serif" font-size="14.00" fill="#000000"> &#160;Providers</text>
<polygon fill="#fb8072" stroke="transparent" points="658,-10 658,-30 678,-30 678,-10 658,-10"/>
<text text-anchor="start" x="681.7258" y="-15.4" font-family="sans-serif" font-size="14.00" fill="#000000"> &#160;Exports</text>
<g id="clust1" class="cluster">
<title>cluster_DashboardModule</title>
<polygon fill="none" stroke="#000000" stroke-dasharray="1,5" points="8,-70 8,-195 992,-195 992,-70 8,-70"/>
</g>
<g id="clust2" class="cluster">
<title>cluster_DashboardModule_declarations</title>
<polygon fill="none" stroke="#000000" points="826,-78 826,-130 984,-130 984,-78 826,-78"/>
</g>
<g id="clust4" class="cluster">
<title>cluster_DashboardModule_imports</title>
<polygon fill="none" stroke="#000000" points="16,-78 16,-130 818,-130 818,-78 16,-78"/>
</g>
<!-- DashboardComponent -->
<g id="node1" class="node">
<title>DashboardComponent</title>
<polygon fill="#ffffb3" stroke="#000000" points="975.9734,-122 834.0266,-122 834.0266,-86 975.9734,-86 975.9734,-122"/>
<text text-anchor="middle" x="905" y="-99.8" font-family="Times,serif" font-size="14.00" fill="#000000">DashboardComponent</text>
</g>
<!-- DashboardModule -->
<g id="node2" class="node">
<title>DashboardModule</title>
<polygon fill="#8dd3c7" stroke="#000000" points="570.191,-187 567.191,-191 546.191,-191 543.191,-187 449.809,-187 449.809,-151 570.191,-151 570.191,-187"/>
<text text-anchor="middle" x="510" y="-164.8" font-family="Times,serif" font-size="14.00" fill="#000000">DashboardModule</text>
</g>
<!-- DashboardComponent&#45;&gt;DashboardModule -->
<g id="edge1" class="edge">
<title>DashboardComponent&#45;&gt;DashboardModule</title>
<path fill="none" stroke="#000000" d="M905,-122.2843C905,-143.3211 905,-175 905,-175 905,-175 580.422,-175 580.422,-175"/>
<polygon fill="#000000" stroke="#000000" points="580.422,-171.5001 570.422,-175 580.4219,-178.5001 580.422,-171.5001"/>
</g>
<!-- CommonModule -->
<g id="node3" class="node">
<title>CommonModule</title>
<polygon fill="#8dd3c7" stroke="#000000" points="809.6681,-122 806.6681,-126 785.6681,-126 782.6681,-122 698.3319,-122 698.3319,-86 809.6681,-86 809.6681,-122"/>
<text text-anchor="middle" x="754" y="-99.8" font-family="Times,serif" font-size="14.00" fill="#000000">CommonModule</text>
</g>
<!-- CommonModule&#45;&gt;DashboardModule -->
<g id="edge2" class="edge">
<title>CommonModule&#45;&gt;DashboardModule</title>
<path fill="none" stroke="#000000" d="M754,-122.0225C754,-139.3734 754,-163 754,-163 754,-163 580.3146,-163 580.3146,-163"/>
<polygon fill="#000000" stroke="#000000" points="580.3147,-159.5001 570.3146,-163 580.3146,-166.5001 580.3147,-159.5001"/>
</g>
<!-- RouterModule.forChild(args) -->
<g id="node4" class="node">
<title>RouterModule.forChild(args)</title>
<polygon fill="#8dd3c7" stroke="#000000" points="680.7323,-122 677.7323,-126 656.7323,-126 653.7323,-122 499.2677,-122 499.2677,-86 680.7323,-86 680.7323,-122"/>
<text text-anchor="middle" x="590" y="-99.8" font-family="Times,serif" font-size="14.00" fill="#000000">RouterModule.forChild(args)</text>
</g>
<!-- RouterModule.forChild(args)&#45;&gt;DashboardModule -->
<g id="edge3" class="edge">
<title>RouterModule.forChild(args)&#45;&gt;DashboardModule</title>
<path fill="none" stroke="#000000" d="M534.7397,-122.1061C534.7397,-122.1061 534.7397,-140.991 534.7397,-140.991"/>
<polygon fill="#000000" stroke="#000000" points="531.2397,-140.9909 534.7397,-150.991 538.2397,-140.991 531.2397,-140.9909"/>
</g>
<!-- WidgetModule -->
<g id="node5" class="node">
<title>WidgetModule</title>
<polygon fill="#8dd3c7" stroke="#000000" points="481.2605,-122 478.2605,-126 457.2605,-126 454.2605,-122 380.7395,-122 380.7395,-86 481.2605,-86 481.2605,-122"/>
<text text-anchor="middle" x="431" y="-99.8" font-family="Times,serif" font-size="14.00" fill="#000000">WidgetModule</text>
</g>
<!-- WidgetModule&#45;&gt;DashboardModule -->
<g id="edge4" class="edge">
<title>WidgetModule&#45;&gt;DashboardModule</title>
<path fill="none" stroke="#000000" d="M465.6424,-122.1061C465.6424,-122.1061 465.6424,-140.991 465.6424,-140.991"/>
<polygon fill="#000000" stroke="#000000" points="462.1424,-140.9909 465.6424,-150.991 469.1424,-140.991 462.1424,-140.9909"/>
</g>
<!-- NgxEchartsModule -->
<g id="node6" class="node">
<title>NgxEchartsModule</title>
<polygon fill="#8dd3c7" stroke="#000000" points="362.6345,-122 359.6345,-126 338.6345,-126 335.6345,-122 237.3655,-122 237.3655,-86 362.6345,-86 362.6345,-122"/>
<text text-anchor="middle" x="300" y="-99.8" font-family="Times,serif" font-size="14.00" fill="#000000">NgxEchartsModule</text>
</g>
<!-- NgxEchartsModule&#45;&gt;DashboardModule -->
<g id="edge5" class="edge">
<title>NgxEchartsModule&#45;&gt;DashboardModule</title>
<path fill="none" stroke="#000000" d="M300,-122.0225C300,-139.3734 300,-163 300,-163 300,-163 439.8224,-163 439.8224,-163"/>
<polygon fill="#000000" stroke="#000000" points="439.8225,-166.5001 449.8224,-163 439.8224,-159.5001 439.8225,-166.5001"/>
</g>
<!-- TranslateModule.forChild(args) -->
<g id="node7" class="node">
<title>TranslateModule.forChild(args)</title>
<polygon fill="#8dd3c7" stroke="#000000" points="219.7127,-122 216.7127,-126 195.7127,-126 192.7127,-122 24.2873,-122 24.2873,-86 219.7127,-86 219.7127,-122"/>
<text text-anchor="middle" x="122" y="-99.8" font-family="Times,serif" font-size="14.00" fill="#000000">TranslateModule.forChild(args)</text>
</g>
<!-- TranslateModule.forChild(args)&#45;&gt;DashboardModule -->
<g id="edge6" class="edge">
<title>TranslateModule.forChild(args)&#45;&gt;DashboardModule</title>
<path fill="none" stroke="#000000" d="M122,-122.2843C122,-143.3211 122,-175 122,-175 122,-175 439.8007,-175 439.8007,-175"/>
<polygon fill="#000000" stroke="#000000" points="439.8007,-178.5001 449.8007,-175 439.8007,-171.5001 439.8007,-178.5001"/>
</g>
</g>
</svg>
