<?xml version="1.0" encoding="UTF-8" standalone="no"?>
<!DOCTYPE svg PUBLIC "-//W3C//DTD SVG 1.1//EN"
 "http://www.w3.org/Graphics/SVG/1.1/DTD/svg11.dtd">
<!-- Generated by graphviz version 2.40.1 (20161225.0304)
 -->
<!-- Title: dependencies Pages: 1 -->
<svg width="755pt" height="211pt"
 viewBox="0.00 0.00 755.00 211.00" xmlns="http://www.w3.org/2000/svg" xmlns:xlink="http://www.w3.org/1999/xlink">
<g id="graph0" class="graph" transform="scale(1 1) rotate(0) translate(4 207)">
<title>dependencies</title>
<polygon fill="#ffffff" stroke="transparent" points="-4,4 -4,-207 751,-207 751,4 -4,4"/>
<text text-anchor="start" x="352.5091" y="-42.4" font-family="sans-serif" font-weight="bold" font-size="14.00" fill="#000000">Legend</text>
<polygon fill="#ffffb3" stroke="transparent" points="139.5,-10 139.5,-30 159.5,-30 159.5,-10 139.5,-10"/>
<text text-anchor="start" x="163.129" y="-15.4" font-family="sans-serif" font-size="14.00" fill="#000000"> &#160;Declarations</text>
<polygon fill="#8dd3c7" stroke="transparent" points="252.5,-10 252.5,-30 272.5,-30 272.5,-10 252.5,-10"/>
<text text-anchor="start" x="276.2251" y="-15.4" font-family="sans-serif" font-size="14.00" fill="#000000"> &#160;Module</text>
<polygon fill="#80b1d3" stroke="transparent" points="338.5,-10 338.5,-30 358.5,-30 358.5,-10 338.5,-10"/>
<text text-anchor="start" x="362.2812" y="-15.4" font-family="sans-serif" font-size="14.00" fill="#000000"> &#160;Bootstrap</text>
<polygon fill="#fdb462" stroke="transparent" points="435.5,-10 435.5,-30 455.5,-30 455.5,-10 435.5,-10"/>
<text text-anchor="start" x="459.1732" y="-15.4" font-family="sans-serif" font-size="14.00" fill="#000000"> &#160;Providers</text>
<polygon fill="#fb8072" stroke="transparent" points="531.5,-10 531.5,-30 551.5,-30 551.5,-10 531.5,-10"/>
<text text-anchor="start" x="555.2258" y="-15.4" font-family="sans-serif" font-size="14.00" fill="#000000"> &#160;Exports</text>
<g id="clust1" class="cluster">
<title>cluster_SurveysManagementModule</title>
<polygon fill="none" stroke="#000000" stroke-dasharray="1,5" points="8,-70 8,-195 739,-195 739,-70 8,-70"/>
</g>
<g id="clust2" class="cluster">
<title>cluster_SurveysManagementModule_declarations</title>
<polygon fill="none" stroke="#000000" points="336,-78 336,-130 731,-130 731,-78 336,-78"/>
</g>
<g id="clust5" class="cluster">
<title>cluster_SurveysManagementModule_imports</title>
<polygon fill="none" stroke="#000000" points="16,-78 16,-130 328,-130 328,-78 16,-78"/>
</g>
<!-- SurveysEditorComponent -->
<g id="node1" class="node">
<title>SurveysEditorComponent</title>
<polygon fill="#ffffb3" stroke="#000000" points="722.9298,-122 561.0702,-122 561.0702,-86 722.9298,-86 722.9298,-122"/>
<text text-anchor="middle" x="642" y="-99.8" font-family="Times,serif" font-size="14.00" fill="#000000">SurveysEditorComponent</text>
</g>
<!-- SurveysManagementModule -->
<g id="node3" class="node">
<title>SurveysManagementModule</title>
<polygon fill="#8dd3c7" stroke="#000000" points="425.7366,-187 422.7366,-191 401.7366,-191 398.7366,-187 248.2634,-187 248.2634,-151 425.7366,-151 425.7366,-187"/>
<text text-anchor="middle" x="337" y="-164.8" font-family="Times,serif" font-size="14.00" fill="#000000">SurveysManagementModule</text>
</g>
<!-- SurveysEditorComponent&#45;&gt;SurveysManagementModule -->
<g id="edge1" class="edge">
<title>SurveysEditorComponent&#45;&gt;SurveysManagementModule</title>
<path fill="none" stroke="#000000" d="M642,-122.1061C642,-141.3391 642,-169 642,-169 642,-169 436.0385,-169 436.0385,-169"/>
<polygon fill="#000000" stroke="#000000" points="436.0386,-165.5001 426.0385,-169 436.0385,-172.5001 436.0386,-165.5001"/>
</g>
<!-- SurveysManagementComponent -->
<g id="node2" class="node">
<title>SurveysManagementComponent</title>
<polygon fill="#ffffb3" stroke="#000000" points="543.5196,-122 344.4804,-122 344.4804,-86 543.5196,-86 543.5196,-122"/>
<text text-anchor="middle" x="444" y="-99.8" font-family="Times,serif" font-size="14.00" fill="#000000">SurveysManagementComponent</text>
</g>
<!-- SurveysManagementComponent&#45;&gt;SurveysManagementModule -->
<g id="edge2" class="edge">
<title>SurveysManagementComponent&#45;&gt;SurveysManagementModule</title>
<path fill="none" stroke="#000000" d="M385.0544,-122.1061C385.0544,-122.1061 385.0544,-140.991 385.0544,-140.991"/>
<polygon fill="#000000" stroke="#000000" points="381.5544,-140.9909 385.0544,-150.991 388.5544,-140.991 381.5544,-140.9909"/>
</g>
<!-- AccountManagementModule -->
<g id="node4" class="node">
<title>AccountManagementModule</title>
<polygon fill="#8dd3c7" stroke="#000000" points="320.0604,-122 317.0604,-126 296.0604,-126 293.0604,-122 139.9396,-122 139.9396,-86 320.0604,-86 320.0604,-122"/>
<text text-anchor="middle" x="230" y="-99.8" font-family="Times,serif" font-size="14.00" fill="#000000">AccountManagementModule</text>
</g>
<!-- AccountManagementModule&#45;&gt;SurveysManagementModule -->
<g id="edge3" class="edge">
<title>AccountManagementModule&#45;&gt;SurveysManagementModule</title>
<path fill="none" stroke="#000000" d="M284.081,-122.1061C284.081,-122.1061 284.081,-140.991 284.081,-140.991"/>
<polygon fill="#000000" stroke="#000000" points="280.5811,-140.9909 284.081,-150.991 287.5811,-140.991 280.5811,-140.9909"/>
</g>
<!-- SharedModule -->
<g id="node5" class="node">
<title>SharedModule</title>
<polygon fill="#8dd3c7" stroke="#000000" points="122.4231,-122 119.4231,-126 98.4231,-126 95.4231,-122 23.5769,-122 23.5769,-86 122.4231,-86 122.4231,-122"/>
<text text-anchor="middle" x="73" y="-99.8" font-family="Times,serif" font-size="14.00" fill="#000000">SharedModule</text>
</g>
<!-- SharedModule&#45;&gt;SurveysManagementModule -->
<g id="edge4" class="edge">
<title>SharedModule&#45;&gt;SurveysManagementModule</title>
<path fill="none" stroke="#000000" d="M73,-122.1061C73,-141.3391 73,-169 73,-169 73,-169 237.9897,-169 237.9897,-169"/>
<polygon fill="#000000" stroke="#000000" points="237.9897,-172.5001 247.9897,-169 237.9897,-165.5001 237.9897,-172.5001"/>
</g>
</g>
</svg>
